<?xml version="1.0" encoding="iso-8859-1"?>
<!-- Generator: Adobe Illustrator 22.1.0, SVG Export Plug-In . SVG Version: 6.00 Build 0)  -->
<svg version="1.1" id="Layer_1" xmlns="http://www.w3.org/2000/svg" xmlns:xlink="http://www.w3.org/1999/xlink" x="0px" y="0px"
	 viewBox="0 0 41.234 18.625" style="enable-background:new 0 0 41.234 18.625;" xml:space="preserve">
<g id="beta-tag_x60_42x19">
	<rect style="fill:#66B5F2;" width="41.234" height="18.625"/>
	<polygon style="fill:#4D96D4;" points="41.234,15.207 31.708,5.68 29.179,8.072 26.787,5.68 21.47,6.93 23.991,9.45 23.737,9.65 
		19.767,5.68 15.863,6.186 15.077,8.912 12.351,6.186 8.16,6.016 7.42,12.346 13.59,18.516 41.234,18.616 	"/>
	<path style="fill:#FFFFFF;" d="M7.42,5.68h3.508c1.27,0,1.919,0.81,1.919,1.699c0,0.839-0.52,1.399-1.149,1.529
		c0.709,0.11,1.279,0.799,1.279,1.639c0,0.999-0.67,1.799-1.939,1.799H7.42V5.68z M10.618,8.359c0.479,0,0.78-0.31,0.78-0.74
		c0-0.41-0.3-0.729-0.78-0.729H8.84v1.469H10.618z M10.668,11.137c0.54,0,0.86-0.31,0.86-0.79c0-0.419-0.3-0.779-0.86-0.779H8.84
		v1.569H10.668z"/>
	<path style="fill:#FFFFFF;" d="M15.05,5.68h4.717V6.9h-3.298v1.449h3.228v1.22h-3.228v1.549h3.298v1.229H15.05V5.68z"/>
	<path style="fill:#FFFFFF;" d="M23.419,6.93H21.47V5.68h5.317v1.25h-1.939v5.417h-1.429V6.93z"/>
	<path style="fill:#FFFFFF;" d="M32.307,11.197h-2.979l-0.419,1.149H27.35l2.579-6.667h1.779l2.568,6.667h-1.549L32.307,11.197z
		 M29.709,9.968h2.209l-1.1-3.058L29.709,9.968z"/>
</g>
</svg>
