<?xml version="1.0" encoding="iso-8859-1"?>
<!-- Generator: Adobe Illustrator 22.1.0, SVG Export Plug-In . SVG Version: 6.00 Build 0)  -->
<svg version="1.1" id="Layer_1" xmlns="http://www.w3.org/2000/svg" xmlns:xlink="http://www.w3.org/1999/xlink" x="0px" y="0px"
	 viewBox="0 0 70.681 81.615" style="enable-background:new 0 0 70.681 81.615;" xml:space="preserve">
<g id="blue-logo_x60_71x82">
	<polygon style="fill:#66B5F2;" points="70.681,61.211 35.34,81.615 0,61.211 0,20.404 35.34,0 70.681,20.404 	"/>
	<polyline style="fill:#4D96D4;" points="20.066,58.292 40.639,78.533 70.681,61.211 70.681,43.445 49.973,22.737 35.34,22.737 
		35.34,48.28 	"/>
	<polygon style="fill:#FFFFFF;" points="49.973,56.239 35.212,63.812 20.066,56.11 34.827,48.409 	"/>
	<polygon style="fill:#F0E7E6;" points="43.683,53.03 34.955,57.522 26.099,52.901 34.827,48.409 	"/>
	<polygon style="fill:#DFD6D6;" points="35.212,63.812 49.973,56.239 49.973,58.421 35.212,65.994 	"/>
	<polygon style="fill:#E6DDDD;" points="35.212,63.812 20.066,56.11 20.066,58.292 35.212,65.994 	"/>
	<polygon style="fill:#DFD6D6;" points="35.34,51.489 47.406,45.328 47.406,47.125 35.34,53.286 	"/>
	<polygon style="fill:#E6DDDD;" points="35.34,51.489 23.275,45.328 23.275,47.125 35.34,53.286 	"/>
	<polygon style="fill:#FFFFFF;" points="47.406,45.328 35.34,51.489 23.275,45.328 35.34,39.167 	"/>
	<polygon style="fill:#F0E7E6;" points="44.197,43.66 35.34,48.28 26.484,43.66 35.34,39.167 	"/>
	<polygon style="fill:#DFD6D6;" points="35.34,41.863 49.973,34.29 49.973,36.6 35.34,44.045 	"/>
	<polygon style="fill:#E6DDDD;" points="35.34,41.863 20.708,34.29 20.708,36.6 35.34,44.045 	"/>
	<polygon style="fill:#FFFFFF;" points="49.973,34.29 35.34,41.863 20.708,34.29 35.34,26.845 	"/>
	<polygon style="fill:#F0E7E6;" points="46.122,32.364 35.34,37.884 24.558,32.364 35.34,26.845 	"/>
	<polygon style="fill:#FFFFFF;" points="49.973,22.737 35.212,30.31 20.451,22.737 35.212,15.164 	"/>
	<polygon style="fill:#DFD6D6;" points="35.212,30.31 49.973,22.737 49.973,25.048 35.212,32.621 	"/>
	<polygon style="fill:#E6DDDD;" points="35.212,30.31 20.451,22.737 20.451,25.048 35.212,32.621 	"/>
</g>
</svg>
