<?xml version="1.0" encoding="iso-8859-1"?>
<!-- Generator: Adobe Illustrator 22.1.0, SVG Export Plug-In . SVG Version: 6.00 Build 0)  -->
<svg version="1.1" id="Layer_1" xmlns="http://www.w3.org/2000/svg" xmlns:xlink="http://www.w3.org/1999/xlink" x="0px" y="0px"
	 viewBox="0 0 55.196 75.267" style="enable-background:new 0 0 55.196 75.267;" xml:space="preserve">
<g id="docker-file_x60_56x76">
	<polygon style="fill:#1CACEF;" points="18.618,0 0.196,18.775 0.196,75 55.196,75 55.196,0 	"/>
	<polygon style="fill:#2479BD;" points="0,18.881 18.513,18.881 18.513,0.263 	"/>
	<polyline style="fill:#2479BD;" points="13.561,47.891 39.43,75.267 55.196,75 55.196,44.913 47.526,37.243 26.922,43.745 
		16.338,41.391 11.579,44.635 13.561,47.891 	"/>
	<path style="fill:#FFFFFF;" d="M42.706,36.47c-0.189-1.493-1.134-2.707-2.363-3.64l-0.473-0.373l-0.378,0.467
		c-0.756,0.84-1.04,2.333-0.945,3.454c0.095,0.84,0.378,1.68,0.851,2.333c-0.378,0.187-0.636,0.933-3.78,0.933H10.742
		c0,9.848,7.864,12.041,12.306,12.041c8.506,0,15.499-3.64,18.807-11.481c2.174,0.093,4.347-0.467,5.387-2.52l0.284-0.467
		l-0.473-0.28C45.825,36.19,44.124,36.097,42.706,36.47L42.706,36.47z"/>
	<path style="fill:#1CACEF;" d="M18.323,46.772c-1.04,0-1.985-0.898-1.985-1.995c0-1.097,0.851-1.995,1.985-1.995
		s1.985,0.898,1.985,1.995C20.307,45.875,19.362,46.772,18.323,46.772L18.323,46.772z"/>
	<polygon style="fill:#FFFFFF;" points="34.002,35.763 31.908,35.763 31.908,37.831 34.002,37.831 34.002,35.763 	"/>
	<polygon style="fill:#FFFFFF;" points="16.015,35.763 13.921,35.763 13.921,37.831 16.015,37.831 16.015,35.763 	"/>
	<polygon style="fill:#FFFFFF;" points="20.512,35.763 18.417,35.763 18.417,37.831 20.512,37.831 20.512,35.763 	"/>
	<polygon style="fill:#FFFFFF;" points="25.009,35.763 22.914,35.763 22.914,37.831 25.009,37.831 25.009,35.763 	"/>
	<polygon style="fill:#FFFFFF;" points="29.505,35.763 27.411,35.763 27.411,37.831 29.505,37.831 29.505,35.763 	"/>
	<polygon style="fill:#FFFFFF;" points="20.512,31.27 18.417,31.27 18.417,33.338 20.512,33.338 20.512,31.27 	"/>
	<polygon style="fill:#FFFFFF;" points="25.009,31.27 22.914,31.27 22.914,33.338 25.009,33.338 25.009,31.27 	"/>
	<polygon style="fill:#FFFFFF;" points="29.505,31.27 27.411,31.27 27.411,33.338 29.505,33.338 29.505,31.27 	"/>
	<polygon style="fill:#FFFFFF;" points="29.505,26.497 27.411,26.497 27.411,28.566 29.505,28.566 29.505,26.497 	"/>
</g>
</svg>
