<?xml version="1.0" encoding="iso-8859-1"?>
<!-- Generator: Adobe Illustrator 22.1.0, SVG Export Plug-In . SVG Version: 6.00 Build 0)  -->
<svg version="1.1" id="Layer_1" xmlns="http://www.w3.org/2000/svg" xmlns:xlink="http://www.w3.org/1999/xlink" x="0px" y="0px"
	 viewBox="0 0 48.5 56" style="enable-background:new 0 0 48.5 56;" xml:space="preserve">
<g id="hex-ruby_x60_49x56">
	<g>
		<polygon style="fill:#EF3942;" points="48.5,42 24.3,56 0,42 0,14 24.3,0 48.5,14 		"/>
		<g>
			<g>
				<g>
					<g>
						<g>
							<defs>
								<polygon id="SVGID_1_" points="48.5,42 24.3,56 0,42 0,14 24.3,0 48.5,14 								"/>
							</defs>
							<clipPath id="SVGID_2_">
								<use xlink:href="#SVGID_1_"  style="overflow:visible;"/>
							</clipPath>
							<polyline style="clip-path:url(#SVGID_2_);fill:#B52B32;" points="11.9,33.4 28.511,53.564 48.5,42 48.5,35.308 42,25.3 
															"/>
						</g>
					</g>
				</g>
			</g>
		</g>
		<polygon style="fill:#FFD6D9;" points="35.1,18.1 30.1,15.4 24.2,15.4 18.2,15.4 13.4,18.1 6.5,25.3 12.3,33.3 24.2,42.1 
			24.2,42.1 24.2,42.1 24.2,42.1 24.3,42 36.1,33.3 42,25.3 		"/>
		<polygon style="fill:#FFA7AD;" points="36.1,33.3 29.4,25.3 24.2,34 		"/>
		<polygon style="fill:#FFD6D9;" points="29.4,25.3 35,21.7 36.1,33.3 		"/>
		<polygon style="fill:#FFC0C4;" points="36.1,33.3 42,25.3 35.1,18.1 35,21.7 		"/>
		<polygon style="fill:#FF9399;" points="12.3,33.3 19,25.3 24.2,34 		"/>
		<polygon style="fill:#D3D3D3;" points="19,25.3 13.5,21.7 12.3,33.3 		"/>
		<polygon style="fill:#FFD9DB;" points="19,25.3 13.5,21.7 12.3,33.3 		"/>
		<polygon style="fill:#FFBDC0;" points="12.3,33.3 6.5,25.3 13.4,18.1 13.5,21.7 		"/>
		<polygon style="fill:#FFC0C4;" points="24.2,25.3 19,25.3 19,25.3 24.2,34 29.4,25.3 29.4,25.3 		"/>
		<polygon style="fill:#FFFFFF;" points="30.1,15.4 24.2,15.4 18.2,15.4 13.4,18.1 13.5,21.7 19,25.3 24.2,25.3 29.4,25.3 35,21.7 
			35.1,18.1 		"/>
		<polygon style="fill:#FF616B;" points="24.2,34 24.3,42 36.1,33.3 		"/>
		<polygon style="fill:#FF868D;" points="24.2,34 24.2,34 12.3,33.3 24.2,42.1 24.3,42 		"/>
		<polygon style="fill:#FFDEE0;" points="35,21.7 42,25.3 35.1,18.1 		"/>
		<polyline style="fill:#FFDEE0;" points="13.4,22 13.4,22 6.5,25.3 13.4,18.1 		"/>
		<polygon style="fill:#FF747C;" points="18.2,33.6 24.2,42.1 24.2,34 		"/>
		<polygon style="fill:#FF868D;" points="30.2,33.6 24.2,42.1 24.2,34 		"/>
	</g>
</g>
</svg>
