<?xml version="1.0" encoding="iso-8859-1"?>
<!-- Generator: Adobe Illustrator 22.1.0, SVG Export Plug-In . SVG Version: 6.00 Build 0)  -->
<svg version="1.1" id="Layer_1" xmlns="http://www.w3.org/2000/svg" xmlns:xlink="http://www.w3.org/1999/xlink" x="0px" y="0px"
	 viewBox="0 0 45.936 53.045" style="enable-background:new 0 0 45.936 53.045;" xml:space="preserve">
<g id="hex-phalcon_x60_46x54">
	<polygon style="fill:#206487;" points="45.936,39.784 22.965,53.045 0,39.784 0,13.261 22.965,0 45.936,13.261 	"/>
	<polygon style="fill:#C5E4D3;" points="29.108,21.227 33.283,25.928 31.853,19.885 17.966,8.423 19.408,12.261 	"/>
	<polygon style="fill:#76C39B;" points="20.017,13.8 16.815,10.994 17.331,13.784 19.409,16.016 26.917,20.05 	"/>
	<polygon style="fill:#163333;" points="38.456,32.611 40.008,31.359 40.051,32.983 39.085,33.852 38.28,33.82 38.795,33.047 	"/>
	<path style="fill:#C5E4D3;" d="M38.69,29.025l-5.532-1.841l-0.074,2.927l0.601,1.37l2.713,0.121l1.61,0.582l1.805-1.388
		L38.69,29.025z M37.322,30.637l0.558-0.741l1.359,0.822L37.322,30.637z"/>
	<polygon style="fill:#163333;" points="33.191,26.697 28.644,21.577 8.979,11.15 13.943,17.857 27.202,25.709 	"/>
	<polygon style="fill:#76C39B;" points="32.552,27.156 32.469,30.16 33.105,31.57 28.203,30.862 25.653,29.631 29.883,29.631 
		26.534,27.84 27.087,26.364 	"/>
	<polygon style="fill:#73B08F;" points="25.084,30.077 19.41,33.873 17.365,36.794 16.656,39.423 18.784,36.544 27.349,31.333 	"/>
	<polygon style="fill:#76C39B;" points="19.198,37.098 22.545,35.118 19.867,41.435 19.91,44.221 18.492,39.715 	"/>
	<polygon style="fill:#C5E4D3;" points="28.28,31.595 31.968,32.038 29.096,34.652 27.128,34.332 23.791,37.211 23.624,44.346 
		21.12,40.174 23.623,34.448 	"/>
	<polygon style="fill:#76C39B;" points="26.534,35.642 27.349,35.031 29.006,35.292 29.256,35.793 29.634,36.093 29.561,37.709 
		27.504,38.63 	"/>
	<polygon style="fill:#76C39B;" points="24.409,37.592 26.044,36.21 26.252,39.172 27.625,40.649 27.625,42.556 26.669,43.094 
		24.321,40.445 	"/>
	<polygon style="fill:#163333;" points="18.566,34.158 16.452,36.977 16.235,35.73 	"/>
	<polygon style="fill:#73B08F;" points="18.035,40.281 18.786,43.035 17.826,42.493 	"/>
	<polygon style="fill:#163333;" points="28.297,40.382 28.714,39.589 30.591,40.883 29.173,40.34 29.006,40.799 30.216,41.175 
		30.716,42.51 29.882,41.592 29.131,41.55 29.465,43.929 28.255,42.593 	"/>
	<polygon style="fill:#163333;" points="30.216,37.587 30.216,36.252 30.758,34.875 32.385,36.043 31.134,35.584 31.05,35.96 
		32.135,36.502 32.719,37.67 31.801,36.794 31.083,36.678 31.467,39.214 	"/>
	<polygon style="fill:#76C39B;" points="26.503,26.197 10.398,16.434 14.946,22.775 25.952,27.578 	"/>
	<polygon style="fill:#C5E4D3;" points="27.786,29.092 13.694,22.901 19.952,27.782 24.554,29.063 	"/>
	<polygon style="fill:#76C39B;" points="19.076,28.742 22.038,30.077 21.079,30.828 22.982,30.606 24.5,29.701 	"/>
</g>
</svg>
