<?xml version="1.0" encoding="iso-8859-1"?>
<!-- Generator: Adobe Illustrator 22.1.0, SVG Export Plug-In . SVG Version: 6.00 Build 0)  -->
<svg version="1.1" id="Layer_1" xmlns="http://www.w3.org/2000/svg" xmlns:xlink="http://www.w3.org/1999/xlink" x="0px" y="0px"
	 viewBox="0 0 46.697 53.922" style="enable-background:new 0 0 46.697 53.922;" xml:space="preserve">
<g id="hex-golang_x60_47x54">
	<polygon style="fill:#5FD3E8;" points="46.697,40.441 23.348,53.922 0,40.441 0,13.481 23.348,0 46.697,13.481 	"/>
	<path style="fill:#18A9C4;" d="M36.499,19.174c0,1.647-1.337,2.982-2.984,2.982c-1.646,0-2.983-1.335-2.983-2.982
		c0-1.648,1.337-2.983,2.983-2.983C35.162,16.191,36.499,17.526,36.499,19.174z"/>
	<path style="fill:#437680;" d="M34.767,19.174c0,0.69-0.56,1.252-1.252,1.252c-0.69,0-1.252-0.562-1.252-1.252
		c0-0.692,0.561-1.252,1.252-1.252C34.208,17.922,34.767,18.482,34.767,19.174z"/>
	<path style="fill:#18A9C4;" d="M16.251,19.174c0,1.647-1.335,2.982-2.983,2.982c-1.647,0-2.982-1.335-2.982-2.982
		c0-1.648,1.335-2.983,2.982-2.983C14.915,16.191,16.251,17.526,16.251,19.174z"/>
	<path style="fill:#437680;" d="M14.519,19.174c0,0.69-0.56,1.252-1.251,1.252c-0.692,0-1.253-0.562-1.253-1.252
		c0-0.692,0.56-1.252,1.253-1.252C13.959,17.922,14.519,18.482,14.519,19.174z"/>
	<g>
		<circle style="fill:#18A9C4;" cx="23.348" cy="26.434" r="12.008"/>
	</g>
	<polygon style="fill:#18A9C4;" points="11.34,46.989 23.348,53.922 35.356,47.01 35.356,26.435 11.34,26.435 	"/>
	<path style="fill:#FFFFFF;" d="M21.766,23.319c0,2.29-1.857,4.147-4.148,4.147c-2.29,0-4.146-1.857-4.146-4.147
		s1.856-4.145,4.146-4.145C19.909,19.174,21.766,21.029,21.766,23.319z"/>
	<path style="fill:#FFFFFF;" d="M33.515,23.319c0,2.29-1.856,4.147-4.146,4.147c-2.29,0-4.147-1.857-4.147-4.147
		s1.856-4.145,4.147-4.145C31.659,19.174,33.515,21.029,33.515,23.319z"/>
	<path style="fill:#FFFFFF;" d="M23.352,32.937c0,0.417-0.339,0.756-0.755,0.756c-0.418,0-0.757-0.339-0.757-0.756
		c0-0.416,0.339-0.755,0.757-0.755C23.012,32.182,23.352,32.521,23.352,32.937z"/>
	<rect x="21.84" y="30.542" style="fill:#FFFFFF;" width="1.511" height="2.395"/>
	<path style="fill:#FFFFFF;" d="M25.228,32.937c0,0.417-0.338,0.756-0.755,0.756c-0.418,0-0.756-0.339-0.756-0.756
		c0-0.416,0.338-0.755,0.756-0.755C24.89,32.182,25.228,32.521,25.228,32.937z"/>
	<rect x="23.718" y="30.542" style="fill:#FFFFFF;" width="1.51" height="2.395"/>
	<path style="fill:#437680;" d="M29.006,23.527c0,0.691-0.56,1.253-1.252,1.253c-0.691,0-1.252-0.562-1.252-1.253
		c0-0.691,0.56-1.252,1.252-1.252C28.445,22.275,29.006,22.836,29.006,23.527z"/>
	<path style="fill:#437680;" d="M16.931,23.527c0,0.691-0.56,1.253-1.251,1.253c-0.691,0-1.253-0.562-1.253-1.253
		c0-0.691,0.561-1.252,1.253-1.252C16.37,22.275,16.931,22.836,16.931,23.527z"/>
	<path style="fill:#18A9C4;" d="M38.167,33.568c0,0.684-0.555,1.238-1.239,1.238c-0.682,0-1.238-0.554-1.238-1.238
		c0-0.683,0.556-1.238,1.238-1.238C37.612,32.33,38.167,32.885,38.167,33.568z"/>
	<rect x="34.14" y="32.33" style="fill:#18A9C4;" width="2.788" height="2.476"/>
	<path style="fill:#18A9C4;" d="M8.53,33.568c0,0.684,0.555,1.238,1.238,1.238c0.682,0,1.238-0.554,1.238-1.238
		c0-0.683-0.556-1.238-1.238-1.238C9.085,32.33,8.53,32.885,8.53,33.568z"/>
	<rect x="9.768" y="32.33" style="fill:#18A9C4;" width="2.789" height="2.476"/>
	<path style="fill:#ACE8F2;" d="M27.133,29.959c0,0.683-0.555,1.234-1.242,1.234c-0.687,0-1.242-0.551-1.242-1.234
		c0-0.681,0.555-1.233,1.242-1.233C26.578,28.726,27.133,29.278,27.133,29.959z"/>
	<path style="fill:#ACE8F2;" d="M22.477,29.959c0,0.683-0.556,1.234-1.243,1.234c-0.687,0-1.242-0.551-1.242-1.234
		c0-0.681,0.555-1.233,1.242-1.233C21.921,28.726,22.477,29.278,22.477,29.959z"/>
	<path style="fill:#ACE8F2;" d="M21.766,31.073c0.86-0.531,2.216-0.883,3.366-0.14c1.148,0.743,1.549-1.92,1.549-1.92
		c-1.348-0.843-3.943-1.232-6.132-0.082L21.766,31.073z"/>
	<path style="fill:#437680;" d="M25.434,28.214c0,0.606-0.828,1.096-1.847,1.096c-1.018,0-1.845-0.49-1.845-1.096
		c0-0.605,0.826-1.097,1.845-1.097C24.606,27.117,25.434,27.609,25.434,28.214z"/>
</g>
</svg>
