<?xml version="1.0" encoding="iso-8859-1"?>
<!-- Generator: Adobe Illustrator 22.1.0, SVG Export Plug-In . SVG Version: 6.00 Build 0)  -->
<svg version="1.1" id="Layer_1" xmlns="http://www.w3.org/2000/svg" xmlns:xlink="http://www.w3.org/1999/xlink" x="0px" y="0px"
	 viewBox="0 0 46.894 54.148" style="enable-background:new 0 0 46.894 54.148;" xml:space="preserve">
<g id="hex-elm_x60_47x55">
	<polygon style="fill:#FFFFFF;" points="46.894,40.611 23.448,54.148 0,40.611 0,13.537 23.448,0 46.894,13.537 	"/>
	<polygon style="fill:#F0AD00;" points="23.447,25.585 35.178,13.853 11.715,13.853 	"/>
	<polygon style="fill:#7FD13B;" points="35.296,11.747 23.686,0.137 23.448,0 7.227,9.365 9.609,11.747 	"/>
	<polygon style="fill:#7FD13B;" points="24.935,27.073 37.72,39.858 46.893,30.685 46.893,23.345 37.779,14.23 	"/>
	<polygon style="fill:#60B5CC;" points="46.893,13.537 30.732,4.206 46.893,20.367 	"/>
	<polygon style="fill:#5A6378;" points="5.339,10.455 0,13.537 0,40.611 5.339,43.693 21.958,27.074 	"/>
	<polygon style="fill:#F0AD00;" points="41.555,43.693 46.893,40.611 46.893,33.664 39.21,41.348 	"/>
	<polygon style="fill:#60B5CC;" points="7.227,44.783 23.448,54.148 39.667,44.783 23.447,28.563 	"/>
</g>
</svg>
