<?xml version="1.0" encoding="iso-8859-1"?>
<!-- Generator: Adobe Illustrator 22.1.0, SVG Export Plug-In . SVG Version: 6.00 Build 0)  -->
<svg version="1.1" id="Layer_1" xmlns="http://www.w3.org/2000/svg" xmlns:xlink="http://www.w3.org/1999/xlink" x="0px" y="0px"
	 viewBox="0 0 46.956 54.222" style="enable-background:new 0 0 46.956 54.222;" xml:space="preserve">
<g id="hex-rust_x60_47x55">
	<polygon style="fill:#9E9E9E;" points="46.956,40.665 23.477,54.222 0,40.665 0,13.556 23.477,0 46.956,13.556 	"/>
	<polygon style="fill:#666666;" points="23.066,12.577 23.718,11.722 25.727,13.73 26.664,11.914 28.701,13.949 29.598,12.852 
		31.645,14.9 32.193,14.205 34.542,16.554 34.598,16.169 46.942,28.513 46.956,40.665 26.058,52.669 11.993,38.604 12.261,38.364 
		10.211,36.315 10.599,35.54 8.753,33.694 9.506,32.491 7.803,30.79 9.01,29.265 7.383,27.639 14.225,17.121 	"/>
	<path id="path3_1_" style="fill:#DBDBDB;" d="M39.048,27.046l-1.338-0.829c-0.011-0.131-0.025-0.259-0.039-0.389l1.151-1.073
		c0.115-0.109,0.169-0.27,0.137-0.427c-0.031-0.157-0.141-0.286-0.291-0.342l-1.47-0.549c-0.037-0.127-0.075-0.253-0.114-0.38
		l0.917-1.273c0.094-0.131,0.113-0.298,0.051-0.447c-0.06-0.147-0.193-0.251-0.352-0.277l-1.549-0.254
		c-0.06-0.117-0.122-0.232-0.187-0.347l0.652-1.429c0.066-0.146,0.053-0.315-0.035-0.448c-0.089-0.132-0.24-0.21-0.399-0.204
		l-1.573,0.055c-0.082-0.102-0.164-0.201-0.248-0.302l0.36-1.531c0.037-0.156-0.008-0.319-0.122-0.432
		c-0.112-0.112-0.275-0.159-0.432-0.124l-1.532,0.363c-0.098-0.085-0.199-0.168-0.303-0.248l0.056-1.575
		c0.006-0.158-0.071-0.31-0.204-0.399c-0.133-0.089-0.301-0.102-0.447-0.036l-1.428,0.652c-0.117-0.064-0.232-0.126-0.349-0.188
		l-0.254-1.55c-0.025-0.157-0.13-0.291-0.278-0.352c-0.146-0.06-0.315-0.04-0.444,0.052l-1.275,0.917
		c-0.126-0.041-0.252-0.079-0.38-0.115l-0.549-1.47c-0.056-0.151-0.185-0.26-0.343-0.291c-0.155-0.031-0.316,0.021-0.425,0.137
		l-1.073,1.151c-0.13-0.015-0.259-0.028-0.389-0.039l-0.828-1.338c-0.084-0.135-0.233-0.218-0.392-0.218
		c-0.159,0-0.308,0.083-0.39,0.218l-0.828,1.338c-0.13,0.011-0.261,0.025-0.391,0.039l-1.074-1.151
		c-0.108-0.116-0.269-0.169-0.424-0.137c-0.157,0.031-0.287,0.141-0.342,0.291l-0.551,1.47c-0.127,0.036-0.253,0.075-0.378,0.115
		l-1.275-0.917c-0.128-0.094-0.297-0.114-0.444-0.052c-0.149,0.061-0.254,0.195-0.278,0.352l-0.254,1.55
		c-0.117,0.061-0.233,0.123-0.349,0.188l-1.429-0.652c-0.145-0.066-0.314-0.054-0.445,0.036c-0.133,0.088-0.211,0.24-0.204,0.399
		l0.054,1.575c-0.102,0.08-0.203,0.163-0.301,0.248l-1.533-0.363c-0.156-0.035-0.318,0.012-0.431,0.124
		c-0.114,0.113-0.16,0.276-0.122,0.432l0.358,1.531c-0.082,0.101-0.166,0.2-0.246,0.302l-1.573-0.055
		c-0.16-0.004-0.31,0.073-0.399,0.204c-0.089,0.133-0.103,0.302-0.037,0.448l0.652,1.429c-0.063,0.115-0.126,0.23-0.186,0.347
		l-1.55,0.254c-0.157,0.025-0.291,0.13-0.352,0.277c-0.06,0.149-0.041,0.316,0.052,0.447l0.917,1.273
		c-0.04,0.126-0.079,0.252-0.115,0.38l-1.47,0.549c-0.15,0.056-0.259,0.184-0.29,0.342c-0.031,0.156,0.021,0.317,0.138,0.427
		l1.15,1.073c-0.013,0.129-0.027,0.258-0.037,0.389l-1.338,0.829c-0.136,0.084-0.218,0.231-0.218,0.392
		c0,0.16,0.082,0.307,0.218,0.391l1.338,0.829c0.011,0.131,0.025,0.26,0.037,0.39L7.84,30.12c-0.117,0.108-0.169,0.27-0.138,0.425
		c0.031,0.156,0.141,0.286,0.29,0.342l1.47,0.55c0.037,0.126,0.075,0.253,0.115,0.379l-0.917,1.273
		c-0.093,0.131-0.112,0.299-0.052,0.447c0.061,0.146,0.195,0.252,0.352,0.277l1.55,0.252c0.06,0.118,0.122,0.233,0.186,0.349
		l-0.652,1.429c-0.066,0.144-0.052,0.314,0.037,0.447c0.089,0.133,0.239,0.211,0.399,0.203l1.572-0.055
		c0.082,0.103,0.165,0.203,0.247,0.303l-0.358,1.532c-0.038,0.155,0.007,0.318,0.122,0.431c0.113,0.113,0.275,0.159,0.431,0.122
		l1.533-0.361c0.098,0.085,0.199,0.168,0.301,0.248l-0.054,1.573c-0.006,0.16,0.071,0.31,0.204,0.399
		c0.131,0.089,0.301,0.102,0.445,0.036l1.429-0.652c0.116,0.065,0.232,0.126,0.349,0.188l0.254,1.549
		c0.025,0.157,0.13,0.291,0.278,0.352c0.146,0.061,0.315,0.041,0.444-0.052l1.275-0.917c0.126,0.04,0.252,0.078,0.378,0.116
		l0.55,1.468c0.056,0.149,0.185,0.26,0.343,0.29c0.155,0.032,0.316-0.021,0.424-0.137l1.074-1.15
		c0.129,0.015,0.258,0.028,0.391,0.039l0.828,1.338c0.082,0.135,0.231,0.218,0.39,0.218c0.159,0,0.309-0.083,0.392-0.218
		l0.828-1.338c0.13-0.011,0.26-0.025,0.389-0.039l1.073,1.15c0.109,0.116,0.27,0.17,0.425,0.137c0.157-0.031,0.287-0.142,0.343-0.29
		l0.549-1.468c0.128-0.038,0.254-0.076,0.38-0.116l1.275,0.917c0.128,0.094,0.297,0.113,0.444,0.052
		c0.149-0.06,0.254-0.194,0.278-0.352l0.254-1.549c0.117-0.061,0.232-0.124,0.348-0.188l1.429,0.652
		c0.146,0.066,0.315,0.052,0.447-0.036c0.133-0.089,0.211-0.24,0.204-0.399l-0.056-1.573c0.103-0.082,0.203-0.163,0.303-0.248
		l1.532,0.361c0.156,0.037,0.318-0.009,0.432-0.122c0.114-0.113,0.159-0.276,0.122-0.431l-0.36-1.532
		c0.084-0.099,0.166-0.2,0.248-0.303l1.572,0.055c0.159,0.008,0.312-0.07,0.399-0.203c0.089-0.133,0.103-0.303,0.037-0.447
		l-0.652-1.429c0.064-0.116,0.126-0.231,0.187-0.349l1.549-0.252c0.159-0.025,0.291-0.131,0.352-0.277
		c0.06-0.147,0.041-0.316-0.052-0.447l-0.916-1.273c0.04-0.126,0.078-0.252,0.115-0.379l1.47-0.55
		c0.149-0.056,0.26-0.185,0.29-0.342c0.031-0.156-0.021-0.317-0.138-0.425l-1.148-1.073c0.014-0.13,0.027-0.26,0.037-0.39
		l1.337-0.829c0.137-0.084,0.219-0.231,0.219-0.391C39.265,27.278,39.183,27.129,39.048,27.046L39.048,27.046z M30.093,38.144
		c-0.51-0.109-0.836-0.613-0.726-1.126c0.109-0.513,0.613-0.837,1.123-0.728c0.51,0.109,0.838,0.614,0.726,1.126
		C31.107,37.927,30.603,38.255,30.093,38.144z M29.638,35.07c-0.467-0.099-0.925,0.198-1.025,0.663l-0.476,2.218
		c-1.466,0.664-3.093,1.035-4.808,1.035c-1.754,0-3.416-0.389-4.908-1.083l-0.475-2.216c-0.1-0.468-0.56-0.764-1.025-0.663
		l-1.956,0.42c-0.365-0.374-0.702-0.773-1.012-1.194h9.521c0.108,0,0.18-0.019,0.18-0.117v-3.368c0-0.098-0.071-0.117-0.18-0.117
		h-2.783v-2.135h3.011c0.275,0,1.471,0.078,1.853,1.606c0.119,0.47,0.381,1.998,0.561,2.488c0.18,0.548,0.908,1.644,1.686,1.644
		h4.744c0.053,0,0.113-0.004,0.172-0.017c-0.329,0.448-0.691,0.87-1.079,1.266L29.638,35.07L29.638,35.07z M16.468,38.098
		c-0.51,0.111-1.014-0.216-1.123-0.727c-0.109-0.514,0.216-1.016,0.726-1.127c0.51-0.109,1.014,0.217,1.123,0.729
		C17.304,37.484,16.979,37.989,16.468,38.098z M12.856,23.451c0.212,0.479-0.004,1.038-0.481,1.251
		c-0.479,0.211-1.037-0.004-1.25-0.482c-0.212-0.479,0.005-1.039,0.482-1.251C12.085,22.756,12.645,22.972,12.856,23.451z
		 M11.746,26.083l2.039-0.907c0.435-0.193,0.632-0.702,0.439-1.14l-0.42-0.949h1.65v7.443h-3.33
		c-0.289-1.015-0.444-2.087-0.444-3.195C11.68,26.912,11.702,26.493,11.746,26.083z M20.692,25.359v-2.193h3.932
		c0.203,0,1.434,0.235,1.434,1.155c0,0.764-0.944,1.038-1.72,1.038H20.692L20.692,25.359z M34.983,27.335
		c0,0.29-0.011,0.578-0.031,0.864h-1.196c-0.121,0-0.168,0.078-0.168,0.195v0.55c0,1.291-0.729,1.573-1.367,1.644
		c-0.609,0.068-1.283-0.253-1.366-0.625c-0.36-2.019-0.957-2.449-1.901-3.195c1.171-0.743,2.39-1.84,2.39-3.31
		c0-1.586-1.088-2.585-1.828-3.075c-1.041-0.684-2.191-0.822-2.502-0.822H14.652c1.676-1.872,3.948-3.197,6.518-3.679l1.458,1.53
		c0.329,0.344,0.874,0.357,1.219,0.027l1.632-1.559c3.416,0.636,6.309,2.763,7.976,5.68l-1.117,2.521
		c-0.193,0.437,0.004,0.947,0.439,1.14l2.149,0.955C34.963,26.558,34.983,26.944,34.983,27.335z M22.628,14.582
		c0.377-0.363,0.977-0.347,1.338,0.03c0.362,0.381,0.348,0.978-0.032,1.341c-0.377,0.361-0.975,0.347-1.337-0.031
		C22.236,15.544,22.248,14.944,22.628,14.582z M33.705,23.497c0.212-0.479,0.771-0.695,1.249-0.482
		c0.476,0.212,0.693,0.773,0.481,1.251c-0.212,0.478-0.77,0.695-1.249,0.482C33.709,24.536,33.493,23.976,33.705,23.497z"/>
</g>
</svg>
