<?xml version="1.0" encoding="iso-8859-1"?>
<!-- Generator: Adobe Illustrator 22.1.0, SVG Export Plug-In . SVG Version: 6.00 Build 0)  -->
<svg version="1.1" id="Layer_1" xmlns="http://www.w3.org/2000/svg" xmlns:xlink="http://www.w3.org/1999/xlink" x="0px" y="0px"
	 viewBox="0 0 45.854 52.951" style="enable-background:new 0 0 45.854 52.951;" xml:space="preserve">
<g id="hex-gin_x60_46x53">
	<polygon style="fill:#6D6D6D;" points="45.854,39.713 22.924,52.951 0,39.713 0,13.238 22.924,0 45.854,13.238 	"/>
	<polygon style="fill:#474747;" points="33.327,16.127 16.828,19.243 14.419,38.044 26.59,50.834 45.854,39.713 45.854,28.736 	"/>
	<path style="fill:#FFFFFF;" d="M30.581,38.574l-15.31,0c-0.541,0-0.976-0.436-0.981-0.977c-0.087-10.485-1.53-18.717-1.861-21.013
		c-0.036-0.246,0.156-0.458,0.404-0.458h20.19c0.247,0,0.439,0.21,0.405,0.455c-0.324,2.346-1.773,11.033-1.864,21.017
		C31.559,38.14,31.123,38.574,30.581,38.574z"/>
	<path style="fill:#0FAF93;" d="M14.732,20.451c0.399,4.131,0.807,10.42,0.849,15.89c0.004,0.5,0.374,0.904,0.834,0.904h13.024
		c0.461,0,0.832-0.402,0.836-0.903c0.044-5.28,0.466-11.664,0.871-15.891H14.732z"/>
	<path style="fill:#79E2D1;" d="M22.544,23.684l-2.834,1.485c-0.868,0.455-1.941,0.12-2.396-0.749l-1.485-2.834
		c-0.455-0.868-0.12-1.941,0.749-2.396l2.834-1.485c0.868-0.455,1.941-0.12,2.396,0.749l1.485,2.834
		C23.747,22.156,23.412,23.229,22.544,23.684z"/>
	<path style="fill:#79E2D1;" d="M26.463,25.747l-3.167-0.454c-0.971-0.139-1.645-1.039-1.506-2.009l0.454-3.167
		c0.139-0.971,1.039-1.645,2.009-1.506l3.167,0.454c0.971,0.139,1.645,1.039,1.506,2.009l-0.454,3.167
		C28.333,25.212,27.434,25.886,26.463,25.747z"/>
	<path style="fill:#4EC4AE;" d="M28.899,20.451h-6.045h-0.657h-6.536c-0.067,0.375-0.023,0.772,0.168,1.135l1.485,2.834
		c0.455,0.868,1.528,1.204,2.396,0.749l2.143-1.123c0.193,0.641,0.738,1.146,1.444,1.247l3.167,0.454
		c0.971,0.139,1.87-0.535,2.009-1.506l0.454-3.167C28.957,20.86,28.942,20.651,28.899,20.451z"/>
</g>
</svg>
