<?xml version="1.0" encoding="iso-8859-1"?>
<!-- Generator: Adobe Illustrator 22.1.0, SVG Export Plug-In . SVG Version: 6.00 Build 0)  -->
<svg version="1.1" id="Layer_1" xmlns="http://www.w3.org/2000/svg" xmlns:xlink="http://www.w3.org/1999/xlink" x="0px" y="0px"
	 viewBox="0 0 46.442 53.629" style="enable-background:new 0 0 46.442 53.629;" xml:space="preserve">
<g id="hex-pyramid_x60_47x54">
	<polygon style="fill:#BF1E2D;" points="46.442,40.222 23.218,53.629 0,40.222 0,13.407 23.218,0 46.442,13.407 	"/>
	<circle style="fill:#FCCFD1;" cx="24.236" cy="11.224" r="3.551"/>
	<circle style="fill:#FCCFD1;" cx="16.755" cy="16.538" r="2.881"/>
	<circle style="fill:#FCCFD1;" cx="14.272" cy="23.225" r="2.321"/>
	<circle style="fill:#FCCFD1;" cx="15.498" cy="28.818" r="1.804"/>
	<circle style="fill:#FCCFD1;" cx="18.813" cy="31.987" r="1.511"/>
	<circle style="fill:#FCCFD1;" cx="22.566" cy="32.572" r="1.248"/>
	<circle style="fill:#FCCFD1;" cx="25.132" cy="31.175" r="0.953"/>
	<circle style="fill:#FCCFD1;" cx="9.104" cy="35.089" r="3.551"/>
	<circle style="fill:#FCCFD1;" cx="17.446" cy="38.912" r="2.881"/>
	<circle style="fill:#FCCFD1;" cx="24.479" cy="37.719" r="2.321"/>
	<circle style="fill:#FCCFD1;" cx="28.71" cy="33.86" r="1.804"/>
	<circle style="fill:#FCCFD1;" cx="29.796" cy="29.405" r="1.511"/>
	<circle style="fill:#FCCFD1;" cx="28.426" cy="25.862" r="1.248"/>
	<circle style="fill:#FCCFD1;" cx="25.934" cy="24.339" r="0.953"/>
	<circle style="fill:#FCCFD1;" cx="37.338" cy="36.262" r="3.551"/>
	<circle style="fill:#FCCFD1;" cx="36.477" cy="27.127" r="2.881"/>
	<circle style="fill:#FCCFD1;" cx="31.927" cy="21.632" r="2.321"/>
	<circle style="fill:#FCCFD1;" cx="26.47" cy="19.898" r="1.804"/>
	<circle style="fill:#FCCFD1;" cx="22.069" cy="21.184" r="1.511"/>
	<circle style="fill:#FCCFD1;" cx="19.686" cy="24.142" r="1.248"/>
	<circle style="fill:#FCCFD1;" cx="19.612" cy="27.062" r="0.953"/>
</g>
</svg>
