<?xml version="1.0" encoding="iso-8859-1"?>
<!-- Generator: Adobe Illustrator 22.1.0, SVG Export Plug-In . SVG Version: 6.00 Build 0)  -->
<svg version="1.1" id="Layer_1" xmlns="http://www.w3.org/2000/svg" xmlns:xlink="http://www.w3.org/1999/xlink" x="0px" y="0px"
	 viewBox="0 0 46.5 53.7" style="enable-background:new 0 0 46.5 53.7;" xml:space="preserve">
<g id="hex-db_x60_47x54">
	<polygon id="_x3E_bg_14_" style="fill:#91BBD4;" points="46.5,40.3 23.2,53.7 0,40.3 0,13.4 23.2,0 46.5,13.4 	"/>
	<polyline style="fill:#6897B3;" points="36.1,16.1 46.5,26.5 46.5,40.3 24.268,53.086 9.374,38.192 	"/>
	<polygon style="fill:#FFFFFF;" points="16.1,37.6 9.4,33.2 16.1,28.8 29.4,28.8 36.1,33.2 29.4,37.6 	"/>
	<polygon style="fill:#A4C8DD;" points="36.1,33.2 36.1,38 29.4,42.4 29.4,37.6 	"/>
	<rect x="16.1" y="37.6" style="fill:#90BAD3;" width="13.3" height="4.7"/>
	<polygon style="fill:#83A9BF;" points="16.1,37.6 9.4,33.2 9.4,38 16.1,42.4 	"/>
	<polygon style="fill:#FFFFFF;" points="16.1,29.1 9.4,24.7 16.1,20.3 29.4,20.3 36.1,24.7 29.4,29.1 	"/>
	<polygon style="fill:#A4C8DD;" points="36.1,24.7 36.1,29.4 29.4,33.8 29.4,29.1 	"/>
	<rect x="16.1" y="29.1" style="fill:#90BAD3;" width="13.3" height="4.7"/>
	<polygon style="fill:#83A9BF;" points="16.1,29.1 9.4,24.7 9.4,29.4 16.1,33.8 	"/>
	<polygon style="fill:#FFFFFF;" points="16.1,20.5 9.4,16.1 16.1,11.7 29.4,11.7 36.1,16.1 29.4,20.5 	"/>
	<polygon style="fill:#A4C8DD;" points="36.1,16.1 36.1,20.9 29.4,25.3 29.4,20.5 	"/>
	<rect x="16.1" y="20.5" style="fill:#90BAD3;" width="13.3" height="4.7"/>
	<polygon style="fill:#83A9BF;" points="16.1,20.5 9.4,16.1 9.4,20.9 16.1,25.3 	"/>
</g>
</svg>
