<?xml version="1.0" encoding="iso-8859-1"?>
<!-- Generator: Adobe Illustrator 22.1.0, SVG Export Plug-In . SVG Version: 6.00 Build 0)  -->
<svg version="1.1" id="Layer_1" xmlns="http://www.w3.org/2000/svg" xmlns:xlink="http://www.w3.org/1999/xlink" x="0px" y="0px"
	 viewBox="0 0 45.985 53.045" style="enable-background:new 0 0 45.985 53.045;" xml:space="preserve">
<g id="hex-slim_x60_46x54">
	<polygon style="fill:#70A04A;" points="45.936,39.784 22.965,53.045 0,39.784 0,13.261 22.965,0 45.936,13.261 	"/>
	<polygon style="fill:#567A39;" points="34.131,12.974 45.985,24.87 45.936,39.784 27.631,50.338 16.145,38.852 15.787,35.668 
		7.453,27.334 8.688,26.55 11.995,25.85 13.83,18.674 22.079,19.73 	"/>
	<path style="fill:#FFFFFF;" d="M35.063,15.196v7.259c0,1.72-1.407,3.127-3.127,3.127h-0.782c0,0.81,0,1.619,0,2.234v9.493
		c0,1.229-1.005,2.234-2.234,2.234h-1.452c-1.229,0-2.234-1.005-2.234-2.234v-1.564c0-1.229-0.854-2.234-1.899-2.234
		c-1.044,0-1.899,1.005-1.899,2.234v1.564c0,1.229-1.005,2.234-2.234,2.234h-1.452c-1.229,0-2.234-1.005-2.234-2.234V20.748h-0.944
		c-0.698,0-1.061,0.373-1.061,1.006v4.833H13.51c-0.028,0.603-0.511,1.086-1.114,1.114v0.003H8.152v-0.013
		c-0.55-0.079-0.976-0.538-1.002-1.104H7.147v-2.122v-1.787H7.15c0.027-0.295,0.261-0.529,0.556-0.556V22.12h1.117v0.003
		c0.018-0.002,0.037-0.003,0.056-0.003c0.32,0,0.583,0.245,0.611,0.558h0.003v1.787v0.112c0,0.432,0.35,0.782,0.782,0.782
		c0.432,0,0.782-0.35,0.782-0.782v-5.249h0.003c-0.001-0.019-0.003-0.037-0.003-0.056c0-0.833,0.675-1.508,1.508-1.508
		c0.019,0,0.037,0.002,0.056,0.003v-0.003h2.797c0.204-4.29,3.746-7.706,8.087-7.706c2.045,0,3.912,0.76,5.337,2.01h3.095
		C33.655,12.069,35.063,13.476,35.063,15.196z M20.762,15.675c-0.722,0-1.308,0.586-1.308,1.308s0.586,1.308,1.308,1.308
		s1.308-0.586,1.308-1.308S21.484,15.675,20.762,15.675z"/>
	<path style="fill:none;stroke:#DEDEDE;stroke-width:0.6668;stroke-miterlimit:10;" d="M25.12,17.065
		c0-2.297,1.621-4.216,3.782-4.675"/>
	<path style="fill:none;stroke:#DEDEDE;stroke-width:0.6668;stroke-miterlimit:10;" d="M25.073,21.339
		c0,2.639,2.14,4.779,4.779,4.779"/>
	<path style="fill:none;stroke:#FFFFFF;stroke-miterlimit:10;" d="M33.409,30.119v-0.778c0-1.322-0.961-2.419-2.223-2.63
		l-0.542-0.161"/>
	<path style="fill:#FFFFFF;" d="M34.187,30.612c0-0.43-0.348-0.778-0.778-0.778s-0.778,0.348-0.778,0.778
		c0,0.15,0.412,1.528,0.412,1.556c0,0.202,0.164,0.366,0.366,0.366s0.366-0.164,0.366-0.366c0-0.026,0.412-1.428,0.412-1.428
		S34.187,30.655,34.187,30.612z"/>
</g>
</svg>
