<?xml version="1.0" encoding="iso-8859-1"?>
<!-- Generator: Adobe Illustrator 22.1.0, SVG Export Plug-In . SVG Version: 6.00 Build 0)  -->
<svg version="1.1" id="Layer_1" xmlns="http://www.w3.org/2000/svg" xmlns:xlink="http://www.w3.org/1999/xlink" x="0px" y="0px"
	 viewBox="0 0 46.5 53.7" style="enable-background:new 0 0 46.5 53.7;" xml:space="preserve">
<g id="hex-docker_x60_47x54">
	<polygon id="_x3E_bg_13_" style="fill:#2EAFFF;" points="46.5,40.3 23.2,53.7 0,40.3 0,13.4 23.2,0 46.5,13.4 	"/>
	<g>
		<g>
			<polygon style="fill:#0096FF;" points="41.619,25.577 34.692,24.775 25.574,15.657 23.68,17.528 25.71,19.558 23.49,21.758 
				21.506,19.775 19.462,21.799 17.438,19.775 15.544,21.646 17.587,23.689 15.393,25.862 13.371,23.839 11.476,25.711 
				13.92,28.155 11.855,35.5 27.552,51.197 46.5,40.3 46.5,30.458 			"/>
			<path style="fill:#FCFCFC;" d="M37.516,24.479c-0.171-1.351-1.026-2.449-2.137-3.293l-0.427-0.338l-0.342,0.422
				c-0.684,0.76-0.94,2.111-0.855,3.124c0.085,0.76,0.342,1.52,0.769,2.111c-0.342,0.169-0.575,0.844-3.42,0.844H8.601
				c0,8.909,7.114,10.892,11.132,10.892c7.694,0,14.021-3.293,17.013-10.385c1.966,0.084,3.933-0.422,4.873-2.28l0.256-0.422
				l-0.427-0.253C40.337,24.226,38.798,24.142,37.516,24.479L37.516,24.479z M15.458,33.799c-0.94,0-1.795-0.812-1.795-1.804
				c0-0.992,0.769-1.804,1.795-1.804s1.795,0.812,1.795,1.804C17.254,32.987,16.399,33.799,15.458,33.799L15.458,33.799z"/>
			<polygon style="fill:#FCFCFC;" points="13.371,23.839 11.476,23.839 11.476,25.71 13.371,25.71 13.371,23.839 			"/>
			<polygon style="fill:#FCFCFC;" points="17.438,23.839 15.544,23.839 15.544,25.71 17.438,25.71 17.438,23.839 			"/>
			<polygon style="fill:#FCFCFC;" points="21.506,23.839 19.612,23.839 19.612,25.71 21.506,25.71 21.506,23.839 			"/>
			<polygon style="fill:#FCFCFC;" points="25.574,23.839 23.68,23.839 23.68,25.71 25.574,25.71 25.574,23.839 			"/>
			<polygon style="fill:#FCFCFC;" points="17.438,19.775 15.544,19.775 15.544,21.646 17.438,21.646 17.438,19.775 			"/>
			<polygon style="fill:#FCFCFC;" points="21.506,19.775 19.612,19.775 19.612,21.646 21.506,21.646 21.506,19.775 			"/>
			<polygon style="fill:#FCFCFC;" points="25.574,19.775 23.68,19.775 23.68,21.646 25.574,21.646 25.574,19.775 			"/>
			<polygon style="fill:#FCFCFC;" points="25.574,15.657 23.68,15.657 23.68,17.528 25.574,17.528 25.574,15.657 			"/>
			<polygon style="fill:#FCFCFC;" points="29.642,23.839 27.748,23.839 27.748,25.71 29.642,25.71 29.642,23.839 			"/>
		</g>
	</g>
</g>
</svg>
