<?xml version="1.0" encoding="iso-8859-1"?>
<!-- Generator: Adobe Illustrator 22.1.0, SVG Export Plug-In . SVG Version: 6.00 Build 0)  -->
<svg version="1.1" id="Layer_1" xmlns="http://www.w3.org/2000/svg" xmlns:xlink="http://www.w3.org/1999/xlink" x="0px" y="0px"
	 viewBox="0 0 46.953 54.22" style="enable-background:new 0 0 46.953 54.22;" xml:space="preserve">
<g id="hex-backbone_x60_47x55">
	<polygon style="fill:#FFFFFF;stroke:#E7EBEE;stroke-miterlimit:10;" points="46.453,40.376 23.473,53.642 0.5,40.376 0.5,13.844 
		23.473,0.577 46.453,13.844 	"/>
	<path style="fill:#FCF2F3;" d="M13.246,21.704"/>
	<polygon style="fill:none;" points="17.116,27.11 23.477,30.781 29.838,27.11 23.477,23.438 	"/>
	<polygon style="fill:none;" points="32.02,35.712 32.02,30.64 27.626,33.176 	"/>
	<polygon style="fill:none;" points="14.933,35.712 19.327,33.176 14.933,30.64 	"/>
	<polygon style="fill:none;" points="14.933,18.507 14.933,23.58 19.327,21.044 	"/>
	<polygon style="fill:none;" points="32.02,18.507 27.626,21.044 32.02,23.58 	"/>
	<polygon style="fill:#012943;" points="14.933,28.369 14.933,30.64 19.327,33.176 23.477,30.781 17.116,27.11 	"/>
	<polygon style="fill:#012943;" points="10.785,25.974 14.933,23.58 14.933,18.507 19.327,21.044 23.477,18.649 10.785,11.324 	"/>
	<polygon style="fill:#012943;" points="23.477,18.649 23.477,23.438 32.02,28.369 32.02,35.712 23.477,30.781 23.477,35.571 
		36.168,42.896 36.168,25.974 	"/>
	<polygon style="fill:#016FBA;" points="10.785,25.974 10.785,42.896 23.477,35.571 23.477,30.781 14.933,35.712 14.933,28.369 
		23.477,23.438 23.477,18.649 	"/>
	<polygon style="fill:#016FBA;" points="32.02,30.64 32.02,28.369 29.838,27.11 23.477,30.781 27.626,33.176 	"/>
	<polygon style="fill:#016FBA;" points="23.477,18.649 27.626,21.044 32.02,18.507 32.02,23.58 36.168,25.974 36.168,11.324 	"/>
</g>
</svg>
