<?xml version="1.0" encoding="iso-8859-1"?>
<!-- Generator: Adobe Illustrator 22.1.0, SVG Export Plug-In . SVG Version: 6.00 Build 0)  -->
<svg version="1.1" id="Layer_1" xmlns="http://www.w3.org/2000/svg" xmlns:xlink="http://www.w3.org/1999/xlink" x="0px" y="0px"
	 viewBox="0 0 45.953 53.065" style="enable-background:new 0 0 45.953 53.065;" xml:space="preserve">
<g id="hex-hanami_x60_46x54">
	<polygon style="fill:#D8354C;" points="45.953,39.799 22.973,53.065 0,39.799 0,13.266 22.973,0 45.953,13.266 	"/>
	<path style="fill:#B22244;" d="M45.953,33.449l-14.78-14.961c0,0-9.055-5.581-15.222,0.794S13.91,33.608,13.91,33.608l15.032,16.01
		l17.01-9.82V33.449z"/>
	<path style="fill:#FCF2F3;" d="M12.746,20.564"/>
	<path style="fill:#FFFFFF;" d="M22.976,38.022c-6.335,0-11.49-5.154-11.49-11.49c0-6.336,5.154-11.49,11.49-11.49
		c6.336,0,11.49,5.154,11.49,11.49C34.466,32.868,29.312,38.022,22.976,38.022z M22.976,17.506c-4.977,0-9.027,4.049-9.027,9.027
		c0,4.977,4.049,9.027,9.027,9.027c4.978,0,9.027-4.049,9.027-9.027C32.003,21.555,27.954,17.506,22.976,17.506z"/>
	<polygon style="fill:#FFFFFF;" points="26.237,22.851 19.34,22.851 17.633,24.983 22.788,31.426 27.943,24.983 	"/>
</g>
</svg>
