<?xml version="1.0" encoding="iso-8859-1"?>
<!-- Generator: Adobe Illustrator 22.1.0, SVG Export Plug-In . SVG Version: 6.00 Build 0)  -->
<svg version="1.1" id="Layer_1" xmlns="http://www.w3.org/2000/svg" xmlns:xlink="http://www.w3.org/1999/xlink" x="0px" y="0px"
	 viewBox="0 0 45.936 53.045" style="enable-background:new 0 0 45.936 53.045;" xml:space="preserve">
<g id="hex-donejs_x60_46x54">
	<polygon style="fill:#565656;" points="45.936,39.784 22.965,53.045 0,39.784 0,13.261 22.965,0 45.936,13.261 	"/>
	<polygon style="fill:#3A3A3A;" points="9.021,37.491 19.638,51.047 23.005,53.045 45.936,39.784 45.936,27.378 36.915,16.154 
		14.691,16.132 	"/>
	<g>
		<polygon style="fill:#FFFFFF;" points="9.021,37.511 13.479,20.7 35.704,20.7 32.409,33.123 12.947,33.123 10.152,37.511 		"/>
	</g>
	<polygon style="fill:#3A3A3A;" points="17.895,26.933 12.957,26.933 11.667,31.798 16.604,31.798 	"/>
	<g>
		<polygon style="fill:#FFFFFF;" points="19.185,22.068 14.248,22.068 12.957,26.933 17.895,26.933 		"/>
	</g>
	<g>
		<polygon style="fill:#FFFFFF;" points="22.832,26.933 17.895,26.933 16.604,31.798 21.542,31.798 		"/>
	</g>
	<polygon style="fill:#3A3A3A;" points="24.122,22.068 19.185,22.068 17.895,26.933 22.832,26.933 	"/>
	<g>
		<polygon style="fill:#FFFFFF;" points="32.707,26.933 27.769,26.933 26.479,31.798 31.416,31.798 		"/>
	</g>
	<polygon style="fill:#3A3A3A;" points="33.997,22.068 29.06,22.068 27.769,26.933 32.707,26.933 	"/>
	<polygon style="fill:#3A3A3A;" points="27.769,26.933 22.832,26.933 21.542,31.798 26.479,31.798 	"/>
	<g>
		<polygon style="fill:#FFFFFF;" points="29.06,22.068 24.122,22.068 22.832,26.933 27.769,26.933 		"/>
	</g>
	<polygon style="fill:#3B81A8;" points="35.341,22.068 13.117,22.068 14.691,16.132 36.915,16.132 	"/>
	<polygon style="fill:#FFFFFF;" points="34.085,20.358 19.638,20.358 20.306,17.841 34.753,17.841 	"/>
	
		<ellipse transform="matrix(0.7522 -0.659 0.659 0.7522 -8.3353 16.0367)" style="fill:#3A3A3A;" cx="17.152" cy="19.1" rx="1.437" ry="1.103"/>
</g>
</svg>
