<?xml version="1.0" encoding="iso-8859-1"?>
<!-- Generator: Adobe Illustrator 22.1.0, SVG Export Plug-In . SVG Version: 6.00 Build 0)  -->
<svg version="1.1" id="Layer_1" xmlns="http://www.w3.org/2000/svg" xmlns:xlink="http://www.w3.org/1999/xlink" x="0px" y="0px"
	 viewBox="0 0 46.441 53.629" style="enable-background:new 0 0 46.441 53.629;" xml:space="preserve">
<g id="hex-flask_x60_47x54">
	<polygon style="fill:#595959;" points="46.441,40.221 23.217,53.629 0,40.221 0,13.407 23.217,0 46.441,13.407 	"/>
	<path style="fill:#FFFFFF;" d="M17.231,14.336c0,0,5.48,0.902,7.142,1.136c1.662,0.234,1.201,1.753-0.318,1.299
		c-1.519-0.454-7.343-1.948-7.343-1.948L17.231,14.336z"/>
	<polygon style="fill:#939393;" points="12.888,19.147 12.498,17.205 21.419,15.309 21.938,17.16 	"/>
	<path style="fill:#FFFFFF;" d="M22.601,19.679c0,0,0.136,9.518,4.116,12.654c2.294,1.866,5.001,3.157,7.895,3.766
		c3.389,0.812,3.246,2.766-0.578,2.922c-4.402,0.175-9.531-0.208-13.453-3.097c-6.2-4.571-7.499-12.42-7.856-14.232
		c-1.506-0.117-1.448-2.305,0.688-3.019c2.887-0.93,5.868-1.537,8.888-1.811C23.685,16.861,23.919,19.218,22.601,19.679z"/>
	<path style="fill:#BFBFBF;" d="M12.725,21.692c0.357,1.811,1.656,9.661,7.85,14.238c3.896,2.889,9.051,3.246,13.453,3.097
		c2.123-0.084,3.11-0.734,2.974-1.428l-0.039-0.071c0,0-9.856,0.708-14.68-3.428s-5.954-7.927-6.207-9.999
		c-0.253-2.071,1.552-4.194,1.552-4.194s-1.299,0.403-3.103,0.805c-1.805,0.403-1.578-1.208-1.104-2.013
		C11.278,19.387,11.226,21.575,12.725,21.692z"/>
	<polygon style="fill:#939393;" points="14.764,17.238 14.485,15.634 18.893,14.758 19.27,16.29 	"/>
	<circle style="fill:#939393;" cx="16.42" cy="14.232" r="1.143"/>
</g>
</svg>
