<?xml version="1.0" encoding="iso-8859-1"?>
<!-- Generator: Adobe Illustrator 22.1.0, SVG Export Plug-In . SVG Version: 6.00 Build 0)  -->
<svg version="1.1" id="Layer_1" xmlns="http://www.w3.org/2000/svg" xmlns:xlink="http://www.w3.org/1999/xlink" x="0px" y="0px"
	 viewBox="0 0 46.838 54.002" style="enable-background:new 0 0 46.838 54.002;" xml:space="preserve">
<g id="hex-net_x60_47x55">
	<polygon style="fill:#38B0FF;" points="46.766,40.5 23.382,54.002 0,40.5 0,13.501 23.382,0 46.766,13.501 	"/>
	<polygon style="fill:#2695DE;" points="4.126,33.686 23.911,53.472 46.838,40.5 46.838,25.756 38.903,17.82 26.648,31.955 
		14.578,18.82 	"/>
	<path style="fill:#1476B6;" d="M2.094,34.486"/>
	<path style="fill:#1476B6;" d="M2.094,34.486"/>
	<path style="fill:#1476B6;" d="M12.856,17.067"/>
	<path style="fill:#1476B6;" d="M12.856,17.067"/>
	<path style="fill:#FFFFFF;" d="M12.614,18.17h7.136c6.422,0,3.497,14.973,9.146,14.973h-8.28
		C14.968,33.143,19.036,18.17,12.614,18.17"/>
	<path style="fill:#004470;" d="M28.793,33.219c9.209,0,10.11-15.398,10.11-15.398h-5.466c-7.751,0-2.841,15.323-12.819,15.323"/>
	<path style="fill:#00548A;" d="M12.614,18.17c-6.422,0-8.489,15.516-8.489,15.516s3.945-0.004,4.075-0.004
		c9.76,0,3.169-15.497,11.887-15.497"/>
</g>
</svg>
