<?xml version="1.0" encoding="iso-8859-1"?>
<!-- Generator: Adobe Illustrator 22.1.0, SVG Export Plug-In . SVG Version: 6.00 Build 0)  -->
<svg version="1.1" id="Layer_1" xmlns="http://www.w3.org/2000/svg" xmlns:xlink="http://www.w3.org/1999/xlink" x="0px" y="0px"
	 viewBox="0 0 46.5 53.7" style="enable-background:new 0 0 46.5 53.7;" xml:space="preserve">
<g id="hex-javascript_x60_47x54">
	<polygon id="_x3E_bg_4_" style="fill:#FFB13B;" points="46.5,40.3 23.2,53.7 0,40.3 0,13.4 23.2,0 46.5,13.4 	"/>
	<polygon style="fill:#FF6759;" points="17.771,15.49 25.255,25.405 25.715,16.887 36.598,17.927 46.5,30.574 46.5,40.3 
		24.313,52.981 5.499,34.215 14.629,33.191 	"/>
	<g>
		<path style="fill:#FFFFFF;" d="M7.186,30.669c0.784,0.754,1.81,1.447,3.198,1.447c1.9,0,3.137-1.267,3.137-3.228V15.434h4.284
			v13.515c0,4.767-2.956,6.969-7.089,6.969c-2.021,0-3.952-0.543-5.4-1.961L7.186,30.669z"/>
		<path style="fill:#FFFFFF;" d="M22.75,29.461c1.417,1.479,3.62,2.715,6.395,2.715c2.353,0,3.5-1.116,3.5-2.263
			c0-1.508-1.75-2.021-4.073-2.563c-3.288-0.755-7.511-1.659-7.511-6.154c0-3.349,2.896-6.063,7.632-6.063
			c3.198,0,5.853,0.966,7.844,2.806l-2.383,3.137c-1.629-1.508-3.801-2.202-5.762-2.202c-1.931,0-2.957,0.845-2.957,2.052
			c0,1.357,1.689,1.78,4.012,2.323c3.318,0.754,7.542,1.749,7.542,6.214c0,3.681-2.625,6.456-8.054,6.456
			c-3.861,0-6.637-1.298-8.507-3.198L22.75,29.461z"/>
	</g>
</g>
</svg>
