<?xml version="1.0" encoding="iso-8859-1"?>
<!-- Generator: Adobe Illustrator 22.1.0, SVG Export Plug-In . SVG Version: 6.00 Build 0)  -->
<svg version="1.1" id="Layer_1" xmlns="http://www.w3.org/2000/svg" xmlns:xlink="http://www.w3.org/1999/xlink" x="0px" y="0px"
	 viewBox="0 0 73.03 84.332" style="enable-background:new 0 0 73.03 84.332;" xml:space="preserve">
<g id="basic-language_x60_74x85">
	<polygon style="fill:none;stroke:#B4C5CF;stroke-width:1.5;stroke-miterlimit:10;" points="72.28,62.816 36.51,83.466 0.75,62.816 
		0.75,21.516 36.51,0.866 72.28,21.516 	"/>
	<polygon style="fill:none;stroke:#B4C5CF;stroke-width:1.5;stroke-miterlimit:10;" points="44.567,46.815 36.514,51.465 
		28.463,46.815 28.463,37.517 36.514,32.867 44.567,37.517 	"/>
	<line style="fill:none;stroke:#B4C5CF;stroke-width:1.5;stroke-miterlimit:10;" x1="40.328" y1="21.496" x2="50.117" y2="27.147"/>
	<line style="fill:none;stroke:#B4C5CF;stroke-width:1.5;stroke-miterlimit:10;" x1="52.489" y1="55.842" x2="42.714" y2="61.517"/>
	<line style="fill:none;stroke:#B4C5CF;stroke-width:1.5;stroke-miterlimit:10;" x1="32.655" y1="62.836" x2="22.859" y2="57.199"/>
	<circle style="fill:none;stroke:#B4C5CF;stroke-width:1.5;stroke-miterlimit:10;" cx="36.561" cy="19.14" r="4.423"/>
	<circle style="fill:none;stroke:#B4C5CF;stroke-width:1.5;stroke-miterlimit:10;" cx="36.569" cy="64.897" r="4.423"/>
	<circle style="fill:none;stroke:#B4C5CF;stroke-width:1.5;stroke-miterlimit:10;" cx="56.293" cy="30.775" r="4.423"/>
	<circle style="fill:none;stroke:#B4C5CF;stroke-width:1.5;stroke-miterlimit:10;" cx="56.293" cy="53.608" r="4.423"/>
	<circle style="fill:none;stroke:#B4C5CF;stroke-width:1.5;stroke-miterlimit:10;" cx="16.717" cy="30.775" r="4.423"/>
	<circle style="fill:none;stroke:#B4C5CF;stroke-width:1.5;stroke-miterlimit:10;" cx="16.59" cy="53.608" r="4.423"/>
	<line style="fill:none;stroke:#B4C5CF;stroke-width:1.5;stroke-miterlimit:10;" x1="56.308" y1="35.154" x2="56.356" y2="46.456"/>
	<line style="fill:none;stroke:#B4C5CF;stroke-width:1.5;stroke-miterlimit:10;" x1="16.646" y1="49.184" x2="16.693" y2="37.882"/>
	<line style="fill:none;stroke:#B4C5CF;stroke-width:1.5;stroke-miterlimit:10;" x1="20.497" y1="28.54" x2="30.295" y2="22.907"/>
</g>
</svg>
