<?xml version="1.0" encoding="iso-8859-1"?>
<!-- Generator: Adobe Illustrator 22.1.0, SVG Export Plug-In . SVG Version: 6.00 Build 0)  -->
<svg version="1.1" id="Layer_1" xmlns="http://www.w3.org/2000/svg" xmlns:xlink="http://www.w3.org/1999/xlink" x="0px" y="0px"
	 viewBox="0 0 130.365 81.618" style="enable-background:new 0 0 130.365 81.618;" xml:space="preserve">
<g id="docs-hand_x60_131x82">
	<path style="fill:#418FDE;" d="M76.642,14.662c-1.51,0-2.734,1.224-2.734,2.734v22.565h-3.136V8.703
		c0-1.805-1.463-3.268-3.268-3.268c-1.805,0-3.268,1.463-3.268,3.268v31.259H61.1V3.268C61.1,1.463,59.637,0,57.832,0
		c-1.805,0-3.268,1.463-3.268,3.268v36.693h-3.136V8.703c0-1.805-1.463-3.268-3.268-3.268c-1.805,0-3.268,1.463-3.268,3.268v31.259
		v7.559v16.919c0.012,9.49,7.851,17.179,17.343,17.179s17.13-7.689,17.142-17.179h0.001V48.697v-8.736V17.396
		C79.376,15.886,78.152,14.662,76.642,14.662z"/>
	<path style="fill:#418FDE;" d="M42.626,64.439V35.218c0-1.805-1.463-3.268-3.268-3.268c-1.805,0-3.268,1.463-3.268,3.268v29.221
		c0.012,9.49,7.708,17.179,17.201,17.179h6.452C50.249,81.618,42.638,73.928,42.626,64.439z"/>
	<polyline style="fill:none;stroke:#418FDE;stroke-miterlimit:10;" points="71.045,60.204 99.3,31.95 107.268,31.95 	"/>
	<polyline style="fill:none;stroke:#418FDE;stroke-miterlimit:10;" points="39.825,58.365 28.507,47.047 15.536,47.047 	"/>
	<circle style="fill:none;stroke:#418FDE;stroke-miterlimit:10;" cx="111.05" cy="31.95" r="3.782"/>
	<line style="fill:none;stroke:#418FDE;stroke-miterlimit:10;" x1="99.774" y1="16.215" x2="123.375" y2="16.215"/>
	<line style="fill:none;stroke:#418FDE;stroke-miterlimit:10;" x1="99.774" y1="19.215" x2="123.375" y2="19.215"/>
	<line style="fill:none;stroke:#418FDE;stroke-miterlimit:10;" x1="99.774" y1="22.215" x2="123.375" y2="22.215"/>
	<line style="fill:none;stroke:#418FDE;stroke-miterlimit:10;" x1="99.774" y1="65.444" x2="123.375" y2="65.444"/>
	<line style="fill:none;stroke:#418FDE;stroke-miterlimit:10;" x1="99.774" y1="68.444" x2="123.375" y2="68.444"/>
	<line style="fill:none;stroke:#418FDE;stroke-miterlimit:10;" x1="99.774" y1="71.445" x2="123.375" y2="71.445"/>
	<line style="fill:none;stroke:#418FDE;stroke-miterlimit:10;" x1="99.654" y1="45.886" x2="112.784" y2="45.886"/>
	<line style="fill:none;stroke:#418FDE;stroke-miterlimit:10;" x1="99.654" y1="48.886" x2="112.784" y2="48.886"/>
	<line style="fill:none;stroke:#418FDE;stroke-miterlimit:10;" x1="99.654" y1="51.886" x2="112.784" y2="51.886"/>
	<line style="fill:none;stroke:#418FDE;stroke-miterlimit:10;" x1="117.235" y1="45.886" x2="130.365" y2="45.886"/>
	<line style="fill:none;stroke:#418FDE;stroke-miterlimit:10;" x1="117.235" y1="48.886" x2="130.365" y2="48.886"/>
	<line style="fill:none;stroke:#418FDE;stroke-miterlimit:10;" x1="117.235" y1="51.886" x2="130.365" y2="51.886"/>
	<line style="fill:none;stroke:#418FDE;stroke-miterlimit:10;" x1="47.988" y1="10.877" x2="26.2" y2="10.877"/>
	<polygon style="fill:none;stroke:#418FDE;stroke-miterlimit:10;" points="5.756,43.417 10.646,51.886 0.866,51.886 	"/>
	<circle style="fill:#FFFFFF;" cx="62.124" cy="68.436" r="1.839"/>
	<circle style="fill:#FFFFFF;" cx="39.067" cy="57.607" r="1.839"/>
	<circle style="fill:#FFFFFF;" cx="47.988" cy="10.877" r="1.839"/>
	
		<rect x="15.857" y="6.691" transform="matrix(0.7071 0.7071 -0.7071 0.7071 13.6596 -11.0278)" style="fill:none;stroke:#418FDE;stroke-miterlimit:10;" width="8.568" height="8.568"/>
</g>
</svg>
