<?xml version="1.0" encoding="iso-8859-1"?>
<!-- Generator: Adobe Illustrator 22.1.0, SVG Export Plug-In . SVG Version: 6.00 Build 0)  -->
<svg version="1.1" id="Layer_1" xmlns="http://www.w3.org/2000/svg" xmlns:xlink="http://www.w3.org/1999/xlink" x="0px" y="0px"
	 viewBox="0 0 45.998 53.065" style="enable-background:new 0 0 45.998 53.065;" xml:space="preserve">
<g id="hex-sinatra_x60_46x54">
	<polygon style="fill:#5E5E5E;" points="45.998,39.766 22.999,53.065 0,39.766 0,13.298 22.999,0 45.998,13.298 	"/>
	<polygon style="fill:#444444;" points="7.645,32.571 25.312,51.651 45.934,39.831 45.934,32.122 37.968,22.035 36.426,22.806 
		32.057,16.832 22.871,25.183 	"/>
	<path style="fill:#EFEAE6;" d="M7.131,30.387c0-2.57,5.975-6.36,15.483-9.251c4.882-1.478,9.572-1.67,12.849-0.578
		c3.276,1.092,4.176,3.726,4.176,6.232c0,3.919-7.131,8.801-14.647,9.444C17.474,36.876,7.131,36.233,7.131,30.387z"/>
	<path style="fill:#EFEAE6;" d="M13.62,23.963c0,0,0.514-3.405,0.578-4.112c0.321-2.891,2.056-3.598,4.369-4.047
		c1.537-0.334,3.135-0.245,4.626,0.257c0.642,0.257-6.039,2.056-5.589,2.505c1.221,1.092,9.123-3.919,12.913-2.762
		c1.349,0.45,1.67,0.899,2.505,3.983c0.257,0.899,1.092,4.69,1.092,4.69c-0.866,1.339-2.326,2.176-3.919,2.249
		c-2.634,0.064-7.902,0.257-10.472,0.064S13.877,25.826,13.62,23.963z"/>
	<path style="fill:#333333;" d="M34.434,25.826c0,0,0.642,2.12-3.405,3.855c-2.377,1.028-7.067,1.992-11.5,1.992
		c-2.57,0-5.975-1.67-6.232-3.533l0.321-4.176c0.257,1.863,3.598,2.57,6.167,2.827s7.709-0.128,10.536-1.092
		c1.382-0.441,2.623-1.239,3.598-2.313L34.434,25.826z"/>
</g>
</svg>
