<?xml version="1.0" encoding="iso-8859-1"?>
<!-- Generator: Adobe Illustrator 22.1.0, SVG Export Plug-In . SVG Version: 6.00 Build 0)  -->
<svg version="1.1" id="Layer_1" xmlns="http://www.w3.org/2000/svg" xmlns:xlink="http://www.w3.org/1999/xlink" x="0px" y="0px"
	 viewBox="0 0 45.953 53.065" style="enable-background:new 0 0 45.953 53.065;" xml:space="preserve">
<g id="hex-discourse_x60_46x54">
	<linearGradient id="SVGID_1_" gradientUnits="userSpaceOnUse" x1="2.1269" y1="13.1467" x2="44.3769" y2="40.2717">
		<stop  offset="0" style="stop-color:#FAF09B"/>
		<stop  offset="1" style="stop-color:#82DDFF"/>
	</linearGradient>
	<polygon style="fill:url(#SVGID_1_);" points="45.953,39.799 22.973,53.065 0,39.799 0,13.266 22.973,0 45.953,13.266 	"/>
	<linearGradient id="SVGID_2_" gradientUnits="userSpaceOnUse" x1="3.1263" y1="14.6557" x2="38.7513" y2="43.2807">
		<stop  offset="0" style="stop-color:#F2E88F"/>
		<stop  offset="1" style="stop-color:#00AEEF"/>
	</linearGradient>
	<path style="fill:url(#SVGID_2_);" d="M45.953,30.003l-14.78-14.961c0,0-9.055-2.136-15.222,4.239s-5.705,19.857-5.705,19.857
		L23.2,52.934l22.753-13.136V30.003z"/>
	<path style="fill:#FCF2F3;" d="M12.746,20.564"/>
	<path style="fill:#FFFFFF;" d="M22.976,38.022c-6.335,0-11.49-5.154-11.49-11.49c0-6.336,5.154-11.49,11.49-11.49
		c6.336,0,11.49,5.154,11.49,11.49C34.466,32.868,29.312,38.022,22.976,38.022z M22.976,17.506c-4.977,0-9.027,4.049-9.027,9.027
		c0,4.977,4.049,9.027,9.027,9.027c4.978,0,9.027-4.049,9.027-9.027C32.003,21.555,27.954,17.506,22.976,17.506z"/>
	<polygon style="fill:#FFFFFF;" points="26.237,22.851 19.34,22.851 17.633,24.983 22.788,31.426 27.943,24.983 	"/>
	<path style="fill:#2B2B2B;" d="M23.514,12.389c-7.274,0-13.398,5.897-13.398,13.171c0,0.235,0.005,13.639,0.005,13.639
		l13.393-0.014c7.274,0,13.172-6.124,13.172-13.398C36.685,18.513,30.788,12.389,23.514,12.389z"/>
	<path style="fill:#F0E78F;" d="M23.641,17.487c-4.509,0-8.164,3.655-8.164,8.164c0,1.409,0.357,2.734,0.985,3.891l-1.476,4.753
		l5.305-1.2c1.022,0.46,2.155,0.719,3.349,0.719c4.508,0,8.164-3.655,8.164-8.164C31.805,21.142,28.15,17.487,23.641,17.487z"/>
	<path style="fill:#00AEEF;" d="M30.12,20.686c1.056,1.376,1.685,3.096,1.685,4.965c0,4.509-3.655,8.164-8.164,8.164
		c-1.194,0-2.327-0.259-3.349-0.719l-5.305,1.2l5.402-0.639c0.968,0.564,2.068,0.94,3.256,1.065
		c4.484,0.472,8.501-2.782,8.972-7.265C32.892,24.834,31.893,22.373,30.12,20.686z"/>
	<path style="fill:#00953B;" d="M28.615,19.179c1.194,1.258,1.999,2.903,2.194,4.761c0.471,4.484-2.782,8.501-7.265,8.972
		c-1.188,0.125-2.342-0.014-3.406-0.365l-5.151,1.748l5.305-1.2c1.022,0.46,2.155,0.719,3.349,0.719
		c4.508,0,8.164-3.655,8.164-8.164C31.805,23.014,30.554,20.671,28.615,19.179z"/>
	<path style="fill:#E43D30;" d="M16.952,29.722c-0.504-1.216-0.72-2.571-0.573-3.973c0.471-4.484,4.488-7.737,8.972-7.266
		c1.862,0.196,3.51,1.004,4.769,2.203c-1.492-1.944-3.839-3.199-6.479-3.199c-4.509,0-8.164,3.655-8.164,8.164
		c0,1.409,0.357,2.734,0.985,3.891l-1.476,4.753L16.952,29.722z"/>
	<path style="fill:#CF3339;" d="M16.463,29.542c-0.628-1.157-0.985-2.482-0.985-3.891c0-4.509,3.655-8.164,8.164-8.164
		c1.872,0,3.596,0.632,4.974,1.692c-1.688-1.778-4.152-2.781-6.778-2.504c-4.484,0.471-7.737,4.488-7.265,8.972
		c0.147,1.401,0.641,2.682,1.387,3.767l-0.971,4.882L16.463,29.542z"/>
</g>
</svg>
