<?xml version="1.0" encoding="iso-8859-1"?>
<!-- Generator: Adobe Illustrator 22.1.0, SVG Export Plug-In . SVG Version: 6.00 Build 0)  -->
<svg version="1.1" id="Layer_1" xmlns="http://www.w3.org/2000/svg" xmlns:xlink="http://www.w3.org/1999/xlink" x="0px" y="0px"
	 viewBox="0 0 46.014 53.135" style="enable-background:new 0 0 46.014 53.135;" xml:space="preserve">
<g id="hex-meteor_x60_47x54">
	<polygon style="fill:#212E4C;" points="46.014,39.851 23.004,53.135 0,39.851 0,13.284 23.004,0 46.014,13.284 	"/>
	<g>
		<path style="fill:#E86161;" d="M11.185,15.32l20.14,21.333c0,0,0.686,0.484,1.211-0.081s0.121-1.129,0.121-1.129L11.185,15.32
			L11.185,15.32z"/>
		<path style="fill:#E86161;" d="M17.562,17.336L32.9,33.871c0,0,0.686,0.484,1.211-0.081c0.525-0.565,0.121-1.129,0.121-1.129
			L17.562,17.336L17.562,17.336z"/>
		<path style="fill:#E86161;" d="M13.082,21.651L28.42,38.186c0,0,0.686,0.484,1.211-0.081c0.525-0.565,0.121-1.129,0.121-1.129
			L13.082,21.651L13.082,21.651z"/>
		<path style="fill:#E86161;" d="M22.953,19.07l10.715,11.552c0,0,0.479,0.338,0.846-0.056c0.367-0.394,0.085-0.789,0.085-0.789
			L22.953,19.07L22.953,19.07z"/>
		<path style="fill:#E86161;" d="M14.558,26.652l10.715,11.552c0,0,0.479,0.338,0.846-0.056c0.367-0.394,0.085-0.789,0.085-0.789
			L14.558,26.652L14.558,26.652z"/>
		<path style="fill:#E86161;" d="M28.46,21.571l4.857,5.251c0,0,0.237,0.158,0.418-0.026c0.181-0.185,0.042-0.37,0.042-0.37
			L28.46,21.571L28.46,21.571z"/>
		<path style="fill:#E86161;" d="M17.24,31.975l4.857,5.251c0,0,0.237,0.158,0.418-0.026c0.181-0.185,0.042-0.37,0.042-0.37
			L17.24,31.975L17.24,31.975z"/>
	</g>
	<circle style="fill:#345D78;" cx="29.83" cy="11.865" r="1.4"/>
	<circle style="fill:#345D78;" cx="14.386" cy="40.649" r="1.616"/>
	<circle style="fill:#345D78;" cx="26.727" cy="46.325" r="0.904"/>
	<circle style="fill:#345D78;" cx="40.148" cy="36.75" r="0.904"/>
	<circle style="fill:#345D78;" cx="6.726" cy="30.418" r="1.4"/>
	<circle style="fill:#345D78;" cx="39.398" cy="23.534" r="0.988"/>
	<circle style="fill:#345D78;" cx="3.225" cy="25.984" r="0.988"/>
	<circle style="fill:#345D78;" cx="25.992" cy="14.78" r="0.988"/>
	<circle style="fill:#345D78;" cx="19.406" cy="5.597" r="0.988"/>
	<circle style="fill:#345D78;" cx="4.392" cy="35.381" r="0.988"/>
</g>
</svg>
