<?xml version="1.0" encoding="iso-8859-1"?>
<!-- Generator: Adobe Illustrator 22.1.0, SVG Export Plug-In . SVG Version: 6.00 Build 0)  -->
<svg version="1.1" id="Layer_1" xmlns="http://www.w3.org/2000/svg" xmlns:xlink="http://www.w3.org/1999/xlink" x="0px" y="0px"
	 viewBox="0 0 46.572 53.778" style="enable-background:new 0 0 46.572 53.778;" xml:space="preserve">
<g id="hex-python_x60_47x54">
	<polygon style="fill:#3672A4;" points="46.572,40.332 23.286,53.778 0,40.332 0,13.444 23.286,0 46.572,13.444 	"/>
	<polygon style="fill:#3672A4;" points="23.286,53.778 0,40.332 0,13.444 23.286,0 	"/>
	<g>
		<g>
			<g>
				<defs>
					<polygon id="SVGID_1_" points="46.572,40.332 23.286,53.778 0,40.332 0,13.444 23.286,0 46.572,13.444 					"/>
				</defs>
				<clipPath id="SVGID_2_">
					<use xlink:href="#SVGID_1_"  style="overflow:visible;"/>
				</clipPath>
				<polyline style="clip-path:url(#SVGID_2_);fill:#29577D;" points="17.164,38.036 30.716,49.487 46.572,40.332 46.572,33.117 
					29.552,16.097 28.716,23.726 23.286,26.46 23.286,29.211 17.164,38.036 				"/>
			</g>
		</g>
	</g>
	<polygon style="fill:#29577D;" points="12.98,33.502 17.667,38.189 23.286,30.055 23.286,24.213 12.98,29.462 	"/>
	<path style="fill:#FFFFFF;" d="M23.388,19.127h-6.224v-2.605l2.771-2.928h7.462l2.906,3.034v7.354l-2.724,2.753h-8.673
		l-3.128,3.154v3.969l-2.799-0.357l-2.732-2.615v-7.204l3.169-3.171h9.971L23.388,19.127L23.388,19.127z"/>
	
		<rect x="20.048" y="15.269" transform="matrix(0.7071 -0.7071 0.7071 0.7071 -5.3948 19.7842)" style="fill:#29577D;" width="2.272" height="2.271"/>
	<path style="fill:#FFFFFF;" d="M24.079,35.727h6.224v2.402l-2.642,2.439h-7.462l-3.036-2.544V30.67l2.853-2.552h8.672l2.998-3.028
		v-4.035l2.963,0.095l2.57,2.616v7.205l-3.042,3.373H24.078L24.079,35.727L24.079,35.727z M24.473,39.744l1.533-1.533l-1.532-1.533
		l-1.533,1.533L24.473,39.744z"/>
</g>
</svg>
