<?xml version="1.0" encoding="iso-8859-1"?>
<!-- Generator: Adobe Illustrator 22.1.0, SVG Export Plug-In . SVG Version: 6.00 Build 0)  -->
<svg version="1.1" id="Layer_1" xmlns="http://www.w3.org/2000/svg" xmlns:xlink="http://www.w3.org/1999/xlink" x="0px" y="0px"
	 viewBox="0 0 46.5 53.694" style="enable-background:new 0 0 46.5 53.694;" xml:space="preserve">
<g id="hex-node_x60_47x54">
	<g>
		<polygon style="fill:#98CF70;" points="46.5,40.27 23.249,53.694 0,40.27 0,13.423 23.249,0 46.5,13.423 		"/>
		<g>
			<g>
				<g>
					<defs>
						<polygon id="SVGID_1_" points="46.5,40.27 23.249,53.694 0,40.27 0,13.423 23.249,0 46.5,13.423 						"/>
					</defs>
					<clipPath id="SVGID_2_">
						<use xlink:href="#SVGID_1_"  style="overflow:visible;"/>
					</clipPath>
					<polyline style="clip-path:url(#SVGID_2_);fill:#81B05F;" points="12.163,36.337 12.313,36.485 27.225,51.398 46.5,40.27 
						46.473,32.771 34.129,20.426 23.25,19.509 15.685,21.492 					"/>
				</g>
			</g>
		</g>
		<path style="fill:#FFFFFF;" d="M34.129,20.426c0-0.432-0.229-0.83-0.6-1.044l-9.943-5.959c-0.168-0.101-0.357-0.397-0.547-0.397
			c-0.017,0-0.089,0-0.104,0c-0.19,0-0.378,0.296-0.549,0.397l-9.943,5.841c-0.37,0.211-0.6,0.67-0.6,1.104l0.022,15.437
			c0,0.211,0.112,0.427,0.299,0.532c0.186,0.112,0.413,0.118,0.597,0.009l5.955-3.38c0.373-0.222,0.649-0.61,0.649-1.039v-7.196
			c0-0.429,0.182-0.826,0.555-1.039l2.492-1.451c0.187-0.107,0.381-0.16,0.589-0.16c0.206,0,0.41,0.053,0.592,0.16l2.69,1.451
			c0.372,0.213,0.776,0.61,0.776,1.039v7.196c0,0.429,0.052,0.823,0.424,1.043l5.818,3.384c0.185,0.109,0.371,0.109,0.556,0
			c0.182-0.106,0.277-0.305,0.277-0.517L34.129,20.426z"/>
	</g>
</g>
</svg>
