<?xml version="1.0" encoding="iso-8859-1"?>
<!-- Generator: Adobe Illustrator 22.1.0, SVG Export Plug-In . SVG Version: 6.00 Build 0)  -->
<svg version="1.1" id="Layer_1" xmlns="http://www.w3.org/2000/svg" xmlns:xlink="http://www.w3.org/1999/xlink" x="0px" y="0px"
	 viewBox="0 0 46.374 53.55" style="enable-background:new 0 0 46.374 53.55;" xml:space="preserve">
<g id="hex-feathers_x60_47x54">
	<polygon style="fill:#FFFFFF;" points="46.374,40.163 23.184,53.55 0,40.163 0,13.388 23.184,0 46.374,13.388 	"/>
	<polygon style="fill:none;stroke:#E7EBEE;stroke-miterlimit:10;" points="45.676,39.76 23.184,52.745 0.698,39.76 0.698,13.79 
		23.184,0.806 45.676,13.79 	"/>
	<path style="fill:none;stroke:#3A3A3A;stroke-linecap:round;stroke-miterlimit:10;" d="M22.37,32.331c0,0,0,2.201,0,5.234
		c0,3.033,0.819,6.726,0.819,6.726"/>
	<path style="fill:#3A3A3A;" d="M25.128,29.17l3.674-0.915c-0.003-2.459-0.045-5.489-0.45-8.095l-3.202,0.051l2.889-1.663
		c-0.119-0.487-0.255-0.949-0.414-1.372c-1.533-4.075-4.412-5.584-4.412-5.584s-2.755,1.801-4.244,5.707
		c-0.871,2.285-1.197,5.39-1.321,8.289l2.58,1.736l-2.628-0.369c-0.024,1.003-0.029,1.963-0.029,2.823
		c0,0.452,0.032,0.875,0.077,1.283l2.362,0.534l-2.189,0.526c0.754,3.348,3.115,4.92,5.339,4.92c2.607,0,5.449-1.754,5.625-7.076
		L25.128,29.17z"/>
	<line style="fill:none;stroke:#FFFFFF;stroke-linecap:round;stroke-miterlimit:10;" x1="23.381" y1="21.669" x2="23.381" y2="37"/>
</g>
</svg>
