<?xml version="1.0" encoding="iso-8859-1"?>
<!-- Generator: Adobe Illustrator 22.1.0, SVG Export Plug-In . SVG Version: 6.00 Build 0)  -->
<svg version="1.1" id="Layer_1" xmlns="http://www.w3.org/2000/svg" xmlns:xlink="http://www.w3.org/1999/xlink" x="0px" y="0px"
	 viewBox="0 0 46.062 53.161" style="enable-background:new 0 0 46.062 53.161;" xml:space="preserve">
<g id="hex-codeigniter_x60_47x54">
	<polygon style="fill:#EE4323;" points="46.037,39.871 23.015,53.161 0,39.871 0,13.29 23.015,0 46.037,13.29 	"/>
	<polygon style="fill:#C2371C;" points="45.985,35.025 24.495,12.743 12.911,34.626 27.926,50.188 46.062,39.935 	"/>
	<path style="fill:#FEF6F5;" d="M19.012,38.127c-1.615-0.702-3.128-2.471-3.134-4.293c0-1.982,1.249-3.662,2.813-4.769
		c-0.274,0.653-0.209,1.399,0.174,1.995c0.444,0.602,1.201,0.885,1.931,0.721c1.673-0.367,1.744-2.201,0.759-3.269
		c-0.985-1.068-1.931-2.259-1.551-3.791c0.212-0.786,0.662-1.487,1.287-2.008c-0.463,1.21,0.85,2.401,1.712,2.999
		c1.493,1.03,3.134,1.809,4.505,3.018c1.371,1.21,2.516,2.986,2.298,4.981c-0.232,2.162-1.931,3.662-3.862,4.422
		c4.068-0.901,8.27-4.055,8.367-8.566c0.071-3.714-2.478-6.571-5.632-8.206l-0.251-0.097c0.074,0.173,0.112,0.359,0.109,0.547
		c0.029-0.12,0.046-0.243,0.051-0.367c-0.001,0.148-0.02,0.295-0.058,0.438v-0.064c-0.047,0.196-0.125,0.383-0.232,0.553
		l0.045-0.051c-0.602,0.915-1.831,1.168-2.746,0.567c-0.16-0.105-0.304-0.233-0.427-0.38c-1.352-1.738,0-3.611,0.219-5.451
		c0.245-2.304-1.204-4.544-2.999-5.889c0.991,1.596-0.315,3.714-1.358,4.898c-1.043,1.184-2.208,2.105-3.321,3.115
		c-1.215,1.103-2.331,2.311-3.334,3.611c-1.969,2.626-3.173,5.934-2.291,9.21s3.72,5.361,6.925,6.095l0,0V38.127z"/>
</g>
</svg>
