<?xml version="1.0" encoding="iso-8859-1"?>
<!-- Generator: Adobe Illustrator 22.1.0, SVG Export Plug-In . SVG Version: 6.00 Build 0)  -->
<svg version="1.1" id="Layer_1" xmlns="http://www.w3.org/2000/svg" xmlns:xlink="http://www.w3.org/1999/xlink" x="0px" y="0px"
	 viewBox="0 0 45.936 53.045" style="enable-background:new 0 0 45.936 53.045;" xml:space="preserve">
<g id="hex-symfony_x60_46x54">
	<polygon style="fill:#4AABE0;" points="45.936,39.784 22.965,53.045 0,39.784 0,13.261 22.965,0 45.936,13.261 	"/>
	<polygon style="fill:#388DBA;" points="45.834,24.535 34.565,13.265 32.61,12.789 29.242,12.789 27.149,15.695 24.738,23.243 
		18.498,18.075 13.635,18.962 12.547,24.399 16.468,26.522 16.104,29.895 12.948,30.866 9.041,29.182 17.831,37.972 15.451,40.352 
		12.547,39.303 25.073,51.828 45.936,39.784 	"/>
	<path style="fill:#FFFFFF;" d="M31.455,12.294c-2.107,0.072-3.947,1.236-5.317,2.841c-1.517,1.763-2.524,3.851-3.252,5.985
		c-1.3-1.066-2.302-2.446-4.389-3.046c-1.612-0.464-3.306-0.273-4.863,0.887c-0.737,0.551-1.246,1.383-1.487,2.167
		c-0.626,2.034,0.658,3.846,1.241,4.495l1.275,1.365c0.262,0.268,0.896,0.967,0.586,1.968c-0.333,1.09-1.646,1.794-2.993,1.38
		c-0.602-0.185-1.466-0.633-1.272-1.263c0.08-0.259,0.264-0.453,0.364-0.674c0.09-0.193,0.134-0.336,0.162-0.422
		c0.246-0.802-0.091-1.847-0.951-2.113c-0.803-0.246-1.624-0.051-1.943,0.982c-0.361,1.174,0.201,3.305,3.211,4.232
		c3.527,1.086,6.509-0.836,6.933-3.339c0.267-1.568-0.442-2.734-1.739-4.232l-1.058-1.17c-0.64-0.64-0.86-1.73-0.197-2.568
		c0.559-0.707,1.355-1.008,2.66-0.654c1.905,0.516,2.753,1.838,4.169,2.904c-0.584,1.919-0.967,3.844-1.312,5.571l-0.212,1.288
		c-1.012,5.309-1.785,8.225-3.794,9.899c-0.405,0.288-0.983,0.719-1.855,0.75c-0.458,0.014-0.606-0.301-0.612-0.439
		c-0.01-0.32,0.26-0.468,0.439-0.611c0.269-0.146,0.675-0.39,0.647-1.167c-0.029-0.919-0.791-1.716-1.891-1.68
		c-0.825,0.028-2.081,0.803-2.033,2.224c0.048,1.467,1.416,2.566,3.478,2.497c1.102-0.038,3.563-0.485,5.988-3.368
		c2.823-3.305,3.613-7.093,4.207-9.866l0.663-3.661c0.367,0.044,0.762,0.074,1.19,0.084c3.516,0.074,5.273-1.746,5.3-3.071
		c0.018-0.802-0.525-1.591-1.287-1.573c-0.544,0.015-1.228,0.378-1.392,1.131c-0.161,0.738,1.118,1.405,0.118,2.054
		c-0.71,0.459-1.983,0.783-3.776,0.52l0.326-1.802c0.665-3.417,1.486-7.62,4.6-7.723c0.227-0.011,1.057,0.01,1.076,0.559
		c0.005,0.182-0.04,0.23-0.255,0.65c-0.219,0.327-0.301,0.607-0.29,0.926c0.03,0.872,0.693,1.446,1.654,1.412
		c1.285-0.043,1.653-1.293,1.632-1.936C35.152,13.179,33.56,12.225,31.455,12.294z"/>
</g>
</svg>
