<?xml version="1.0" encoding="iso-8859-1"?>
<!-- Generator: Adobe Illustrator 22.1.0, SVG Export Plug-In . SVG Version: 6.00 Build 0)  -->
<svg version="1.1" id="Layer_1" xmlns="http://www.w3.org/2000/svg" xmlns:xlink="http://www.w3.org/1999/xlink" x="0px" y="0px"
	 viewBox="0 0 46.639 53.854" style="enable-background:new 0 0 46.639 53.854;" xml:space="preserve">
<g id="hex-clojure_x60_47x54">
	<polygon style="fill:#91DC47;" points="46.639,40.39 23.319,53.854 0,40.39 0,13.463 23.319,0 46.639,13.463 	"/>
	<path style="fill:#7BBA3C;" d="M34.594,20.162c-2.354-3.836-6.574-6.403-11.404-6.403c-3.394,0-6.483,1.274-8.842,3.356
		l-14.32-3.636l0.062,3.296c0,0,9.382,9.23,9.717,10.368c0.903,3.062,1.338,3.701,3.271,10.35L27.145,51.56l19.494-11.17v-8.184
		L34.594,20.162z"/>
	<path style="fill:none;stroke:#FFFFFF;stroke-width:4.1403;stroke-miterlimit:10;" d="M35.574,27.414
		c0,6.769-5.487,12.255-12.255,12.255s-12.253-5.486-12.253-12.255c0-6.767,5.486-12.252,12.253-12.252S35.574,20.647,35.574,27.414
		z"/>
	<path style="fill:#FFFFFF;" d="M46.639,36.373c-1.652,0.511-3.406,0.788-5.223,0.788c-6.818,0-12.917-3.808-15.891-9.885
		l-1.327-2.914C20.5,16.801,12.979,12.103,4.567,12.103c-0.831,0-1.65,0.051-2.457,0.142L0,13.463v3.399
		c1.46-0.391,2.986-0.619,4.567-0.619c6.818,0,12.915,3.808,15.887,9.885l1.327,2.915c3.699,7.561,11.223,12.258,19.635,12.258
		c1.516,0,2.997-0.156,4.427-0.451l0.796-0.46V36.373z"/>
	
		<line style="fill:none;stroke:#FFFFFF;stroke-width:4.1403;stroke-miterlimit:10;" x1="23.319" y1="26.206" x2="17.328" y2="38.102"/>
</g>
</svg>
