<?xml version="1.0" encoding="iso-8859-1"?>
<!-- Generator: Adobe Illustrator 22.1.0, SVG Export Plug-In . SVG Version: 6.00 Build 0)  -->
<svg version="1.1" id="Layer_1" xmlns="http://www.w3.org/2000/svg" xmlns:xlink="http://www.w3.org/1999/xlink" x="0px" y="0px"
	 viewBox="0 0 45.953 53.065" style="enable-background:new 0 0 45.953 53.065;" xml:space="preserve">
<g id="hex-rails_x60_46x54">
	<polygon style="fill:#EF3942;" points="45.953,39.799 22.973,53.065 0,39.799 0,13.266 22.973,0 45.953,13.266 	"/>
	<polygon style="fill:#C12E35;" points="30.066,11.153 28.029,14.056 23.314,9.283 22.678,12.842 26.674,16.755 23.757,21.791 
		18.508,16.607 14.423,17.012 22.125,24.612 19.453,29.211 14.121,23.95 10.388,25.691 17.448,32.655 15.675,35.7 12.213,32.218 
		8.827,35.16 24.701,52.067 45.953,39.799 45.953,28.299 	"/>
	<path style="fill:#FCF2F3;" d="M12.746,20.564"/>
	<path style="fill:#FCF2F3;" d="M13.735,39.387c-0.373-12.849,3.617-23.931,16.331-28.235l0.989,1.927
		c-7.433,5.101-8.544,15.38-5.274,26.23L13.735,39.387z"/>
	
		<rect x="8.981" y="32.174" transform="matrix(0.0698 -0.9976 0.9976 0.0698 -23.8496 41.9529)" style="fill:#FCF2F3;" width="3.181" height="3.181"/>
	<polygon style="fill:#FCF2F3;" points="13.26,26.59 10.388,25.646 11.326,22.774 14.121,23.956 	"/>
	<polygon style="fill:#FCF2F3;" points="16.812,18.624 14.423,17.012 16.472,14.59 18.515,16.607 	"/>
	<polygon style="fill:#FCF2F3;" points="22.729,12.842 21.104,10.812 23.436,9.283 24.689,11.557 	"/>
	<polygon style="fill:#FCF2F3;" points="29.982,36.374 27.066,36.169 26.359,33.188 29.121,33.381 	"/>
	<polygon style="fill:#FCF2F3;" points="28.62,30.214 25.935,29.745 25.877,27.117 28.273,27.837 	"/>
	<polygon style="fill:#FCF2F3;" points="28.248,25.382 26.115,24.515 26.783,22.19 28.62,23.5 	"/>
	<polygon style="fill:#FCF2F3;" points="29.141,20.982 27.702,19.395 29.031,17.532 30.014,19.421 	"/>
</g>
</svg>
