<?xml version="1.0" encoding="iso-8859-1"?>
<!-- Generator: Adobe Illustrator 22.1.0, SVG Export Plug-In . SVG Version: 6.00 Build 0)  -->
<svg version="1.1" id="Layer_1" xmlns="http://www.w3.org/2000/svg" xmlns:xlink="http://www.w3.org/1999/xlink" x="0px" y="0px"
	 viewBox="0 0 46.313 53.48" style="enable-background:new 0 0 46.313 53.48;" xml:space="preserve">
<g id="hex-react_x60_47x54">
	<polygon style="fill:#494949;" points="46.313,40.11 23.153,53.48 0,40.11 0,13.37 23.153,0 46.313,13.37 	"/>
	<circle style="fill:#00D8FF;" cx="23.153" cy="26.714" r="2.668"/>
	<path style="fill:#00D8FF;" d="M36.549,24.053c-1.131-0.88-2.409-1.553-3.775-1.988c-0.311-0.121-0.628-0.222-0.952-0.304
		c0.056-0.22,0.106-0.436,0.149-0.647c0.738-3.593,0.214-6.397-1.373-7.31c-0.972-0.456-2.097-0.456-3.069,0
		c-1.33,0.531-2.555,1.294-3.619,2.253c-0.246,0.216-0.494,0.442-0.745,0.68l-0.492-0.46c-2.745-2.434-5.432-3.38-7.018-2.46
		c-0.879,0.616-1.439,1.591-1.528,2.661c-0.196,1.419-0.139,2.861,0.168,4.26c0.065,0.324,0.138,0.654,0.22,0.991
		c-0.38,0.108-0.749,0.224-1.107,0.35c-3.237,1.133-5.18,2.855-5.18,4.623c0.097,1.105,0.675,2.111,1.58,2.752
		c1.156,0.928,2.473,1.635,3.885,2.085c0.259,0.091,0.529,0.175,0.809,0.253c-0.108,0.367-0.188,0.734-0.24,1.101
		c-0.647,3.373-0.11,5.911,1.418,6.792c0.436,0.24,0.927,0.361,1.424,0.35c0.591-0.012,1.175-0.124,1.729-0.33
		c1.385-0.541,2.659-1.333,3.755-2.337c0.207-0.181,0.423-0.373,0.647-0.576c0.268,0.259,0.537,0.505,0.809,0.738
		c1.942,1.645,3.742,2.519,5.18,2.519c0.491,0.011,0.976-0.11,1.405-0.35c0.904-0.632,1.486-1.628,1.593-2.726
		c0.224-1.471,0.173-2.97-0.149-4.422c-0.052-0.259-0.112-0.524-0.181-0.796l0.557-0.175c3.483-1.152,5.646-3.011,5.646-4.843
		C38.009,25.653,37.441,24.669,36.549,24.053z M27.938,14.995c0.622-0.31,1.345-0.346,1.994-0.097
		c0.573,0.467,0.923,1.153,0.965,1.891c0.174,1.355,0.104,2.73-0.207,4.06c-0.039,0.194-0.084,0.393-0.136,0.596
		c-1.316-0.304-2.65-0.52-3.995-0.647c-0.765-1.099-1.602-2.146-2.506-3.134c0.229-0.22,0.458-0.436,0.686-0.647
		C25.679,16.16,26.762,15.476,27.938,14.995z M27.291,29.142c-0.432,0.816-0.898,1.586-1.399,2.311
		c-0.887,0.065-1.8,0.097-2.739,0.097s-1.832,0-2.7-0.084c-0.511-0.745-1.004-1.522-1.463-2.318l0,0
		c-0.46-0.796-0.887-1.599-1.295-2.402c0.388-0.809,0.809-1.619,1.295-2.409l0,0c0.46-0.796,0.945-1.567,1.444-2.305
		c0.893-0.071,1.806-0.104,2.719-0.104c0.913,0,1.832,0.032,2.726,0.104c0.492,0.732,0.978,1.496,1.437,2.298
		c0.46,0.803,0.9,1.612,1.295,2.396C28.216,27.524,27.789,28.359,27.291,29.142z M29.233,28.197c0.38,0.858,0.715,1.735,1.004,2.629
		c-0.919,0.206-1.848,0.363-2.784,0.473c0.306-0.488,0.611-0.995,0.913-1.522c0.302-0.527,0.611-1.053,0.926-1.58H29.233z
		 M23.147,34.944c-0.602-0.647-1.204-1.373-1.793-2.15c0.57,0.022,1.15,0.032,1.742,0.032c0.591,0,1.193-0.013,1.806-0.039
		c-0.528,0.745-1.095,1.462-1.696,2.15L23.147,34.944z M18.77,31.331c-0.924-0.099-1.843-0.246-2.752-0.44
		c0.265-0.855,0.589-1.735,0.965-2.635c0.268,0.514,0.548,1.027,0.842,1.541l0,0c0.345,0.518,0.68,1.027,1.004,1.528L18.77,31.331z
		 M16.983,25.251c-0.369-0.881-0.686-1.742-0.945-2.59c0.855-0.188,1.761-0.343,2.706-0.466c-0.315,0.488-0.619,0.988-0.913,1.502
		l0,0c-0.259,0.518-0.522,1.034-0.79,1.547L16.983,25.251z M23.108,18.582c0.62,0.678,1.206,1.387,1.755,2.124
		c-0.54-0.035-1.109-0.052-1.709-0.052s-1.185,0.013-1.755,0.039c0.576-0.751,1.172-1.47,1.774-2.117L23.108,18.582z M28.359,23.697
		c-0.294-0.509-0.596-1.008-0.906-1.496c0.952,0.123,1.865,0.278,2.726,0.479c-0.276,0.879-0.595,1.743-0.958,2.59
		c-0.229-0.531-0.494-1.058-0.796-1.58L28.359,23.697z M15.546,20.512c-0.278-1.25-0.332-2.538-0.162-3.807
		c0.041-0.689,0.367-1.329,0.9-1.768c0.692-0.264,1.463-0.224,2.124,0.11c1.26,0.524,2.415,1.27,3.412,2.201l0.447,0.414
		c-0.917,0.992-1.767,2.043-2.545,3.147c-1.342,0.128-2.674,0.345-3.988,0.647C15.669,21.129,15.606,20.814,15.546,20.512z
		 M14.102,30.34c-1.265-0.398-2.446-1.025-3.483-1.852c-0.6-0.413-1.003-1.055-1.114-1.774c0-1.295,2.169-2.668,4.325-3.419
		c0.33-0.117,0.647-0.22,1.029-0.324c0.391,1.286,0.867,2.545,1.424,3.768c-0.577,1.241-1.07,2.52-1.476,3.827
		C14.574,30.493,14.339,30.418,14.102,30.34z M16.284,38.55c-1.14-0.647-1.224-3.237-0.796-5.452c0.06-0.319,0.134-0.65,0.22-0.991
		c1.325,0.286,2.669,0.48,4.021,0.583c0.792,1.112,1.657,2.169,2.59,3.166c-0.19,0.181-0.38,0.356-0.57,0.524
		C19.236,38.576,17.171,39.048,16.284,38.55z M30.774,32.775c0.647,3.276,0,5.296-0.835,5.795c-1.14,0.647-3.393-0.544-5.121-2.033
		c-0.246-0.212-0.496-0.44-0.751-0.686c0.906-1.002,1.744-2.064,2.506-3.179c1.36-0.123,2.71-0.34,4.04-0.647
		c0.082,0.263,0.147,0.514,0.194,0.751H30.774z M31.998,30.347l-0.499,0.155c-0.418-1.294-0.924-2.557-1.515-3.781
		c0.565-1.207,1.05-2.451,1.45-3.723c0.306,0.086,0.602,0.179,0.887,0.278c1.224,0.383,2.37,0.979,3.386,1.761
		c0.577,0.384,0.967,0.992,1.075,1.677c0.026,0.997-1.47,2.545-4.752,3.632H31.998z"/>
</g>
</svg>
