<?xml version="1.0" encoding="iso-8859-1"?>
<!-- Generator: Adobe Illustrator 22.1.0, SVG Export Plug-In . SVG Version: 6.00 Build 0)  -->
<svg version="1.1" id="Layer_1" xmlns="http://www.w3.org/2000/svg" xmlns:xlink="http://www.w3.org/1999/xlink" x="0px" y="0px"
	 viewBox="0 0 46.894 54.148" style="enable-background:new 0 0 46.894 54.148;" xml:space="preserve">
<g id="hex-lua_x60_47x55">
	<polygon style="fill:#3D699C;" points="46.894,40.611 23.448,54.148 0,40.611 0,13.537 23.448,0 46.894,13.537 	"/>
	<g>
		<polygon style="fill:#325680;" points="31.579,49.453 46.893,40.611 46.893,36.054 30.721,19.883 15.553,33.428 		"/>
		<polygon style="fill:#325680;" points="46.893,26.367 36.226,15.698 31.948,19.349 46.893,34.293 		"/>
	</g>
	<path style="fill:#FFFFFF;" d="M33.583,27.074c0,5.598-4.538,10.136-10.135,10.136c-5.599,0-10.135-4.538-10.135-10.136
		c0-5.596,4.536-10.133,10.135-10.133C29.045,16.94,33.583,21.478,33.583,27.074z"/>
	<g>
		<path style="fill:none;stroke:#FFFFFF;stroke-width:1.1419;stroke-miterlimit:10;stroke-dasharray:4.5552,2.2776;" d="
			M37.588,27.074c0,7.809-6.331,14.141-14.14,14.141c-7.811,0-14.142-6.332-14.142-14.141c0-7.809,6.331-14.14,14.142-14.14
			C31.257,12.934,37.588,19.264,37.588,27.074z"/>
	</g>
	<path style="fill:#FFFFFF;" d="M36.527,16.982c0,1.602-1.3,2.902-2.904,2.902c-1.604,0-2.902-1.299-2.902-2.902
		c0-1.604,1.298-2.903,2.902-2.903C35.227,14.079,36.527,15.378,36.527,16.982z"/>
	<path style="fill:#3D699C;" d="M29.544,23.964c0,1.604-1.3,2.903-2.903,2.903c-1.604,0-2.903-1.299-2.903-2.903
		c0-1.602,1.299-2.902,2.903-2.902C28.244,21.061,29.544,22.361,29.544,23.964z"/>
</g>
</svg>
