<?xml version="1.0" encoding="iso-8859-1"?>
<!-- Generator: Adobe Illustrator 22.1.0, SVG Export Plug-In . SVG Version: 6.00 Build 0)  -->
<svg version="1.1" id="Layer_1" xmlns="http://www.w3.org/2000/svg" xmlns:xlink="http://www.w3.org/1999/xlink" x="0px" y="0px"
	 viewBox="0 0 46.766 54.002" style="enable-background:new 0 0 46.766 54.002;" xml:space="preserve">
<g id="hex-perl_x60_47x55">
	<polygon style="fill:#75AFDE;" points="46.766,40.5 23.382,54.002 0,40.5 0,13.501 23.382,0 46.766,13.501 	"/>
	<polygon style="fill:#6699C2;" points="14.57,32.591 31.37,49.39 46.766,40.5 46.766,37.865 29.411,20.511 	"/>
	<path style="fill:#FFFFFF;" d="M31.944,27.001c0,5.295-4.292,9.587-9.587,9.587c-5.293,0-9.587-4.292-9.587-9.587
		s4.294-9.588,9.587-9.588C27.652,17.414,31.944,21.707,31.944,27.001z"/>
	<path style="fill:#DBEFFF;" d="M29.527,20.652c0.155,0.705,0.242,1.435,0.242,2.185c0,5.62-4.557,10.177-10.179,10.177
		c-2.187,0-4.208-0.696-5.869-1.872c1.549,3.218,4.827,5.445,8.636,5.445c5.295,0,9.587-4.292,9.587-9.587
		C31.944,24.564,31.026,22.345,29.527,20.652z"/>
</g>
</svg>
