<?xml version="1.0" encoding="iso-8859-1"?>
<!-- Generator: Adobe Illustrator 22.1.0, SVG Export Plug-In . SVG Version: 6.00 Build 0)  -->
<svg version="1.1" id="Layer_1" xmlns="http://www.w3.org/2000/svg" xmlns:xlink="http://www.w3.org/1999/xlink" x="0px" y="0px"
	 viewBox="0 0 46.5 53.7" style="enable-background:new 0 0 46.5 53.7;" xml:space="preserve">
<g id="hex-couch_x60_47x54">
	<polygon id="_x3E_bg_8_" style="fill:#FF3030;" points="46.5,40.3 23.2,53.7 0,40.3 0,13.4 23.2,0 46.5,13.4 	"/>
	<g>
		<polygon style="fill:#B32222;" points="3.4,37.9 43.1,37.9 43.1,22.6 40.7,22.6 40.7,15.2 6.2,15.2 6.2,22.6 3.4,22.6 		"/>
		<polygon style="fill:#FF0000;" points="38.1,23.9 38.1,17.3 8.7,17.3 8.7,22.8 6.3,22.8 6.3,35.6 8.7,35.6 10.3,35.6 34.7,35.6 
			38.1,35.6 40.5,35.6 40.5,23.9 		"/>
		<polygon style="fill:#B32222;" points="10.3,31.3 10.3,37.1 36.2,37.1 36.2,30.9 18,33 		"/>
		<polygon style="fill:#B32222;" points="10.3,23.7 10.3,27.6 16.8,29.8 36.2,27.9 36.2,24 32.2,26.5 25.5,23.7 17.7,25.2 		"/>
		<polygon style="fill:#FFFFFF;" points="7.4,21.3 10.6,20 9.4,18.7 9.4,14.1 13.9,14.1 13.9,18.9 19.6,14.2 27,15.7 27.2,17.3 
			24.9,17.3 23.7,17.3 20.9,17.3 17.8,20.6 19.7,23.2 26.4,20.9 32.4,25.8 35.8,26.6 36.2,27.9 30.3,28.5 30,27.7 29.7,27.5 
			26,25.2 19.3,29.4 20.4,39.8 17.1,39.9 14.6,29.1 13.5,28.7 10.2,24.2 8.7,24.2 8.7,25.3 7.9,24.9 7.9,26.6 6.3,26 6.3,22.6 		"/>
	</g>
</g>
</svg>
