<?xml version="1.0" encoding="iso-8859-1"?>
<!-- Generator: Adobe Illustrator 22.1.0, SVG Export Plug-In . SVG Version: 6.00 Build 0)  -->
<svg version="1.1" id="Layer_1" xmlns="http://www.w3.org/2000/svg" xmlns:xlink="http://www.w3.org/1999/xlink" x="0px" y="0px"
	 viewBox="0 0 46.5 53.7" style="enable-background:new 0 0 46.5 53.7;" xml:space="preserve">
<g id="hex-postgres_x60_47x54">
	<polygon id="_x3E_bg_10_" style="fill:#7EB0D9;" points="46.5,40.3 23.2,53.7 0,40.3 0,13.4 23.2,0 46.5,13.4 	"/>
	<path style="fill:#2071B0;" d="M20.8,36.4v8.9c0,2.2,1.8,3.9,3.9,3.9s3.9-1.8,3.9-3.9v-8.7c0-1.9,1.4-3.4,3.2-3.6V22.5
		c0-5.2-4.3-9.5-9.5-9.5s-9.5,4.3-9.5,9.5V31c0,1.4,1,2.5,2.3,2.6c0.6-0.4,1.3-0.7,2.1-0.7C19.1,33,20.7,34.5,20.8,36.4L20.8,36.4
		L20.8,36.4z"/>
	<circle style="fill:#144973;" cx="28.5" cy="23.5" r="3.3"/>
	<path style="fill:#144973;" d="M25.5,24.9c0,0,4.7,5.6,4.7,8.8c0,0,0.7-0.6,1.7-0.6v-9.5"/>
	<circle style="fill:#144973;" cx="16.8" cy="23.9" r="3.9"/>
	<path style="fill:#144973;" d="M20.6,23.9c0,3.5-3.1,5.3-3.1,9c0,0-2.1,0.3-2.4,0.8c0,0-0.7,0.1-1.5-0.8S12.9,31,12.9,31v-6.8"/>
	<circle style="fill:#144973;" cx="22.1" cy="36.3" r="1.3"/>
	<rect x="20.8" y="36.3" style="fill:#144973;" width="2.6" height="9.3"/>
	<circle style="fill:#144973;" cx="24.7" cy="47.9" r="1.3"/>
	<path style="fill:#144973;" d="M23.4,45.6c0,0.9,0.3,1,1.3,1s0,2.6,0,2.6c-2.4,0-3.9-2.1-3.9-3.6"/>
	<path style="fill:#2071B0;" d="M16.3,10.9C9,10.9,3.2,16.8,3.2,24c0,5.1,2.9,9.5,7.1,11.6v-4.2c0-0.1,0-0.3,0-0.4v-8.5
		c0-5.3,3.4-9.7,8-11.4l0,0C17.6,10.9,17,10.9,16.3,10.9z"/>
	<path style="fill:#2071B0;" d="M17.2,35.1c-1-0.1-2,0.6-2.1,1.6c-0.6,4.1,0.6,8.8,0.6,8.8s2.4-3.3,3.1-8.2l0,0l0,0
		C18.9,36.2,18.2,35.3,17.2,35.1z"/>
	<path style="fill:#2071B0;" d="M33.9,36.4L33.9,36.4c-0.1-1-1.1-1.8-2.1-1.6s-1.8,1.1-1.6,2.1c0.5,4.2,2.9,8.3,2.9,8.3
		S34.5,41.3,33.9,36.4z"/>
	<path style="fill:#144973;" d="M7,14.7c-2.4,2.4-3.8,5.7-3.8,9.3s1.5,6.9,3.8,9.3V14.7z"/>
	<circle style="fill:#144973;" cx="16.9" cy="37" r="1.9"/>
	<circle style="fill:#144973;" cx="32.1" cy="36.6" r="1.9"/>
	<g>
		<path style="fill:#2071B0;" d="M28.8,10.6c-1,0-1.9,0.1-2.8,0.3c4.9,1.6,8.5,6.2,8.5,11.6v11.7c4.9-4.9,6.3-7.1,6.3-11.7
			C40.8,15.9,35.4,10.6,28.8,10.6z"/>
	</g>
	<path style="fill:#144973;" d="M35.8,27.5c0,1.5,0.5,2.8,1.4,3.9c2.8-3.1,3.6-5.3,3.6-8.9c0-0.4,0-0.8-0.1-1.2
		C37.9,22,35.8,24.5,35.8,27.5z"/>
	<circle style="fill:#D4EFFF;" cx="16.9" cy="23.5" r="1.3"/>
	<circle style="fill:#D4EFFF;" cx="28.5" cy="23.5" r="1.3"/>
</g>
</svg>
