<?xml version="1.0" encoding="iso-8859-1"?>
<!-- Generator: Adobe Illustrator 22.1.0, SVG Export Plug-In . SVG Version: 6.00 Build 0)  -->
<svg version="1.1" id="Layer_1" xmlns="http://www.w3.org/2000/svg" xmlns:xlink="http://www.w3.org/1999/xlink" x="0px" y="0px"
	 viewBox="0 0 46.5 53.7" style="enable-background:new 0 0 46.5 53.7;" xml:space="preserve">
<g id="hex-mysql_x60_47x54">
	<polygon id="_x3E_bg_18_" style="fill:#0069BA;" points="46.5,40.3 23.2,53.7 0,40.3 0,13.4 23.2,0 46.5,13.4 	"/>
	<path style="fill:#FFFFFF;" d="M34.5,24.7c-2.5-3.5-4.2-7-9.9-8.2C18.9,15.3,13,18,13,18s-0.8-1.5-2.8-2.1s-3.4-0.2-3.4-0.2
		S5.9,16.3,6.1,18c0.2,1.7,2,4.1,2.7,4.7c0.7,0.6,2.6,2.9,3.3,3.6c0.7,0.7,2,3.6,2.2,5.2c1.9,2.3,7.6,7.8,15.2,4.8
		c5.6-2.2,7.2-5.5,7.6-8C36.2,27,35.2,25.7,34.5,24.7z"/>
	<path style="fill:#95C3ED;" d="M37.2,28c-0.8-1.3-1.7-2.6-2.4-3.5c-2.5-3.5-4.6-6.9-10.3-8.2c-5.7-1.2-10.7,1-10.7,1
		s-1.4-0.9-3.4-1.7c-2.5-1.1-3.7,0.3-3.7,0.3S6.6,16,6.5,16.1c1.7,0.7,3.6,2.8,4.8,4.4c2.1,2.9,7.4,4.9,10.4,7.8
		c1.9,1.9,2.6,1.1,3.7,2.4c1.2,1.5,0.7,4.4,1.2,6.6c0.9-0.1,1.8-0.4,2.8-0.7C35.4,34.2,36.8,30.5,37.2,28z"/>
	<ellipse style="fill:#FFFFFF;" cx="29.503" cy="28.706" rx="2" ry="2"/>
	<path style="fill:none;stroke:#107CBF;stroke-width:1.7761;stroke-linecap:round;stroke-miterlimit:10;" d="M36.1,30.4"/>
	<g>
		<path style="fill:none;stroke:#005596;stroke-width:1.7761;stroke-linecap:round;stroke-miterlimit:10;" d="M3.7,35.2
			c-0.6-1.5-1-3.2-1.1-4.9c-0.1-2.4,0.3-4.8,1.3-6.9"/>
		<path style="fill:none;stroke:#005596;stroke-width:1.7761;stroke-linecap:round;stroke-miterlimit:10;" d="M13.4,12.5
			C16.5,11,20,10,23.8,9.8c4-0.2,7.8,0.4,11.1,1.6"/>
		<path style="fill:none;stroke:#005596;stroke-width:1.7761;stroke-linecap:round;stroke-miterlimit:10;" d="M39.5,38.3
			c-3.2,3.1-8,5.2-13.3,5.5C15.9,44.4,7.2,38.2,6.7,30c-0.1-2,0.3-4,1.1-5.9"/>
		<path style="fill:none;stroke:#005596;stroke-width:1.7761;stroke-linecap:round;stroke-miterlimit:10;" d="M25.2,13.4
			C35.5,13.2,44,19.7,44.1,28c0,2-0.4,3.9-1.3,5.6"/>
		<path style="fill:none;stroke:#005596;stroke-width:1.7761;stroke-linecap:round;stroke-miterlimit:10;" d="M37.3,21.9
			c1.8,1.7,2.9,3.9,3,6.2c0.4,6.3-6.1,11.7-14.4,12.2s-15.4-4.2-15.8-10.4"/>
	</g>
	<path style="fill:none;stroke:#107CBF;stroke-width:1.7761;stroke-linecap:round;stroke-miterlimit:10;" d="M15.2,18.7"/>
	<path style="fill:#78B0E3;" d="M13.8,17.2c0,0,5.7,2.7,7.7,4c-0.8-1.5-5.3-4.8-5.3-4.8S14.7,16.7,13.8,17.2z"/>
</g>
</svg>
