<?xml version="1.0" encoding="iso-8859-1"?>
<!-- Generator: Adobe Illustrator 22.1.0, SVG Export Plug-In . SVG Version: 6.00 Build 0)  -->
<svg version="1.1" id="Layer_1" xmlns="http://www.w3.org/2000/svg" xmlns:xlink="http://www.w3.org/1999/xlink" x="0px" y="0px"
	 viewBox="0 0 46.894 54.148" style="enable-background:new 0 0 46.894 54.148;" xml:space="preserve">
<g id="hex-couchbase_x60_47x55">
	<polygon style="fill:#EA2328;" points="46.894,40.611 23.448,54.148 0,40.611 0,13.537 23.448,0 46.894,13.537 	"/>
	<polygon style="fill:#B20F2E;" points="46.893,40.611 46.893,25.303 40.715,19.125 30.015,34.503 13.818,18.306 5.954,34.299 
		24.941,53.286 	"/>
	<path style="fill:#FFFFFF;" d="M41.663,32.083c0,1.622-0.945,3.083-2.776,3.402c-3.178,0.559-9.848,0.9-15.44,0.9
		s-12.262-0.342-15.442-0.9c-1.828-0.319-2.774-1.78-2.774-3.402v-10.6c-0.002-1.624,1.244-3.14,2.774-3.404
		c0.945-0.165,3.128-0.321,4.842-0.317c0.647,0.002,1.168,0.511,1.17,1.287c0,0.002-0.002,7.41-0.002,7.41
		c3.286-0.011,6.138-0.197,9.432-0.197c3.292,0,6.147,0.185,9.43,0.197v-7.41c0.002-0.776,0.523-1.285,1.168-1.287
		c1.714-0.005,3.899,0.152,4.842,0.317c1.532,0.265,2.776,1.78,2.776,3.404V32.083z"/>
</g>
</svg>
