<?xml version="1.0" encoding="iso-8859-1"?>
<!-- Generator: Adobe Illustrator 22.1.0, SVG Export Plug-In . SVG Version: 6.00 Build 0)  -->
<svg version="1.1" id="Layer_1" xmlns="http://www.w3.org/2000/svg" xmlns:xlink="http://www.w3.org/1999/xlink" x="0px" y="0px"
	 viewBox="0 0 45.936 53.045" style="enable-background:new 0 0 45.936 53.045;" xml:space="preserve">
<g id="hex-silex_x60_46x54">
	<polygon style="fill:#40A1DD;" points="45.936,39.784 22.965,53.045 0,39.784 0,13.261 22.965,0 45.936,13.261 	"/>
	<polygon style="fill:#0980AA;" points="8.71,37.568 21.192,52.018 22.958,52.901 45.936,39.776 45.936,33.876 26.611,10.957 
		21.835,32.11 	"/>
	<polygon style="fill:#2E373F;" points="21.883,39.11 20.915,37.174 18.979,35.843 18.374,31.487 20.31,27.978 20.673,26.284 
		22.246,25.074 22.367,23.622 24.908,21.807 26.481,19.387 31.563,27.131 32.289,29.914 34.346,32.334 35.193,32.818 31.926,36.448 
		30.111,36.69 29.143,38.142 27.449,38.505 26.844,39.11 	"/>
	<polygon style="fill:#80B1BC;" points="21.218,22.594 22.512,23.518 24.908,21.807 26.481,19.387 26.485,19.394 26.783,18.117 
		26.178,16.423 25.815,11.22 24.121,12.793 22.065,14.245 20.613,15.576 20.25,17.27 18.798,20.295 20.855,20.9 	"/>
	<polygon style="fill:#394751;" points="25.815,11.22 26.178,16.423 26.783,18.117 26.485,19.394 31.563,27.131 32.289,29.914 
		34.346,32.334 35.193,32.818 34.709,24.59 32.894,20.839 31.563,19.145 30.111,15.394 27.812,13.579 26.602,10.917 25.755,11.159 
		25.708,11.32 	"/>
	<polygon style="fill:#5E8B99;" points="20.31,27.978 20.673,26.284 22.246,25.074 22.367,23.622 23.762,22.626 23.762,22.626 
		22.512,23.518 21.218,22.594 20.855,20.9 18.961,20.343 18.858,20.355 18.011,21.928 18.132,23.501 16.196,26.768 16.196,32.576 
		17.89,35.117 18.979,35.843 18.374,31.487 	"/>
	<polygon style="fill:#2E373F;" points="12.367,34.282 14.882,32.605 17.397,34.953 18.739,36.965 20.416,37.636 18.236,38.977 
		17.397,38.977 15.888,39.816 12.199,39.816 11.025,39.145 10.187,38.642 9.516,37.133 10.69,35.456 	"/>
	<polygon style="fill:#80B1BC;" points="10.69,35.456 12.367,34.282 14.882,32.605 14.379,31.599 14.547,30.593 12.367,31.096 
		11.193,31.096 9.516,33.276 9.516,34.282 	"/>
	<polygon style="fill:#5E8B99;" points="10.69,35.456 9.516,34.282 8.174,35.624 8.342,37.301 10.187,38.642 9.516,37.133 	"/>
	<polygon style="fill:#394751;" points="14.882,32.605 17.397,34.953 18.739,36.965 20.416,37.636 20.248,34.953 18.907,33.276 
		17.901,32.941 17.901,32.27 16.224,31.767 15.385,30.593 14.547,30.593 14.379,31.599 	"/>
	<circle style="fill:#FFFFFF;" cx="24.758" cy="24.621" r="0.757"/>
	<circle style="fill:#FFFFFF;" cx="27.358" cy="24.621" r="0.757"/>
	<circle style="fill:#FFFFFF;" cx="13.01" cy="35.54" r="0.587"/>
	<circle style="fill:#FFFFFF;" cx="14.966" cy="35.54" r="0.587"/>
</g>
</svg>
