<?xml version="1.0" encoding="iso-8859-1"?>
<!-- Generator: Adobe Illustrator 22.1.0, SVG Export Plug-In . SVG Version: 6.00 Build 0)  -->
<svg version="1.1" id="Layer_1" xmlns="http://www.w3.org/2000/svg" xmlns:xlink="http://www.w3.org/1999/xlink" x="0px" y="0px"
	 viewBox="0 0 45.875 52.951" style="enable-background:new 0 0 45.875 52.951;" xml:space="preserve">
<g id="hex-echo_x60_46x53">
	<polygon style="fill:#17AED4;" points="45.854,39.713 22.924,52.951 0,39.713 0,13.238 22.924,0 45.854,13.238 	"/>
	<polygon style="fill:#1084B2;" points="38.137,16.577 32.775,13.481 22.934,19.152 12.835,13.321 7.717,16.258 7.717,34.424 
		24.41,51.958 45.854,39.713 45.875,24.364 	"/>
	<polygon style="fill:#FFFFFF;" points="12.622,19.921 8.467,17.508 8.467,22.306 12.622,24.705 	"/>
	<polygon style="fill:#FFFFFF;" points="17.538,22.753 13.383,20.34 13.383,25.138 17.538,27.537 	"/>
	<polygon style="fill:#FFFFFF;" points="22.453,25.585 18.299,23.171 18.299,27.969 22.453,30.369 	"/>
	<polygon style="fill:#FFFFFF;" points="12.622,25.763 8.467,23.35 8.467,28.148 12.622,30.547 	"/>
	<polygon style="fill:#FFFFFF;" points="17.538,28.595 13.383,26.181 13.383,30.979 17.538,33.378 	"/>
	<polygon style="fill:#FFFFFF;" points="22.453,31.426 18.299,29.013 18.299,33.811 22.453,36.21 	"/>
	<polygon style="fill:#FFFFFF;" points="12.622,31.606 8.467,29.193 8.467,33.991 12.622,36.39 	"/>
	<polygon style="fill:#FFFFFF;" points="17.538,34.438 13.383,32.025 13.383,36.823 17.538,39.222 	"/>
	<polygon style="fill:#FFFFFF;" points="22.453,37.27 18.299,34.856 18.299,39.654 22.453,42.053 	"/>
	<polygon style="fill:#AAAAAA;" points="12.834,14.187 8.667,16.578 12.822,18.977 16.977,16.578 	"/>
	<polygon style="fill:#AAAAAA;" points="17.893,17.107 13.726,19.499 17.881,21.898 22.036,19.499 	"/>
	<polygon style="fill:#C6C6C6;" points="22.954,20.029 18.787,22.42 22.942,24.819 27.097,22.421 	"/>
	<polygon style="fill:#AAAAAA;" points="22.954,20.029 18.787,22.42 22.942,24.819 	"/>
	<polygon style="fill:#C6C6C6;" points="27.864,17.188 23.697,19.579 27.852,21.978 32.007,19.58 	"/>
	<polygon style="fill:#C6C6C6;" points="32.774,14.346 28.607,16.738 32.762,19.137 36.917,16.738 	"/>
	<polygon style="fill:#52E0FF;" points="33.233,19.921 37.387,17.508 37.387,22.306 33.233,24.705 	"/>
	<polygon style="fill:#52E0FF;" points="28.317,22.753 32.471,20.34 32.471,25.138 28.317,27.537 	"/>
	<polygon style="fill:#52E0FF;" points="23.401,25.585 27.556,23.171 27.556,27.969 23.401,30.369 	"/>
	<polygon style="fill:#52E0FF;" points="33.233,25.763 37.387,23.35 37.387,28.148 33.233,30.547 	"/>
	<polygon style="fill:#52E0FF;" points="28.317,28.595 32.471,26.181 32.471,30.979 28.317,33.378 	"/>
	<polygon style="fill:#52E0FF;" points="23.401,31.426 27.556,29.013 27.556,33.811 23.401,36.21 	"/>
	<polygon style="fill:#52E0FF;" points="33.233,31.606 37.387,29.193 37.387,33.991 33.233,36.39 	"/>
	<polygon style="fill:#52E0FF;" points="28.317,34.438 32.471,32.025 32.471,36.823 28.317,39.222 	"/>
	<polygon style="fill:#52E0FF;" points="23.401,37.27 27.556,34.856 27.556,39.654 23.401,42.053 	"/>
</g>
</svg>
