<?xml version="1.0" encoding="iso-8859-1"?>
<!-- Generator: Adobe Illustrator 22.1.0, SVG Export Plug-In . SVG Version: 6.00 Build 0)  -->
<svg version="1.1" id="Layer_1" xmlns="http://www.w3.org/2000/svg" xmlns:xlink="http://www.w3.org/1999/xlink" x="0px" y="0px"
	 viewBox="0 0 45.936 53.045" style="enable-background:new 0 0 45.936 53.045;" xml:space="preserve">
<g id="hex-grav_x60_46x54">
	<polygon style="fill:#844BA1;" points="45.936,39.784 22.965,53.045 0,39.784 0,13.261 22.965,0 45.936,13.261 	"/>
	<polygon style="fill:#5F3875;" points="33.494,13.59 27.155,13.65 24.181,9.465 21.725,12.473 23.704,17.422 18.275,23.318 
		10.745,32.985 15.237,39.069 12.954,42.255 19.751,51.159 23.005,53.045 45.936,39.784 45.936,28.826 	"/>
	<path style="fill:#F4EFF6;" d="M35.686,28.109c-0.29-0.523-0.776-1.231-1.505-2.014c-1.121-0.999-3.051-0.539-3.051-0.539
		s0.972-0.674,1.972-0.506c0.027-0.53-0.008-1.1-0.795-2.089c0,0,0.334-1.025,0.021-1.87c1.3-0.713,2.246-2.023,2.427-3.608
		c0.297-2.593-1.568-4.935-4.164-5.231c-1.85-0.211-3.571,0.675-4.516,2.139c-0.411,0.736-1.128,1.833-0.641,3.713
		c0.09,0.297,0.236,0.673,0.475,1.119c0.459,0.834,1.165,1.521,2.031,1.953c0,0-1.84-0.177-2.844-1.686
		c-0.014-0.018-0.028-0.035-0.043-0.055c-0.007-0.014-0.013-0.027-0.021-0.04c-0.189-0.307-0.341-0.667-0.442-1.086
		c-0.607-2.128,0.231-4.155,0.741-5.111c-0.378-0.494-0.681-0.757-0.681-0.757c-1.136,0.008-2.05,0.439-2.05,0.439
		s1.001-1.259,2.105-1.202c0.009-0.533-0.041-1.244-0.308-1.793c-0.501-1.03-1.895-0.775-2.306-0.289
		c-0.152,0.179-0.25,0.288-0.396,0.628c0.024-0.057,0.054-0.112,0.086-0.166c-0.395,0.993-0.09,4.678,1.416,7.292
		c-0.205,0.103-0.763,0.509-1.082,0.835c0,0-1.056,0.794-3.94,5.029c0,0,0.001,0.001,0.001,0.001
		c-2.461,0.947-4.025,2.001-5.016,3.015c-0.068,0.064-0.131,0.13-0.19,0.197c-0.006,0.007-0.012,0.014-0.018,0.02
		c-0.01,0.012-0.022,0.024-0.032,0.036c-0.008,0.009-0.014,0.017-0.022,0.027c-0.236,0.268-0.434,0.531-0.598,0.788
		c-0.834,1.214-0.908,1.978-0.774,2.567c0,0.001,0.001,0.003,0.002,0.004c0.024,0.259,0.117,0.463,0.265,0.616
		c-0.229,0.195-0.471,0.432-0.711,0.714c-0.977,1.154-0.424,2.927,1.5,2.036c1.323-0.612,2.508-1.689,3.042-2.557
		c-0.479-0.413-1.366-0.373-1.366-0.373l1.664-0.397c0.752-0.235,1.595-0.381,2.277-0.351l-0.002-0.009
		c0.664,0,0.974-1.415,1.008-2.439c0.001-0.137,0.001-0.274-0.003-0.414c0-0.003,0-0.005,0-0.007
		c-0.033-1.189-0.259-2.479-0.927-3.372c0.988,1.029,1.972,2.697,1.898,4.976c0,0-0.086,1.523-1.274,1.902
		c-0.756,1.401-3.609,5.518-2.533,8.854c-0.814-1.249-0.868-1.842-0.868-1.842s-2.546,2.826-2.706,4.055
		c-0.149,0.49-0.024,0.966,0.636,1.327c2.228,1.22,9.112-7.387,10.559-11.884c2.899-1.733,4.617-3.936,5.353-5.418
		c1.076,2.163,2.312,3.369,4.474,4.796c2.305,1.519,3.775,1.506,3.994,0.167C38.029,28.908,36.101,28.855,35.686,28.109z
		 M22.549,22.678c-0.243,0.242-0.636,0.242-0.878,0c-0.243-0.242-0.243-0.635,0-0.877c0.242-0.242,0.636-0.242,0.878,0
		C22.792,22.042,22.792,22.435,22.549,22.678z M22.984,20.489c0.243-0.242,0.636-0.242,0.878,0c0.243,0.242,0.243,0.635,0,0.877
		c-0.243,0.242-0.636,0.242-0.878,0C22.741,21.124,22.741,20.731,22.984,20.489z M26.369,24.383l-0.808,0.807
		c-0.379,0.379-0.995,0.379-1.374,0l-0.887-0.887c-0.38-0.379-0.38-0.994,0-1.373l0.808-0.807c0.379-0.379,0.995-0.379,1.374,0
		l0.887,0.887C26.749,23.389,26.749,24.003,26.369,24.383z M27.731,20.693c-1.664-1.189-2.819-3.598-1-5.675
		c1.82-2.077,3.413-1.429,5.011,0.072c0.997,0.935,2.448,2.075,1.423,4.026C32.136,21.066,29.395,21.882,27.731,20.693z"/>
	<path style="fill:#F4EFF6;" d="M30.408,18.315c0.642,0.767,2.693,0.204,1.309-1.329C30.965,16.155,29.767,17.548,30.408,18.315z"/>
</g>
</svg>
