<?xml version="1.0" encoding="iso-8859-1"?>
<!-- Generator: Adobe Illustrator 22.1.0, SVG Export Plug-In . SVG Version: 6.00 Build 0)  -->
<svg version="1.1" id="Layer_1" xmlns="http://www.w3.org/2000/svg" xmlns:xlink="http://www.w3.org/1999/xlink" x="0px" y="0px"
	 viewBox="0 0 45.936 53.045" style="enable-background:new 0 0 45.936 53.045;" xml:space="preserve">
<g id="hex-moleculer_x60_46x54">
	<linearGradient id="SVGID_1_" gradientUnits="userSpaceOnUse" x1="5.0097" y1="8.5642" x2="39.6002" y2="43.1547">
		<stop  offset="0" style="stop-color:#B76A89"/>
		<stop  offset="1" style="stop-color:#5F4F93"/>
	</linearGradient>
	<polygon style="fill:url(#SVGID_1_);" points="45.936,39.784 22.965,53.045 0,39.784 0,13.261 22.965,0 45.936,13.261 	"/>
	<polygon style="fill:#594D8E;" points="8.963,31.941 24.406,52.213 45.936,39.784 45.936,34.613 28.849,13.689 22.968,22.172 
		18.819,26.689 	"/>
	<path id="molecule" style="fill:#77E5F7;" d="M31.435,29.125c-1.23,0-2.358,0.433-3.242,1.154l-2.885-2.338
		c0.51-0.693,0.812-1.549,0.812-2.475c0-1.43-0.719-2.692-1.814-3.445l1.435-3.447c0.201,0.041,0.41,0.063,0.624,0.063
		c1.699,0,3.075-1.377,3.075-3.075s-1.377-3.075-3.075-3.075c-1.699,0-3.075,1.377-3.075,3.075c0,1.176,0.66,2.197,1.63,2.715
		l-1.693,3.213c-0.405-0.131-0.837-0.202-1.285-0.202c-2.308,0-4.18,1.871-4.18,4.18c0,0.306,0.034,0.603,0.096,0.89
		c-1.631,0.597-2.686,0.983-3.368,1.232c-0.627-0.995-1.735-1.657-2.998-1.657c-1.956,0-3.541,1.585-3.541,3.541
		c0,1.956,1.585,3.541,3.541,3.541c1.956,0,3.541-1.585,3.541-3.541c0-0.26-0.029-0.514-0.082-0.758l3.232-1.419
		c0.679,1.391,2.106,2.35,3.758,2.35c0.956,0,1.837-0.322,2.541-0.862c0.501,0.477,1.333,1.269,2.713,2.582
		c-0.563,0.824-0.893,1.82-0.893,2.893c0,2.835,2.298,5.134,5.134,5.134s5.134-2.298,5.134-5.134S34.27,29.125,31.435,29.125z"/>
</g>
</svg>
