<?xml version="1.0" encoding="iso-8859-1"?>
<!-- Generator: Adobe Illustrator 22.1.0, SVG Export Plug-In . SVG Version: 6.00 Build 0)  -->
<svg version="1.1" id="Layer_1" xmlns="http://www.w3.org/2000/svg" xmlns:xlink="http://www.w3.org/1999/xlink" x="0px" y="0px"
	 viewBox="0 0 69.905 80.744" style="enable-background:new 0 0 69.905 80.744;" xml:space="preserve">
<g id="services-bundle_x60_70x81">
	<polygon style="fill:#4D9AE8;" points="26.214,5.046 34.953,10.091 34.953,20.181 26.214,15.135 	"/>
	<polygon style="fill:#418FDE;" points="43.691,5.046 34.953,10.091 34.953,20.181 43.691,15.135 	"/>
	<polygon style="fill:#589FE8;" points="34.953,0 43.691,5.046 34.953,10.091 26.214,5.046 	"/>
	<polygon style="fill:#4D9AE8;" points="39.322,12.641 48.06,17.687 48.06,27.777 39.322,22.731 	"/>
	<polygon style="fill:#418FDE;" points="56.798,12.641 48.06,17.687 48.06,27.777 56.798,22.731 	"/>
	<polygon style="fill:#589FE8;" points="48.06,7.596 56.798,12.641 48.06,17.687 39.322,12.641 	"/>
	<polygon style="fill:#4D9AE8;" points="13.107,12.614 21.845,17.659 21.845,27.749 13.107,22.704 	"/>
	<polygon style="fill:#418FDE;" points="30.584,12.614 21.845,17.659 21.845,27.749 30.584,22.704 	"/>
	<polygon style="fill:#589FE8;" points="21.845,7.568 30.584,12.614 21.845,17.659 13.107,12.614 	"/>
	<polygon style="fill:#4D9AE8;" points="26.214,20.21 34.953,25.255 34.953,35.345 26.214,30.299 	"/>
	<polygon style="fill:#418FDE;" points="43.691,20.21 34.953,25.255 34.953,35.345 43.691,30.299 	"/>
	<polygon style="fill:#589FE8;" points="34.953,15.164 43.691,20.21 34.953,25.255 26.214,20.21 	"/>
	<polygon style="fill:#4D9AE8;" points="0,50.418 8.738,55.463 8.738,65.553 0,60.508 	"/>
	<polygon style="fill:#418FDE;" points="17.476,50.418 8.738,55.463 8.738,65.553 17.476,60.508 	"/>
	<polygon style="fill:#589FE8;" points="8.738,45.372 17.476,50.418 8.738,55.463 0,50.418 	"/>
	<polygon style="fill:#4D9AE8;" points="0,35.3 8.738,40.345 8.738,50.435 0,45.39 	"/>
	<polygon style="fill:#418FDE;" points="17.476,35.3 8.738,40.345 8.738,50.435 17.476,45.39 	"/>
	<polygon style="fill:#589FE8;" points="8.738,30.254 17.476,35.3 8.738,40.345 0,35.3 	"/>
	<polygon style="fill:#4D9AE8;" points="0,20.182 8.738,25.228 8.738,35.318 0,30.272 	"/>
	<polygon style="fill:#418FDE;" points="17.476,20.182 8.738,25.228 8.738,35.318 17.476,30.272 	"/>
	<polygon style="fill:#589FE8;" points="8.738,15.137 17.476,20.182 8.738,25.228 0,20.182 	"/>
	<polygon style="fill:#4D9AE8;" points="13.107,58.013 21.845,63.059 21.845,73.149 13.107,68.103 	"/>
	<polygon style="fill:#418FDE;" points="30.584,58.013 21.845,63.059 21.845,73.149 30.584,68.103 	"/>
	<polygon style="fill:#589FE8;" points="21.845,52.968 30.584,58.013 21.845,63.059 13.107,58.013 	"/>
	<polygon style="fill:#4D9AE8;" points="13.107,42.896 21.845,47.941 21.845,58.031 13.107,52.985 	"/>
	<polygon style="fill:#418FDE;" points="30.584,42.896 21.845,47.941 21.845,58.031 30.584,52.985 	"/>
	<polygon style="fill:#589FE8;" points="21.845,37.85 30.584,42.896 21.845,47.941 13.107,42.896 	"/>
	<polygon style="fill:#4D9AE8;" points="13.107,27.778 21.845,32.823 21.845,42.913 13.107,37.868 	"/>
	<polygon style="fill:#418FDE;" points="30.584,27.778 21.845,32.823 21.845,42.913 30.584,37.868 	"/>
	<polygon style="fill:#589FE8;" points="21.845,22.732 30.584,27.778 21.845,32.823 13.107,27.778 	"/>
	<polygon style="fill:#4D9AE8;" points="69.905,50.418 61.167,55.463 61.167,65.553 69.905,60.508 	"/>
	<polygon style="fill:#418FDE;" points="52.429,50.418 61.167,55.463 61.167,65.553 52.429,60.508 	"/>
	<polygon style="fill:#589FE8;" points="61.167,45.372 52.429,50.418 61.167,55.463 69.905,50.418 	"/>
	<polygon style="fill:#4D9AE8;" points="69.905,35.3 61.167,40.345 61.167,50.435 69.905,45.39 	"/>
	<polygon style="fill:#418FDE;" points="52.429,35.3 61.167,40.345 61.167,50.435 52.429,45.39 	"/>
	<polygon style="fill:#589FE8;" points="61.167,30.254 52.429,35.3 61.167,40.345 69.905,35.3 	"/>
	<polygon style="fill:#4D9AE8;" points="69.905,20.182 61.167,25.228 61.167,35.318 69.905,30.272 	"/>
	<polygon style="fill:#418FDE;" points="52.429,20.182 61.167,25.228 61.167,35.318 52.429,30.272 	"/>
	<polygon style="fill:#589FE8;" points="61.167,15.137 52.429,20.182 61.167,25.228 69.905,20.182 	"/>
	<polygon style="fill:#4D9AE8;" points="56.798,58.013 48.06,63.059 48.06,73.149 56.798,68.103 	"/>
	<polygon style="fill:#418FDE;" points="39.322,58.013 48.06,63.059 48.06,73.149 39.322,68.103 	"/>
	<polygon style="fill:#589FE8;" points="48.06,52.968 39.322,58.013 48.06,63.059 56.798,58.013 	"/>
	<polygon style="fill:#4D9AE8;" points="56.798,42.896 48.06,47.941 48.06,58.031 56.798,52.985 	"/>
	<polygon style="fill:#418FDE;" points="39.322,42.896 48.06,47.941 48.06,58.031 39.322,52.985 	"/>
	<polygon style="fill:#589FE8;" points="48.06,37.85 39.322,42.896 48.06,47.941 56.798,42.896 	"/>
	<polygon style="fill:#4D9AE8;" points="56.798,27.778 48.06,32.823 48.06,42.913 56.798,37.868 	"/>
	<polygon style="fill:#418FDE;" points="39.322,27.778 48.06,32.823 48.06,42.913 39.322,37.868 	"/>
	<polygon style="fill:#589FE8;" points="48.06,22.732 39.322,27.778 48.06,32.823 56.798,27.778 	"/>
	<polygon style="fill:#4D9AE8;" points="26.214,65.609 34.953,70.654 34.953,80.744 26.214,75.699 	"/>
	<polygon style="fill:#418FDE;" points="43.691,65.609 34.953,70.654 34.953,80.744 43.691,75.699 	"/>
	<polygon style="fill:#589FE8;" points="34.953,60.563 43.691,65.609 34.953,70.654 26.214,65.609 	"/>
	<polygon style="fill:#4D9AE8;" points="26.214,50.491 34.953,55.537 34.953,65.627 26.214,60.581 	"/>
	<polygon style="fill:#418FDE;" points="43.691,50.491 34.953,55.537 34.953,65.627 43.691,60.581 	"/>
	<polygon style="fill:#589FE8;" points="34.953,45.446 43.691,50.491 34.953,55.537 26.214,50.491 	"/>
	<polygon style="fill:#4D9AE8;" points="26.214,35.373 34.953,40.419 34.953,50.509 26.214,45.463 	"/>
	<polygon style="fill:#418FDE;" points="43.691,35.373 34.953,40.419 34.953,50.509 43.691,45.463 	"/>
	<polygon style="fill:#589FE8;" points="34.953,30.328 43.691,35.373 34.953,40.419 26.214,35.373 	"/>
</g>
</svg>
