<?xml version="1.0" encoding="iso-8859-1"?>
<!-- Generator: Adobe Illustrator 22.1.0, SVG Export Plug-In . SVG Version: 6.00 Build 0)  -->
<svg version="1.1" id="Layer_1" xmlns="http://www.w3.org/2000/svg" xmlns:xlink="http://www.w3.org/1999/xlink" x="0px" y="0px"
	 viewBox="0 0 46.894 54.148" style="enable-background:new 0 0 46.894 54.148;" xml:space="preserve">
<g id="hex-rabbitmq_x60_47x55">
	<polygon style="fill:#FF6600;" points="46.894,40.611 23.448,54.148 0,40.611 0,13.537 23.448,0 46.894,13.537 	"/>
	<polygon style="fill:#D84800;" points="46.893,40.611 46.893,33.804 26.506,13.417 24.148,20.5 17.064,13.417 12.564,38.667 
		26.362,52.465 	"/>
	<path id="Shape" style="fill:#FFFFFF;" d="M35.543,23.494h-7.698c-0.616-0.073-1.084-0.616-1.084-1.254v-8.078
		c0-0.689-0.559-1.243-1.242-1.243h-2.694c-0.689,0-1.242,0.559-1.242,1.243v8.163c-0.034,0.616-0.542,1.113-1.152,1.169h-2.016
		c-0.593-0.073-1.05-0.571-1.09-1.169v-8.163c0-0.689-0.559-1.243-1.243-1.243h-2.694c-0.689,0-1.242,0.559-1.242,1.243v10.575
		v12.998c0,0.689,0.559,1.243,1.242,1.243h2.694h6.743h2.694h10.03c0.689,0,1.243-0.559,1.243-1.243V24.737
		C36.785,24.048,36.232,23.494,35.543,23.494z M31.996,32.408c0,0.689-0.559,1.243-1.243,1.243H28.06
		c-0.689,0-1.243-0.559-1.243-1.243v-2.542c0-0.689,0.559-1.243,1.243-1.243h2.694c0.689,0,1.243,0.559,1.243,1.243V32.408z"/>
</g>
</svg>
