<?xml version="1.0" encoding="iso-8859-1"?>
<!-- Generator: Adobe Illustrator 22.1.0, SVG Export Plug-In . SVG Version: 6.00 Build 0)  -->
<svg version="1.1" id="Layer_1" xmlns="http://www.w3.org/2000/svg" xmlns:xlink="http://www.w3.org/1999/xlink" x="0px" y="0px"
	 viewBox="0 0 46.956 54.221" style="enable-background:new 0 0 46.956 54.221;" xml:space="preserve">
<g id="hex-erlang_x60_47x55">
	<polygon style="fill:#EF454E;" points="46.956,40.666 23.478,54.221 0,40.666 0,13.555 23.478,0 46.956,13.555 	"/>
	<path style="fill:#FFFFFF;" d="M9.526,26.947c0,4.836,2.031,7.946,4.811,9.831h17.62c2.835-2,3.7-4.484,3.7-4.484l-4.262-2.161
		c0,0-2.675,4.77-6.63,4.77c-3.956,0-6.05-4.42-6.05-7.794c0-0.305,0.002-0.593,0.004-0.868h16.306V24.93l-0.023-0.036
		c-0.009-4.769-1.769-7.429-4.396-8.88H15.21C11.95,17.798,9.526,21.196,9.526,26.947z M22.543,18.321
		c4.286,0,3.883,3.683,3.883,3.683H18.92C19.022,21.565,19.861,18.321,22.543,18.321z"/>
</g>
</svg>
