<?xml version="1.0" encoding="iso-8859-1"?>
<!-- Generator: Adobe Illustrator 22.1.0, SVG Export Plug-In . SVG Version: 6.00 Build 0)  -->
<svg version="1.1" id="Layer_1" xmlns="http://www.w3.org/2000/svg" xmlns:xlink="http://www.w3.org/1999/xlink" x="0px" y="0px"
	 viewBox="0 0 46.6 53.7" style="enable-background:new 0 0 46.6 53.7;" xml:space="preserve">
<g id="hex-mongo_x60_47x54">
	<polygon id="_x3E_bg_1_" style="fill:#5ECC81;" points="46.5,40.3 23.2,53.7 0,40.3 0,13.4 23.2,0 46.5,13.4 	"/>
	<polyline style="fill:#32B873;" points="23.2,45.5 28.406,50.706 46.5,40.3 46.6,40.3 23.2,9.3 	"/>
	<line style="fill:none;stroke:#FFE99E;stroke-miterlimit:10;" x1="23.2" y1="38.749" x2="23.2" y2="45.5"/>
	<path style="fill:#1F8B35;" d="M23.2,9.3v32c0,0,8.6-3.6,8.6-15.8C31.8,17.967,23.2,9.3,23.2,9.3z"/>
	<path style="fill:#2BA240;" d="M23.2,9.3v32c0,0-8.6-3.6-8.6-15.8C14.6,17.967,23.2,9.3,23.2,9.3z"/>
	<path style="fill:none;stroke:#FFE99E;stroke-miterlimit:10;" d="M23.2,45.5"/>
</g>
</svg>
