<?xml version="1.0" encoding="iso-8859-1"?>
<!-- Generator: Adobe Illustrator 22.1.0, SVG Export Plug-In . SVG Version: 6.00 Build 0)  -->
<svg version="1.1" id="Layer_1" xmlns="http://www.w3.org/2000/svg" xmlns:xlink="http://www.w3.org/1999/xlink" x="0px" y="0px"
	 viewBox="0 0 46.5 53.7" style="enable-background:new 0 0 46.5 53.7;" xml:space="preserve">
<g id="hex-redis_x60_47x54">
	<polygon id="_x3E_bg_11_" style="fill:#DB2317;" points="46.5,40.3 23.2,53.7 0,40.3 0,13.4 23.2,0 46.5,13.4 	"/>
	<polygon style="fill:#AB1B12;" points="23.1,44.5 6.3,35.3 6.3,31.3 23.1,40.5 	"/>
	<polygon style="fill:#FF3226;" points="6.3,31.3 23.1,40.5 41.1,31.2 24.4,22 	"/>
	<polygon style="fill:#AB1B12;" points="23.1,44.5 41.1,35.1 41.1,31.2 23.1,40.5 	"/>
	<polygon style="fill:#AB1B12;" points="23.1,38.1 6.3,28.9 6.3,25 23.1,34.2 	"/>
	<polygon style="fill:#FF3226;" points="6.3,25 23.1,34.2 41.1,24.8 24.4,15.6 	"/>
	<polygon style="fill:#AB1B12;" points="23.1,38.1 41.1,28.8 41.1,24.8 23.1,34.2 	"/>
	<polygon style="fill:#AB1B12;" points="23.1,31.8 6.3,22.6 6.3,18.6 23.1,27.8 	"/>
	<polygon style="fill:#FF3226;" points="6.3,18.6 23.1,27.8 41.1,18.5 24.4,9.3 	"/>
	<path style="fill:#FFFEFD;" d="M18.011,19.709c-1.419,0.752-3.118,0.752-4.536,0c-1.254-0.729-1.254-1.969,0-2.72
		c1.419-0.752,3.118-0.752,4.536,0C19.266,17.739,19.266,18.957,18.011,19.709z"/>
	<polygon style="fill:#FFFEFD;" points="26.296,12.59 24.976,14.136 27.026,15.369 24.262,15.034 23,16.558 22.57,14.822 
		19.718,14.545 22.205,13.808 21.658,12.145 23.707,13.378 	"/>
	<polygon style="fill:#FFFEFD;" points="26.027,21.269 19.718,22.283 24.335,25.055 	"/>
	<polygon style="fill:#AB1B12;" points="23.1,31.8 41.1,22.4 41.1,18.5 23.1,27.8 	"/>
	<polygon style="fill:#AB1B12;" points="30.415,20.418 26.177,18.345 30.415,16.271 34.66,18.345 	"/>
</g>
</svg>
