<?xml version="1.0" encoding="iso-8859-1"?>
<!-- Generator: Adobe Illustrator 22.1.0, SVG Export Plug-In . SVG Version: 6.00 Build 0)  -->
<svg version="1.1" id="Layer_1" xmlns="http://www.w3.org/2000/svg" xmlns:xlink="http://www.w3.org/1999/xlink" x="0px" y="0px"
	 viewBox="0 0 46.5 53.7" style="enable-background:new 0 0 46.5 53.7;" xml:space="preserve">
<g id="hex-memcached_x60_47x54">
	<polygon id="_x3E_bg_3_" style="fill:#A1CCCC;" points="46.5,40.3 23.2,53.7 0,40.3 0,13.4 23.2,0 46.5,13.4 	"/>
	<path style="fill:#FFFFFF;" d="M23.167,42.894c10.21,0,13.757-7.354,13.757-12.2c0-4.932-1.211-12.113-7.874-18.689
		c0,4.586-0.087,10.469-5.451,10.469"/>
	<path style="fill:#FFFFFF;" d="M24.033,42.894c-10.21,0-13.757-7.354-13.757-12.2c0-4.932,1.211-12.113,7.874-18.689
		c0,4.586,0.087,10.469,5.451,10.469"/>
	<g>
		<circle style="fill:#FFFFFF;" cx="31.214" cy="30.262" r="3.028"/>
	</g>
	<g>
		<path style="fill:#FFA3A9;" d="M31.214,27.493c1.471,0,2.682,1.211,2.682,2.682s-1.211,2.682-2.682,2.682
			s-2.682-1.211-2.682-2.682C28.532,28.705,29.657,27.493,31.214,27.493 M31.214,26.628c-1.99,0-3.547,1.557-3.547,3.547
			s1.557,3.547,3.547,3.547s3.547-1.557,3.547-3.547C34.761,28.272,33.117,26.628,31.214,26.628L31.214,26.628z"/>
	</g>
	<g>
		<polyline style="fill:none;stroke:#C4C9C9;stroke-width:2;stroke-miterlimit:10;" points="23.687,32.771 23.687,37.963 
			20.658,40.904 		"/>
		<line style="fill:none;stroke:#C4C9C9;stroke-width:2;stroke-miterlimit:10;" x1="27.147" y1="40.818" x2="24.033" y2="37.616"/>
	</g>
	<g>
		
			<ellipse transform="matrix(0.1602 -0.9871 0.9871 0.1602 -15.6464 42.1339)" style="fill:#FFFFFF;" cx="16.938" cy="30.262" rx="3.028" ry="3.028"/>
	</g>
	<polygon style="fill:#ABB0B0;" points="25.763,32.079 24.033,33.723 22.389,32.079 	"/>
	<g>
		<path style="fill:#FFA3A9;" d="M16.938,27.493c1.471,0,2.682,1.211,2.682,2.682s-1.211,2.682-2.682,2.682
			s-2.682-1.211-2.682-2.682C14.256,28.705,15.467,27.493,16.938,27.493 M16.938,26.628c-1.99,0-3.547,1.557-3.547,3.547
			s1.557,3.547,3.547,3.547s3.547-1.557,3.547-3.547C20.485,28.272,18.928,26.628,16.938,26.628L16.938,26.628z"/>
	</g>
</g>
</svg>
