<?xml version="1.0" encoding="iso-8859-1"?>
<!-- Generator: Adobe Illustrator 22.1.0, SVG Export Plug-In . SVG Version: 6.00 Build 0)  -->
<svg version="1.1" id="Layer_1" xmlns="http://www.w3.org/2000/svg" xmlns:xlink="http://www.w3.org/1999/xlink" x="0px" y="0px"
	 viewBox="0 0 45.936 53.045" style="enable-background:new 0 0 45.936 53.045;" xml:space="preserve">
<g id="hex-cakephp_x60_46x54">
	<polygon style="fill:#D43D44;" points="45.936,39.784 22.965,53.045 0,39.784 0,13.261 22.965,0 45.936,13.261 	"/>
	<polygon style="fill:#B03238;" points="36.631,17.984 45.936,27.29 45.908,39.784 26.147,51.182 8.802,33.838 7.98,30.05 
		7.98,20.55 	"/>
	<path style="fill:#FFFFFF;" d="M22.42,23.323l11.299,2.806c1.966-0.768,3.148-1.746,3.148-2.806v-4.512
		c0-2.488-6.468-4.508-14.447-4.508c-7.975,0-14.44,2.02-14.44,4.508v4.512c0,2.488,6.465,4.507,14.44,4.507L22.42,23.323
		L22.42,23.323z"/>
	<path style="fill:#FFFFFF;" d="M33.719,30.637L22.421,27.83v4.508l11.299,2.807c1.966-0.771,3.148-1.745,3.148-2.807
		c0-0.958,0-3.552,0-4.508C36.867,28.892,35.685,29.866,33.719,30.637z"/>
	<path style="fill:#FFFFFF;" d="M7.98,27.83c0,0.957,0,3.55,0,4.508c0,2.489,6.465,4.506,14.44,4.506v-4.506
		C14.445,32.338,7.98,30.317,7.98,27.83z"/>
</g>
</svg>
