<?xml version="1.0" encoding="iso-8859-1"?>
<!-- Generator: Adobe Illustrator 22.1.0, SVG Export Plug-In . SVG Version: 6.00 Build 0)  -->
<svg version="1.1" id="Layer_1" xmlns="http://www.w3.org/2000/svg" xmlns:xlink="http://www.w3.org/1999/xlink" x="0px" y="0px"
	 viewBox="0 0 45.854 52.951" style="enable-background:new 0 0 45.854 52.951;" xml:space="preserve">
<g id="hex-beego_x60_46x53">
	<polygon style="fill:#F04C5C;" points="45.854,39.713 22.924,52.951 0,39.713 0,13.238 22.924,0 45.854,13.238 	"/>
	<polygon style="fill:#C4314A;" points="37.95,18.09 34.405,20.135 23.661,9.257 21.956,13.994 25.866,17.956 17.552,17.873 
		12.424,27.084 15.866,33.258 15.328,38.425 27.245,50.483 45.854,39.713 45.854,26.232 	"/>
	<path style="fill:#FFFFFF;" d="M16.187,38.688c-0.641,0.002-1.174-0.495-1.218-1.135l-0.276-3.898l-3.526-6.09
		c-0.218-0.377-0.218-0.841,0-1.218l5.308-9.206c0.21-0.39,0.615-0.636,1.058-0.641h10.603c0.443,0.005,0.848,0.251,1.058,0.641
		l5.302,9.186c0.218,0.377,0.218,0.841,0,1.218l-5.302,9.186c-0.21,0.39-0.615,0.636-1.058,0.641h-7.885l-3.667,1.282
		C16.454,38.688,16.32,38.699,16.187,38.688z M13.629,26.924l3.314,5.769c0.093,0.161,0.148,0.341,0.16,0.526l0.179,2.564
		l2.359-0.821c0.128-0.045,0.262-0.069,0.397-0.071h7.391l4.622-7.968l-4.622-7.955h-9.199L13.629,26.924z"/>
	<path style="fill:#FFFFFF;" d="M22.527,9.135h0.609c0.531,0,0.962,0.431,0.962,0.962v3.148c0,0.531-0.431,0.962-0.962,0.962h-0.609
		c-0.531,0-0.962-0.431-0.962-0.962v-3.148C21.565,9.566,21.996,9.135,22.527,9.135z"/>
	<path style="fill:#FFFFFF;" d="M38.136,18.322l0.305,0.527c0.266,0.46,0.108,1.048-0.352,1.314l-2.726,1.574
		c-0.46,0.266-1.048,0.108-1.314-0.352l-0.305-0.527c-0.266-0.46-0.108-1.048,0.352-1.314l2.726-1.574
		C37.283,17.705,37.871,17.862,38.136,18.322z"/>
</g>
</svg>
