<?xml version="1.0" encoding="iso-8859-1"?>
<!-- Generator: Adobe Illustrator 22.1.0, SVG Export Plug-In . SVG Version: 6.00 Build 0)  -->
<svg version="1.1" id="Layer_1" xmlns="http://www.w3.org/2000/svg" xmlns:xlink="http://www.w3.org/1999/xlink" x="0px" y="0px"
	 viewBox="0 0 46.604 53.814" style="enable-background:new 0 0 46.604 53.814;" xml:space="preserve">
<g id="hex-tolmar_x60_47x54">
	<polygon style="fill:#1CC0FF;" points="46.604,40.36 23.301,51.814 0,40.36 0,13.455 23.301,0 46.604,13.455 	"/>
	<polyline style="fill:none;" points="23.301,51.814 0,40.36 0,13.455 23.301,0 46.604,13.455 	"/>
	<g>
		<g id="leaf">
			<path style="fill:#FFFFFF;" d="M40.309,18.015c-7.742,0-13.515,8.182-10.846,14.059C40.42,32.074,35.96,21.96,40.309,18.015z"/>
		</g>
		<path style="fill:#FFE570;" d="M23.301,53.814L46.604,40.36c-2.715-1.24-2.715-1.24-3.726-1.5
			c-5.335-1.372-12.467-2.654-19.374-3.057c-4.394-0.257-16.198,1.589-23.442,4.593L23.301,53.814z"/>
		<path style="fill:#FF6759;" d="M0,40.36l11.518,6.65c6.914-1.074,12.533-8.735,12.533-18.151c0-10.422-6.878-12.519-10.693-12.519
			c-4.789,0-9.583,1.813-13.358,5.005V40.36z"/>
		<path id="eye_rim" style="fill:#FFE570;" d="M8.198,27.492c0,2.812,2.279,5.091,5.091,5.091c2.812,0,5.091-2.28,5.091-5.091
			c0-2.812-2.279-5.091-5.091-5.091C10.477,22.401,8.198,24.68,8.198,27.492z"/>
		<path id="eye" style="fill:#543729;" d="M10.241,27.492c0,1.683,1.365,3.048,3.048,3.048s3.048-1.365,3.048-3.048
			c0-1.683-1.365-3.048-3.048-3.048C11.606,24.444,10.241,25.809,10.241,27.492z"/>
		<ellipse id="pupil_highlight" style="fill:#FFFFFF;" cx="13.289" cy="26.14" rx="1.776" ry="1.104"/>
		<path id="beak" style="fill:#CECECE;" d="M23.733,24.884c-2.314,1.348-2.238,5.711-1.209,7.84
			c1.991-0.738,4.766-2.202,5.197-2.464c0.431-0.262-0.238-1.254,1.434-1.254c2.319,0,4.416,0.725,5.017,0.986
			C33.79,29.207,29.024,24.884,23.733,24.884z"/>
		<g>
			<path style="fill:#543729;" d="M0,22.142c3.574-3.348,8.256-5.341,13.358-5.341c6.316,0,9.169,4.971,9.755,6.854
				c-3.81,3.862-2.306,8.747-0.918,10.955c-1.974,3.283-5.853,5.529-10.36,6.551c5.06,0,8.036-1.302,9.767-2.578
				c1.105-0.814,1.704-1.617,2.01-2.065c7.502,0.485,19.38,2.902,20.539,3.685c0.326,0.22,0.652,0.632,0.846,1.085l1.608-0.929
				v-1.885c-4.8-2.352-17.143-3.83-21.36-4.296c0.23-0.543,0.425-1.104,0.587-1.681c0.647-0.283,1.344-0.547,2.066-0.767
				c0.088,0.259,0.502,1.253,0.738,1.725c9.537,0.263,10.027-7.087,10.415-9.101c0.379-1.969,0.36-3.872,3.631-7.35
				c-4.874-1.42-11.882,2.201-14.23,7.591c-0.882-0.331-1.766-0.575-2.641-0.726c-0.626-2.528-3.89-9.571-12.453-9.571
				C8.642,14.3,3.901,15.969,0,18.919V22.142z M29.623,31.85c-0.322-0.698-0.648-1.857-0.608-2.539
				c0.543-0.013,1.583,0.191,1.75,0.23c-0.064,0.32-0.098,1.021-0.099,1.112c0.103-0.178,0.389-0.79,0.506-1.031
				c1.042,0.199,2.411,0.532,3.214,0.906C33.444,31.139,31.841,31.803,29.623,31.85z M39.906,18.307
				c-2.92,2.648-1.824,7.934-4.284,11.066l-0.731-0.682c-0.75-0.703-1.533-1.339-2.336-1.904c1.197-2.374,2.7-4.967,4.6-6.571
				c-2.09,0.843-4.155,3.361-5.375,6.053c-0.622-0.395-1.253-0.748-1.89-1.056C31.591,21.579,35.546,18.544,39.906,18.307z
				 M33.555,29.596c-1.463-0.575-3.32-0.938-4.621-0.938c-1.845,0-2.969,1.046-4.705,1.046c-0.365,0-1.234,0.002-1.932-0.247
				c0.459,0.481,1.03,0.743,2.137,0.743c0.661,0,1.971-0.338,3.031-0.657c0.015,0.223,0.038,0.445,0.07,0.665
				c-1.986,0.475-4.071,1.739-4.674,2.067c-1.342-2.963-0.188-5.765,0.879-7.058C28.519,25.228,32.378,28.509,33.555,29.596z"/>
		</g>
	</g>
</g>
</svg>
