<?xml version="1.0" encoding="iso-8859-1"?>
<!-- Generator: Adobe Illustrator 22.1.0, SVG Export Plug-In . SVG Version: 6.00 Build 0)  -->
<svg version="1.1" id="Layer_1" xmlns="http://www.w3.org/2000/svg" xmlns:xlink="http://www.w3.org/1999/xlink" x="0px" y="0px"
	 viewBox="0 0 46.358 53.533" style="enable-background:new 0 0 46.358 53.533;" xml:space="preserve">
<g id="hex-ember_x60_47x54">
	<polygon style="fill:#EB5D42;" points="46.358,40.15 23.176,53.533 0,40.15 0,13.383 23.176,0 46.358,13.383 	"/>
	<polygon style="fill:#C23E26;" points="8.438,30.091 28.737,50.318 46.358,40.15 46.358,32.029 30.545,16.008 21.238,18.361 
		18.957,30.299 	"/>
	<path style="fill:#FFFFFF;" d="M34.058,30.843c-0.57-0.81-1.147-0.084-2.003,0.454c-1.944,1.218-4.537,2.515-7.174,2.554
		c-3.798,0.052-3.415-2.411-3.415-2.411s13.928-4.77,10.13-14.18c-1.705-2.424-3.688-3.182-6.481-3.13s-6.209,1.769-8.464,6.831
		c-0.859,2.054-1.401,4.226-1.607,6.442l0,0c0,0-2.521,0.499-3.843-0.603c-1.322-1.102-2.042,0-2.042,0s-2.288,2.852,0,3.733
		c1.855,0.609,3.769,1.019,5.71,1.225l0,0c0.534,2.511,1.959,4.745,4.012,6.287c2.314,1.756,5.833,1.491,8.425,0.862
		c2.395-0.686,4.59-1.939,6.397-3.655C34.349,34.518,34.621,31.653,34.058,30.843z M20.804,27.22
		c0.162-6.585,4.472-9.443,5.943-8.01c1.471,1.432,0.933,4.537-1.873,6.442C22.068,27.557,20.804,27.22,20.804,27.22z"/>
</g>
</svg>
