<?xml version="1.0" encoding="iso-8859-1"?>
<!-- Generator: Adobe Illustrator 22.1.0, SVG Export Plug-In . SVG Version: 6.00 Build 0)  -->
<svg version="1.1" id="Layer_1" xmlns="http://www.w3.org/2000/svg" xmlns:xlink="http://www.w3.org/1999/xlink" x="0px" y="0px"
	 viewBox="0 0 45.936 53.045" style="enable-background:new 0 0 45.936 53.045;" xml:space="preserve">
<g id="hex-zf_x60_46x54">
	<polygon style="fill:#68B604;" points="45.936,39.784 22.965,53.045 0,39.784 0,13.261 22.965,0 45.936,13.261 	"/>
	<polygon style="fill:#499914;" points="40.63,18.571 28.051,22.55 22.977,18.34 7.802,21.924 12.509,26.717 6.49,34.756 
		23.9,52.505 45.936,39.784 45.936,23.806 	"/>
	<path style="fill:#F7FAFC;" d="M22.548,23.081c0,0,0-4.521,4.522-4.521h13.564c0,0,0,4.521-4.521,4.521H22.548z"/>
	<path style="fill:#F7FAFC;" d="M22.548,28.859c0,0,0-4.521,4.522-4.521h6.782c0,0,0,4.521-4.521,4.521H22.548z"/>
	<path style="fill:#F7FAFC;" d="M22.548,34.636c0,0,0-4.521,4.522-4.521h2.261c0,0,0,4.521-4.521,4.521H22.548z"/>
	<polygon style="fill:#F7FAFC;" points="21.03,31.108 21.03,34.714 6.49,34.714 15.857,21.938 7.816,21.938 7.816,18.331 
		22.985,18.331 13.661,31.108 	"/>
</g>
</svg>
