<?xml version="1.0" encoding="iso-8859-1"?>
<!-- Generator: Adobe Illustrator 22.1.0, SVG Export Plug-In . SVG Version: 6.00 Build 0)  -->
<svg version="1.1" id="Layer_1" xmlns="http://www.w3.org/2000/svg" xmlns:xlink="http://www.w3.org/1999/xlink" x="0px" y="0px"
	 viewBox="0 0 46.5 53.7" style="enable-background:new 0 0 46.5 53.7;" xml:space="preserve">
<g id="hex-storage_x60_47x54">
	<polygon id="_x3E_bg_5_" style="fill:#DFDFDF;" points="46.5,40.3 23.2,53.7 0,40.3 0,13.4 23.2,0 46.5,13.4 	"/>
	<polygon style="fill:#4A81AB;" points="34.1,36.1 34.1,32.3 23.1,40.4 23.1,44.5 	"/>
	<polyline style="fill:#5EA5DB;" points="23.1,40.4 8.1,29.4 8.1,33.7 23,44.7 	"/>
	<polygon style="fill:#FFFFFF;" points="19.6,22.1 8.5,29.4 23.4,40.5 34.1,32.3 	"/>
	<polygon style="fill:#AAC1D6;" points="14,25.8 28.4,36.7 34.1,32.3 19.6,21.2 	"/>
	<polygon style="fill:#4A81AB;" points="37.1,25 37.1,21.2 27.1,29 27.1,33.1 	"/>
	<polyline style="fill:#5EA5DB;" points="27,29 12.1,18 12.1,22.3 27,33.3 	"/>
	<polygon style="fill:#FFFFFF;" points="22.8,11 12.2,18 27.1,29.1 37.3,21.2 	"/>
	<g>
		<g>
			<line style="fill:none;stroke:#5EA5DB;stroke-width:2;stroke-miterlimit:10;" x1="33.9" y1="5.4" x2="32.6" y2="6.2"/>
			
				<line style="fill:none;stroke:#5EA5DB;stroke-width:2;stroke-miterlimit:10;stroke-dasharray:3.5807,2.3871;" x1="30.6" y1="7.5" x2="26.7" y2="10.2"/>
			<line style="fill:none;stroke:#5EA5DB;stroke-width:2;stroke-miterlimit:10;" x1="25.7" y1="10.9" x2="24.5" y2="11.7"/>
		</g>
	</g>
	<g>
		<g>
			<line style="fill:none;stroke:#5EA5DB;stroke-width:2;stroke-miterlimit:10;" x1="38.7" y1="8.5" x2="37.5" y2="9.3"/>
			
				<line style="fill:none;stroke:#5EA5DB;stroke-width:2;stroke-miterlimit:10;stroke-dasharray:3.5807,2.3871;" x1="35.5" y1="10.7" x2="31.5" y2="13.3"/>
			<line style="fill:none;stroke:#5EA5DB;stroke-width:2;stroke-miterlimit:10;" x1="30.5" y1="14" x2="29.3" y2="14.8"/>
		</g>
	</g>
	<g>
		<g>
			<line style="fill:none;stroke:#5EA5DB;stroke-width:2;stroke-miterlimit:10;" x1="43.5" y1="11.6" x2="42.3" y2="12.4"/>
			
				<line style="fill:none;stroke:#5EA5DB;stroke-width:2;stroke-miterlimit:10;stroke-dasharray:3.5807,2.3871;" x1="40.3" y1="13.8" x2="36.4" y2="16.5"/>
			<line style="fill:none;stroke:#5EA5DB;stroke-width:2;stroke-miterlimit:10;" x1="35.4" y1="17.1" x2="34.1" y2="18"/>
		</g>
	</g>
	<g>
		<g>
			<line style="fill:none;stroke:#5EA5DB;stroke-width:2;stroke-miterlimit:10;" x1="11.6" y1="36.1" x2="10.4" y2="37"/>
			
				<line style="fill:none;stroke:#5EA5DB;stroke-width:2;stroke-miterlimit:10;stroke-dasharray:3.1191,2.0794;" x1="8.7" y1="38.2" x2="5.3" y2="40.6"/>
			<line style="fill:none;stroke:#5EA5DB;stroke-width:2;stroke-miterlimit:10;" x1="4.5" y1="41.3" x2="3.3" y2="42.1"/>
		</g>
	</g>
	<g>
		<g>
			<line style="fill:none;stroke:#5EA5DB;stroke-width:2;stroke-miterlimit:10;" x1="16.4" y1="39.2" x2="15.2" y2="40.1"/>
			
				<line style="fill:none;stroke:#5EA5DB;stroke-width:2;stroke-miterlimit:10;stroke-dasharray:3.1194,2.0796;" x1="13.5" y1="41.3" x2="10.2" y2="43.8"/>
			<line style="fill:none;stroke:#5EA5DB;stroke-width:2;stroke-miterlimit:10;" x1="9.3" y1="44.4" x2="8.1" y2="45.3"/>
		</g>
	</g>
	<g>
		<g>
			<line style="fill:none;stroke:#5EA5DB;stroke-width:2;stroke-miterlimit:10;" x1="21.3" y1="42.3" x2="20.1" y2="43.2"/>
			
				<line style="fill:none;stroke:#5EA5DB;stroke-width:2;stroke-miterlimit:10;stroke-dasharray:3.1197,2.0798;" x1="18.4" y1="44.4" x2="15" y2="46.9"/>
			<line style="fill:none;stroke:#5EA5DB;stroke-width:2;stroke-miterlimit:10;" x1="14.2" y1="47.5" x2="13.411" y2="48.046"/>
		</g>
	</g>
</g>
</svg>
