<?xml version="1.0" encoding="iso-8859-1"?>
<!-- Generator: Adobe Illustrator 22.1.0, SVG Export Plug-In . SVG Version: 6.00 Build 0)  -->
<svg version="1.1" id="Layer_1" xmlns="http://www.w3.org/2000/svg" xmlns:xlink="http://www.w3.org/1999/xlink" x="0px" y="0px"
	 viewBox="0 0 45.936 53.045" style="enable-background:new 0 0 45.936 53.045;" xml:space="preserve">
<g id="hex-nodal_x60_46x54">
	<polygon style="fill:#2BB1F6;" points="45.936,39.784 22.965,53.045 0,39.784 0,13.261 22.965,0 45.936,13.261 	"/>
	<polygon style="fill:#058FCC;" points="9.357,35.543 23.005,53.045 45.936,39.784 45.936,28.764 36.579,17.243 29.747,13.306 
		23.211,17.947 16.695,13.847 	"/>
	<g>
		<polygon style="fill:#FFFFFF;" points="9.357,35.543 9.357,17.243 16.138,12.722 36.579,35.543 29.7,40.128 16.526,31.305 
			16.526,40.323 		"/>
	</g>
	<g>
		<path style="fill:#FFFFFF;" d="M16.507,31.085l5.996,3.58l-5.996,4.444l-0.001,0V31.085 M15.507,29.324v10.321l1.031,0.687
			l7.766-5.756L15.507,29.324L15.507,29.324z"/>
	</g>
	<g>
		<path style="fill:#FFFFFF;" d="M29.862,14.005l5.718,3.776v17.227l-0.113,0.076L17.152,14.637l11.142,7.693l1.568,1.083v-1.906
			V14.005 M29.734,12.722l-0.872,0.585v8.201l-12.724-8.785l-1.28,0.853l20.441,22.821l1.28-0.853v-18.3L29.734,12.722
			L29.734,12.722z"/>
	</g>
	<g>
		<polygon style="fill:#FFFFFF;" points="22.564,17.526 29.701,22.158 29.734,12.722 		"/>
	</g>
</g>
</svg>
