<?xml version="1.0" encoding="iso-8859-1"?>
<!-- Generator: Adobe Illustrator 22.1.0, SVG Export Plug-In . SVG Version: 6.00 Build 0)  -->
<svg version="1.1" id="Layer_1" xmlns="http://www.w3.org/2000/svg" xmlns:xlink="http://www.w3.org/1999/xlink" x="0px" y="0px"
	 viewBox="0 0 134.119 98.89" style="enable-background:new 0 0 134.119 98.89;" xml:space="preserve">
<g id="production_x60_135x99">
	<path style="fill:none;stroke:#3B72B0;stroke-width:2.1377;stroke-miterlimit:10;" d="M86.726,49.347H36.641
		c-4.239,0-7.693,3.454-7.693,7.693s3.454,7.693,7.693,7.693h50.085c4.239,0,7.693-3.454,7.693-7.693S91.123,49.347,86.726,49.347z"
		/>
	<path style="fill:none;stroke:#3B72B0;stroke-width:2.1377;stroke-miterlimit:10;" d="M92.065,44.794
		c0,0,11.148-8.321,16.172-12.247s22.766-4.239,22.766-4.239L98.816,54.057"/>
	
		<line style="fill:none;stroke:#3B72B0;stroke-width:2.1377;stroke-miterlimit:10;" x1="111.534" y1="36.158" x2="98.816" y2="46.05"/>
	<path style="fill:none;stroke:#3B72B0;stroke-width:2.1377;stroke-miterlimit:10;" d="M58.465,68.816c0,0,2.512,4.867,6.908,2.669"
		/>
	<path style="fill:none;stroke:#3B72B0;stroke-width:2.1377;stroke-miterlimit:10;" d="M58.465,74.782c0,0,2.512,4.867,6.908,2.669"
		/>
	<path style="fill:none;stroke:#3B72B0;stroke-width:2.1377;stroke-miterlimit:10;" d="M58.465,81.377c0,0,2.512,4.867,6.908,2.669"
		/>
	<path style="fill:none;stroke:#3B72B0;stroke-width:2.1377;stroke-miterlimit:10;" d="M58.465,87.5c0,0,2.512,4.867,6.908,2.669"/>
	<path style="fill:none;stroke:#3B72B0;stroke-width:2.1377;stroke-miterlimit:10;" d="M59.721,94.879c0,0,1.256,2.355,3.454,2.983"
		/>
	
		<line style="fill:none;stroke:#3B72B0;stroke-width:2.1377;stroke-miterlimit:10;" x1="45.12" y1="69.444" x2="33.658" y2="79.806"/>
	
		<line style="fill:none;stroke:#3B72B0;stroke-width:2.1377;stroke-miterlimit:10;" x1="53.127" y1="69.601" x2="39.153" y2="81.691"/>
	<polyline style="fill:none;stroke:#3B72B0;stroke-width:2.1377;stroke-miterlimit:10;" points="87.354,39.927 58.308,10.095 
		57.366,15.119 56.581,20.301 60.977,20.929 	"/>
	
		<line style="fill:none;stroke:#3B72B0;stroke-width:2.1377;stroke-miterlimit:10;" x1="63.332" y1="24.069" x2="62.704" y2="27.837"/>
	
		<line style="fill:none;stroke:#3B72B0;stroke-width:2.1377;stroke-miterlimit:10;" x1="66.944" y1="29.093" x2="66.472" y2="32.704"/>
	
		<line style="fill:none;stroke:#3B72B0;stroke-width:2.1377;stroke-miterlimit:10;" x1="70.869" y1="33.96" x2="70.241" y2="37.729"/>
	
		<line style="fill:none;stroke:#3B72B0;stroke-width:2.1377;stroke-miterlimit:10;" x1="74.637" y1="38.985" x2="74.009" y2="42.596"/>
	<polyline style="fill:none;stroke:#3B72B0;stroke-width:2.1377;stroke-miterlimit:10;" points="81.545,27.68 89.239,5.856 
		98.502,1.774 93.007,35.216 	"/>
	<polyline style="fill:none;stroke:#3B72B0;stroke-width:2.1377;stroke-miterlimit:10;" points="25.337,51.388 2.099,9.153 
		11.991,11.508 30.361,32.233 	"/>
	
		<line style="fill:none;stroke:#3B72B0;stroke-width:2.1377;stroke-miterlimit:10;" x1="14.974" y1="22.342" x2="29.105" y2="44.48"/>
	
		<line style="fill:none;stroke:#3B72B0;stroke-width:2.1377;stroke-miterlimit:10;" x1="78.719" y1="52.801" x2="78.719" y2="61.123"/>
	
		<line style="fill:none;stroke:#3B72B0;stroke-width:2.1377;stroke-miterlimit:10;" x1="82.801" y1="56.883" x2="74.637" y2="56.883"/>
	
		<line style="fill:none;stroke:#3B72B0;stroke-width:2.1377;stroke-miterlimit:10;" x1="75.265" y1="68.031" x2="87.197" y2="84.36"/>
	<polyline style="fill:none;stroke:#3B72B0;stroke-width:2.1377;stroke-miterlimit:10;" points="33.815,45.108 35.385,34.745 
		45.434,27.052 48.103,31.134 43.078,37.571 46.219,45.893 	"/>
	<polyline style="fill:none;stroke:#3B72B0;stroke-width:2.1377;stroke-miterlimit:10;" points="49.202,39.613 56.738,35.687 
		59.878,39.142 54.54,44.951 	"/>
</g>
</svg>
