<?xml version="1.0" encoding="iso-8859-1"?>
<!-- Generator: Adobe Illustrator 22.1.0, SVG Export Plug-In . SVG Version: 6.00 Build 0)  -->
<svg version="1.1" id="Layer_1" xmlns="http://www.w3.org/2000/svg" xmlns:xlink="http://www.w3.org/1999/xlink" x="0px" y="0px"
	 viewBox="0 0 45.936 53.045" style="enable-background:new 0 0 45.936 53.045;" xml:space="preserve">
<g id="hex-lumen_x60_46x54">
	<linearGradient id="SVGID_1_" gradientUnits="userSpaceOnUse" x1="0" y1="26.5225" x2="45.9359" y2="26.5225">
		<stop  offset="0" style="stop-color:#ED5955"/>
		<stop  offset="1" style="stop-color:#F1C195"/>
	</linearGradient>
	<polygon style="fill:url(#SVGID_1_);" points="45.936,39.784 22.965,53.045 0,39.784 0,13.261 22.965,0 45.936,13.261 	"/>
	<polyline style="fill:#FFCDAB;" points="25.089,12.575 45.936,33.422 45.936,39.784 32.013,47.821 18.557,34.366 	"/>
	<circle style="fill:#FFFFFF;" cx="22.968" cy="30.3" r="6"/>
	<circle style="fill:#FFFFFF;" cx="22.968" cy="22.3" r="3.01"/>
	<path style="fill:#FFFFFF;" d="M25.978,22.3c0,1.354,2.99,5.213,2.99,8h-3.857l-1.499-8H25.978z"/>
	<path style="fill:#FFFFFF;" d="M19.958,22.3c0,1.354-2.99,5.213-2.99,8h3.857l1.499-8H19.958z"/>
	<path style="fill:#E0564E;" d="M22.968,17.581c-2.024,0-3.665,1.641-3.665,3.665h7.329C26.633,19.222,24.992,17.581,22.968,17.581z
		"/>
	<path style="fill:#E0564E;" d="M22.968,15.647c-2.024,0-3.665,1.641-3.665,3.665h7.329C26.633,17.288,24.992,15.647,22.968,15.647z
		"/>
	<path style="fill:#E0564E;" d="M22.968,11.895c-2.024,0-3.665,1.641-3.665,3.665h7.329C26.633,13.536,24.992,11.895,22.968,11.895z
		"/>
	<polygon style="fill:#E0564E;" points="23.287,13.728 22.647,13.728 22.647,0.184 22.965,0 23.287,0.186 	"/>
	<polyline style="fill:#E0564E;" points="26.633,15.56 26.633,18.661 19.347,18.661 19.347,15.56 	"/>
	<path style="fill:#E86B64;" d="M18.564,34.366"/>
</g>
</svg>
