<?xml version="1.0" encoding="iso-8859-1"?>
<!-- Generator: Adobe Illustrator 22.1.0, SVG Export Plug-In . SVG Version: 6.00 Build 0)  -->
<svg version="1.1" id="Layer_1" xmlns="http://www.w3.org/2000/svg" xmlns:xlink="http://www.w3.org/1999/xlink" x="0px" y="0px"
	 viewBox="0 0 46.5 53.7" style="enable-background:new 0 0 46.5 53.7;" xml:space="preserve">
<g id="hex-platform_x60_47x54">
	<polygon id="_x3E_bg_15_" style="fill:#6FDBC2;" points="46.5,40.3 23.2,53.7 0,40.3 0,13.4 23.2,0 46.5,13.4 	"/>
	<g id="logo-horizontal_1_">
		<g>
			<polygon style="fill:#FFFFFF;" points="34.6,39 23.1,44.9 11.3,38.9 22.8,32.9 			"/>
			<polygon style="fill:#CCEBE4;" points="29.7,36.5 22.9,40 16,36.4 22.8,32.9 			"/>
			<polygon style="fill:#8AC2B5;" points="23.1,44.9 34.6,39 34.6,40.7 23.1,46.6 			"/>
			<polygon style="fill:#7FC4B4;" points="23.1,44.9 11.3,38.9 11.3,40.6 23.1,46.6 			"/>
		</g>
		<g>
			<polygon style="fill:#5FC9B1;" points="23.2,35.3 32.6,30.5 32.6,31.9 23.2,36.7 			"/>
			<polygon style="fill:#86E6D0;" points="23.2,35.3 13.8,30.5 13.8,31.9 23.2,36.7 			"/>
			<polygon style="fill:#FFFFFF;" points="32.6,30.5 23.2,35.3 13.8,30.5 23.2,25.7 			"/>
			<polygon style="fill:#CCEBE4;" points="30.1,29.2 23.2,32.8 16.3,29.2 23.2,25.7 			"/>
		</g>
		<g>
			<polygon style="fill:#8AC2B5;" points="23.2,27.8 34.6,21.9 34.6,23.7 23.2,29.5 			"/>
			<polygon style="fill:#7FC4B4;" points="23.2,27.8 11.8,21.9 11.8,23.7 23.2,29.5 			"/>
			<polygon style="fill:#FFFFFF;" points="34.6,21.9 23.2,27.8 11.8,21.9 23.2,16.1 			"/>
			<polygon style="fill:#CCEBE4;" points="31.6,20.4 23.2,24.7 14.8,20.4 23.2,16.1 			"/>
		</g>
		<g>
			<polygon style="fill:#FFFFFF;" points="34.6,12.9 23.1,18.8 11.6,12.9 23.1,7 			"/>
			<polygon style="fill:#5FC9B1;" points="23.1,18.8 34.6,12.9 34.6,14.7 23.1,20.6 			"/>
			<polygon style="fill:#86E6D0;" points="23.1,18.8 11.6,12.9 11.6,14.7 23.1,20.6 			"/>
		</g>
	</g>
</g>
</svg>
