<?xml version="1.0" encoding="iso-8859-1"?>
<!-- Generator: Adobe Illustrator 22.1.0, SVG Export Plug-In . SVG Version: 6.00 Build 0)  -->
<svg version="1.1" id="Layer_1" xmlns="http://www.w3.org/2000/svg" xmlns:xlink="http://www.w3.org/1999/xlink" x="0px" y="0px"
	 viewBox="0 0 46.697 53.922" style="enable-background:new 0 0 46.697 53.922;" xml:space="preserve">
<g id="hex-buffalo_x60_47x54">
	<polygon style="fill:#C4BCB5;" points="46.697,40.441 23.348,53.922 0,40.441 0,13.481 23.348,0 46.697,13.481 	"/>
	<polygon style="fill:#A08350;" points="11.34,46.989 23.348,53.922 35.356,47.01 35.356,28.819 11.34,28.819 	"/>
	<g>
		<circle style="fill:#56BECC;" cx="23.348" cy="28.818" r="12.008"/>
	</g>
	<path style="fill:#FFFFFF;" d="M21.905,25.955c0,2.105-1.706,3.811-3.812,3.811c-2.105,0-3.811-1.706-3.811-3.811
		s1.706-3.81,3.811-3.81C20.199,22.145,21.905,23.851,21.905,25.955z"/>
	<path style="fill:#FFFFFF;" d="M32.704,25.955c0,2.105-1.706,3.811-3.811,3.811c-2.105,0-3.811-1.706-3.811-3.811
		s1.706-3.81,3.811-3.81C30.998,22.145,32.704,23.851,32.704,25.955z"/>
	<path style="fill:#FFFFFF;" d="M21.974,34.794c0,0.383,0.312,0.695,0.695,0.695c0.382,0,0.694-0.311,0.694-0.695v-2.201h-1.389
		V34.794z"/>
	<path style="fill:#FFFFFF;" d="M23.7,32.593v2.201c0,0.383,0.311,0.695,0.695,0.695c0.383,0,0.694-0.311,0.694-0.695v-2.201H23.7z"
		/>
	<path style="fill:#437680;" d="M30.044,25.955c0,0.635-0.515,1.151-1.151,1.151c-0.635,0-1.15-0.517-1.15-1.151
		c0-0.635,0.515-1.15,1.15-1.15C29.529,24.805,30.044,25.32,30.044,25.955z"/>
	<path style="fill:#437680;" d="M19.245,25.955c0,0.635-0.515,1.151-1.15,1.151c-0.635,0-1.151-0.517-1.151-1.151
		c0-0.635,0.516-1.15,1.151-1.15C18.73,24.805,19.245,25.32,19.245,25.955z"/>
	<path style="fill:#5B5B5F;" d="M39.167,35.952c0,0.684-0.555,1.238-1.239,1.238c-0.682,0-1.238-0.554-1.238-1.238
		c0-0.683,0.556-1.238,1.238-1.238C38.612,34.714,39.167,35.269,39.167,35.952z"/>
	<rect x="35.14" y="34.714" style="fill:#A08350;" width="2.788" height="2.476"/>
	<path style="fill:#5B5B5F;" d="M7.53,35.952c0,0.684,0.555,1.238,1.238,1.238c0.682,0,1.238-0.554,1.238-1.238
		c0-0.683-0.556-1.238-1.238-1.238C8.085,34.714,7.53,35.269,7.53,35.952z"/>
	<rect x="8.768" y="34.714" style="fill:#A08350;" width="2.789" height="2.476"/>
	<path style="fill:#ACE8F2;" d="M26.838,32.057c0,0.628-0.51,1.134-1.142,1.134s-1.142-0.506-1.142-1.134
		c0-0.626,0.51-1.133,1.142-1.133S26.838,31.432,26.838,32.057z"/>
	<path style="fill:#ACE8F2;" d="M22.559,32.057c0,0.628-0.511,1.134-1.142,1.134c-0.631,0-1.142-0.506-1.142-1.134
		c0-0.626,0.51-1.133,1.142-1.133C22.048,30.925,22.559,31.432,22.559,32.057z"/>
	<path style="fill:#ACE8F2;" d="M21.905,33.081c0.79-0.488,2.037-0.811,3.094-0.129c1.055,0.683,1.424-1.765,1.424-1.765
		c-1.238-0.775-3.624-1.132-5.636-0.075L21.905,33.081z"/>
	<path style="fill:#437680;" d="M25.277,30.454c0,0.557-0.761,1.007-1.697,1.007c-0.936,0-1.695-0.45-1.695-1.007
		c0-0.556,0.759-1.008,1.695-1.008C24.516,29.446,25.277,29.898,25.277,30.454z"/>
	<path style="fill:#A08350;" d="M12.931,15.249l-2.77,1.001c-0.672,0.223-0.702,0.945-0.049,1.199l2.88,1.124l2.059-1.764
		L12.931,15.249z"/>
	<path style="fill:#A08350;" d="M33.917,15.249l2.77,1.001c0.672,0.223,0.702,0.945,0.049,1.199l-2.88,1.124l-2.059-1.764
		L33.917,15.249z"/>
	<path style="fill:#605B51;" d="M17.619,13.991c-1.218,0-3.074-1.158-4.135-1.897c-0.398-0.277-0.953-0.022-0.985,0.462
		c-0.073,1.109,0.087,2.873,1.506,4.254C16.245,18.991,17.619,13.991,17.619,13.991z"/>
	<path style="fill:#605B51;" d="M29.368,13.991c1.218,0,3.074-1.158,4.135-1.897c0.398-0.277,0.953-0.022,0.985,0.462
		c0.073,1.109-0.087,2.873-1.506,4.254C30.742,18.991,29.368,13.991,29.368,13.991z"/>
	<path style="fill:#493626;" d="M35.467,31.11c0,0-0.623,2.957-3.087,4.211c0,0-1.627-0.504-2.504,0
		c-0.876,0.504-2.209,1.869-2.209,1.869s-0.214,0.201-1.408,0c-0.746-0.126-1.993-0.107-2.855,0.331
		c-0.862-0.438-2.109-0.457-2.855-0.331c-1.194,0.201-1.408,0-1.408,0s-1.333-1.365-2.21-1.869c-0.876-0.504-2.504,0-2.504,0
		c-2.463-1.254-3.087-4.211-3.087-4.211s-1.117,1.548-1.055,3.456s2.272,3.842,2.272,3.842h0.71c0,0,1.04,2,2.412,2.833
		c1.372,0.833,2.795,0.167,2.795,0.167s0.206,0.781,1.519,1.583c1.452,0.887,2.644,0.645,3.412,0.261
		c0.768,0.384,1.96,0.626,3.412-0.261c1.313-0.803,1.519-1.583,1.519-1.583s1.423,0.667,2.795-0.167
		c1.372-0.833,2.412-2.833,2.412-2.833h0.71c0,0,2.21-1.934,2.272-3.842S35.467,31.11,35.467,31.11z"/>
	<path style="fill:#A08350;" d="M37.812,27.704c0-6.296-6.07-12.962-7.86-13.212c-1.485-0.207-5.113-0.414-6.311-0.479v-0.021
		c0,0-0.074,0.004-0.199,0.01c-0.125-0.007-0.199-0.01-0.199-0.01v0.021c-1.198,0.065-4.826,0.272-6.311,0.479
		c-1.79,0.25-7.86,6.917-7.86,13.212c0,4.152,4.487,7.01,4.487,7.01s-1.073-5.111-1.073-7.55c0-4.089,1.281-7.973,10.957-6.286
		c9.449-1.686,11.062,2.156,11.062,6.286c0,2.44-1.178,7.55-1.178,7.55S37.812,31.856,37.812,27.704z"/>
	<path style="fill:#6E5221;" d="M25.181,22.41l-1.145,0.256c-0.453,0.101-0.923,0.101-1.376,0l-1.145-0.256
		c-1.063-0.238-1.733-1.29-1.5-2.354l0.077-0.348c0.199-0.905,1-1.549,1.926-1.549h2.659c0.926,0,1.728,0.645,1.926,1.549
		l0.077,0.348C26.914,21.119,26.244,22.172,25.181,22.41z"/>
	<path style="fill:#493626;" d="M27.969,12.741c-0.083-1.083-1.25-1.583-2.428-1.417c-0.234-0.97-1.777-1.005-2.1-1.001
		c-0.323-0.003-1.866,0.031-2.1,1.001c-1.178-0.167-2.344,0.333-2.428,1.417c-1.5,0.333-1.876,0.833-1.876,1.75
		c0,1.75,1.876,2.417,1.876,2.417v-0.75l2.428,1.833V16.81l2.031,1.652v0.113l0.069-0.056l0.069,0.056v-0.113l2.031-1.652v1.181
		l2.428-1.833v0.75c0,0,1.876-0.667,1.876-2.417C29.845,13.575,29.469,13.075,27.969,12.741z"/>
	<path style="fill:#493626;" d="M20.195,20.346c-0.077,0-0.146,0.028-0.218,0.044c-0.033,0.715,0.326,1.38,0.918,1.755
		c0.206-0.19,0.34-0.457,0.34-0.759C21.235,20.812,20.769,20.346,20.195,20.346z"/>
	<path style="fill:#493626;" d="M25.462,21.386c0,0.302,0.134,0.569,0.34,0.759c0.592-0.374,0.951-1.039,0.917-1.755
		c-0.072-0.016-0.141-0.044-0.218-0.044C25.928,20.346,25.462,20.812,25.462,21.386z"/>
	<path style="fill:#FFFFFF;" d="M17.863,17.953c0,0.967-0.784,1.752-1.752,1.752c-0.967,0-1.751-0.784-1.751-1.752
		c0-0.967,0.784-1.751,1.751-1.751C17.079,16.202,17.863,16.985,17.863,17.953z"/>
	<path style="fill:#726956;" d="M15.64,17.953c0,0.292-0.237,0.529-0.528,0.529c-0.292,0-0.529-0.237-0.529-0.529
		c0-0.292,0.237-0.529,0.529-0.529C15.403,17.424,15.64,17.661,15.64,17.953z"/>
	<path style="fill:#FFFFFF;" d="M32.372,17.953c0,0.967-0.784,1.752-1.752,1.752c-0.967,0-1.751-0.784-1.751-1.752
		c0-0.967,0.784-1.751,1.751-1.751C31.588,16.202,32.372,16.985,32.372,17.953z"/>
	<path style="fill:#726956;" d="M32.149,17.953c0,0.292-0.237,0.529-0.528,0.529c-0.292,0-0.529-0.237-0.529-0.529
		c0-0.292,0.237-0.529,0.529-0.529C31.912,17.424,32.149,17.661,32.149,17.953z"/>
</g>
</svg>
