<?xml version="1.0" encoding="iso-8859-1"?>
<!-- Generator: Adobe Illustrator 22.1.0, SVG Export Plug-In . SVG Version: 6.00 Build 0)  -->
<svg version="1.1" id="Layer_1" xmlns="http://www.w3.org/2000/svg" xmlns:xlink="http://www.w3.org/1999/xlink" x="0px" y="0px"
	 viewBox="0 0 46.374 53.55" style="enable-background:new 0 0 46.374 53.55;" xml:space="preserve">
<g id="hex-firestorm_x60_47x54">
	<polygon style="fill:#FFFFFF;" points="46.374,40.163 23.184,53.55 0,40.163 0,13.388 23.184,0 46.374,13.388 	"/>
	<polygon style="fill:none;stroke:#E7EBEE;stroke-miterlimit:10;" points="45.676,39.76 23.184,52.745 0.698,39.76 0.698,13.79 
		23.184,0.806 45.676,13.79 	"/>
	<polygon id="lighning" style="fill:#FAAF3F;" points="14.85,25.273 27.223,37.163 20.075,37.539 21.626,39.213 13.395,42.762 
		16.219,38.959 12.424,35.07 16.484,32.115 13.093,28.639 	"/>
	<path id="fire" style="fill:#DB3440;" d="M22.963,15.549c0.338,1.671,2.025,3.142,2.018,4.326c-0.007,1.184-1.28,2.077-2.466,2.018
		c-2.636-0.13-2.825-5.174-2.825-5.174s-1.884,1.965-2.557,2.785c-0.673,0.82-1.345,2.841-1.345,3.062l14.409,13.919
		c0,0,3.936-1.951,3.746-8.737c-0.191-6.832-3.306-10.189-6.078-12.198c-2.638-1.911-2.533-4.177-2.533-4.177
		S22.625,13.878,22.963,15.549z"/>
</g>
</svg>
