<?xml version="1.0" encoding="iso-8859-1"?>
<!-- Generator: Adobe Illustrator 22.1.0, SVG Export Plug-In . SVG Version: 6.00 Build 0)  -->
<svg version="1.1" id="Layer_1" xmlns="http://www.w3.org/2000/svg" xmlns:xlink="http://www.w3.org/1999/xlink" x="0px" y="0px"
	 viewBox="0 0 46.014 53.135" style="enable-background:new 0 0 46.014 53.135;" xml:space="preserve">
<g id="hex-trails_x60_47x54">
	<polygon style="fill:#67A977;" points="46.014,39.851 23.004,53.135 0,39.851 0,13.284 23.004,0 46.014,13.284 	"/>
	<path style="fill:#439154;" d="M9.622,37.293L24.77,52.115l21.244-12.264l-0.039-10.622l-21.95-19.032
		c0,0-0.834,10.166-0.834,16.412C20.216,31.672,9.622,37.293,9.622,37.293z"/>
	<path style="fill:none;stroke:#FFFFFF;stroke-width:2;stroke-linecap:round;stroke-linejoin:round;stroke-miterlimit:10;" d="
		M10.481,36.494V22.372c9.18-4.943,12.71-11.377,12.71-11.377v15.613C23.191,26.609,17.542,35.082,10.481,36.494z"/>
	<path style="fill:none;stroke:#FFFFFF;stroke-width:2;stroke-linecap:round;stroke-linejoin:round;stroke-miterlimit:10;" d="
		M35.901,36.494V22.372c-9.18-4.943-12.71-11.377-12.71-11.377v15.613C23.191,26.609,28.84,35.082,35.901,36.494z"/>
	<path style="fill:none;stroke:#FFFFFF;stroke-width:2;stroke-linecap:round;stroke-linejoin:round;stroke-miterlimit:10;" d="
		M23.191,26.609c0,0-5.649,8.474-12.71,9.886h25.421C28.84,35.082,23.191,26.609,23.191,26.609z"/>
	<path style="fill:#FFFFFF;" d="M23.191,32.415c0,0-2.04,3.206-4.739,4.08h9.479C25.231,35.62,23.191,32.415,23.191,32.415z"/>
</g>
</svg>
