<?xml version="1.0" encoding="iso-8859-1"?>
<!-- Generator: Adobe Illustrator 22.1.0, SVG Export Plug-In . SVG Version: 6.00 Build 0)  -->
<svg version="1.1" id="Layer_1" xmlns="http://www.w3.org/2000/svg" xmlns:xlink="http://www.w3.org/1999/xlink" x="0px" y="0px"
	 viewBox="0 0 46.892 54.149" style="enable-background:new 0 0 46.892 54.149;" xml:space="preserve">
<g id="hex-lisp_x60_47x55">
	<polygon style="fill:#65CF69;" points="46.892,40.611 23.446,54.149 0,40.611 0,13.538 23.446,0 46.892,13.538 	"/>
	<polygon style="fill:#55B358;" points="26.186,52.567 46.892,40.611 46.892,31.822 34.2,19.128 31.058,19.71 26.487,15.139 
		23.446,14.378 15.198,18.683 12.029,25.903 10.944,34.572 15.894,39.523 15.739,42.121 	"/>
	<path style="fill:#FFFFFF;" d="M30.22,19.128c0,3.741-3.033,6.775-6.775,6.775c-3.741,0-6.774-3.033-6.774-6.775
		c0-3.741,3.033-6.775,6.774-6.775C27.188,12.354,30.22,15.387,30.22,19.128z"/>
	<path style="fill:none;stroke:#FFFFFF;stroke-width:3.4258;stroke-linecap:round;stroke-miterlimit:10;" d="M29.601,19.128
		c3.037,0,5.499,2.461,5.499,5.499V38"/>
	<path style="fill:none;stroke:#FFFFFF;stroke-width:3.4258;stroke-linecap:round;stroke-miterlimit:10;" d="M17.946,19.128
		c-3.037,0-5.499,2.461-5.499,5.499v9.225"/>
	<path style="fill:none;stroke:#FFFFFF;stroke-width:3.4258;stroke-linecap:round;stroke-miterlimit:10;" d="M30.512,35.518V24.627
		c0-0.502-0.409-0.91-0.911-0.91l-1.864-1.561"/>
	<path style="fill:none;stroke:#FFFFFF;stroke-width:3.4258;stroke-linecap:round;stroke-miterlimit:10;" d="M17.036,40.982V24.627
		c0-0.502,0.409-0.91,0.91-0.91l1.863-1.561"/>
	
		<line style="fill:none;stroke:#FFFFFF;stroke-width:3.4258;stroke-linecap:round;stroke-miterlimit:10;" x1="21.548" y1="23.776" x2="21.548" y2="35.518"/>
	
		<line style="fill:none;stroke:#FFFFFF;stroke-width:3.4258;stroke-linecap:round;stroke-miterlimit:10;" x1="26" y1="23.776" x2="26" y2="39.433"/>
	<path style="fill:#65CF69;" d="M24.686,21.499c0,0.774-0.626,1.401-1.4,1.401c-0.772,0-1.399-0.627-1.399-1.401
		c0-0.772,0.627-1.398,1.399-1.398C24.061,20.101,24.686,20.727,24.686,21.499z"/>
	<path style="fill:#65CF69;" d="M24.686,15.836c0,0.773-0.626,1.4-1.4,1.4c-0.772,0-1.399-0.627-1.399-1.4
		c0-0.773,0.627-1.398,1.399-1.398C24.061,14.438,24.686,15.064,24.686,15.836z"/>
	<path style="fill:#65CF69;" d="M20.455,20.067c-0.772,0-1.398-0.627-1.398-1.4c0-0.773,0.626-1.398,1.398-1.398
		c0.774,0,1.401,0.626,1.401,1.398C21.855,19.441,21.229,20.067,20.455,20.067z"/>
	<path style="fill:#65CF69;" d="M26.119,20.067c-0.773,0-1.399-0.627-1.399-1.4c0-0.773,0.626-1.398,1.399-1.398
		c0.772,0,1.399,0.626,1.399,1.398C27.518,19.441,26.89,20.067,26.119,20.067z"/>
</g>
</svg>
