<?xml version="1.0" encoding="iso-8859-1"?>
<!-- Generator: Adobe Illustrator 22.1.0, SVG Export Plug-In . SVG Version: 6.00 Build 0)  -->
<svg version="1.1" id="Layer_1" xmlns="http://www.w3.org/2000/svg" xmlns:xlink="http://www.w3.org/1999/xlink" x="0px" y="0px"
	 viewBox="0 0 46.485 53.676" style="enable-background:new 0 0 46.485 53.676;" xml:space="preserve">
<g id="hex-elixir_x60_47x54">
	<polygon style="fill:#897596;" points="46.485,40.257 23.243,53.676 0,40.257 0,13.419 23.243,0 46.485,13.419 	"/>
	<polygon style="fill:#7B6987;" points="28.13,50.855 46.485,40.257 46.485,30.084 24.353,7.954 14.625,37.35 	"/>
	<path style="fill:#FFFFFF;" d="M24.353,7.954c0,12.021,10,13.841,10,21.773c0,6.38-4.138,11.617-10.864,11.617
		c-5.178,0-11.205-3.168-11.205-11.445C12.285,20.933,21.423,7.954,24.353,7.954z"/>
	<path style="opacity:0.4;fill:#CBADDE;" d="M34,27.269c-0.334,2.231-4.999,3.998-10.722,3.998c-5.835,0-10.572-1.837-10.738-4.129
		c-0.163,0.948-0.255,1.874-0.255,2.76c0,1.068,0.103,2.048,0.289,2.952c1.369,2.362,5.619,4.086,10.656,4.086
		c5.301,0,9.727-1.908,10.845-4.458c0.178-0.885,0.279-1.803,0.279-2.751C34.354,28.838,34.224,28.028,34,27.269z"/>
	<path style="opacity:0.4;fill:#CBADDE;" d="M32.673,36.24c-2.636-0.14-6.77-3.424-10.315-8.465
		c-3.238-4.605-5.089-9.409-5.009-12.425l-1.09,1.775c-2.017,1.788-0.323,7.969,3.78,13.808c4.107,5.839,9.07,9.123,11.085,7.337
		L32.673,36.24z"/>
	<path style="opacity:0.4;fill:#CBADDE;" d="M24.779,11.992c-5.313,1.947-9.545,6.394-11.473,12.039
		c-0.633,2.027-1.021,4.032-1.021,5.868c0,5.07,2.264,8.213,5.206,9.897c-0.638-1.891-0.997-3.925-0.997-6.052
		c0-7.514,4.339-13.933,10.472-16.54C26.029,15.726,25.236,14.041,24.779,11.992z"/>
	<path style="opacity:0.28;fill:#CBADDE;" d="M16.871,39.416c1.91,1.277,4.175,1.867,6.321,1.916
		c4.744-3.994,7.86-10.719,7.86-18.343c0-0.223-0.019-0.441-0.026-0.662c-0.771-0.916-1.599-1.841-2.405-2.838
		C28.324,28.66,23.523,36.398,16.871,39.416z"/>
</g>
</svg>
