<?xml version="1.0" encoding="iso-8859-1"?>
<!-- Generator: Adobe Illustrator 22.1.0, SVG Export Plug-In . SVG Version: 6.00 Build 0)  -->
<svg version="1.1" id="Layer_1" xmlns="http://www.w3.org/2000/svg" xmlns:xlink="http://www.w3.org/1999/xlink" x="0px" y="0px"
	 viewBox="0 0 46.5 53.7" style="enable-background:new 0 0 46.5 53.7;" xml:space="preserve">
<g id="hex-maria_x60_47x54">
	<polygon id="_x3E_bg_9_" style="fill:#7197EE;" points="46.5,40.3 23.2,53.7 0,40.3 0,13.4 23.2,0 46.5,13.4 	"/>
	<circle style="fill:#FFFFFF;" cx="20.7" cy="9.3" r="0.8"/>
	<circle style="fill:#FFFFFF;" cx="25.1" cy="5.6" r="0.8"/>
	<circle style="fill:#FFFFFF;" cx="9.2" cy="11.6" r="0.8"/>
	<circle style="fill:#FFFFFF;" cx="44.1" cy="25" r="0.8"/>
	<polygon style="fill:#4A67A8;" points="23.2,53.7 6.414,44.005 39.819,44.094 	"/>
	<path id="path3352_5_" style="fill:#FFC88D;" d="M20.207,51.971c0,0,3.193-16.171,4.893-18.771c1.8-2.8,4.6-4.5,7.1-6.3
		c2.9-2,5.5-4.1,5.9-8c-3-0.3-3.7-1-4.2-2.5c-1.5,0.9-2.9,1-4.5,1.1c-1.4,0-2.9,0-4.7,0.2C11.3,19.1,1.343,41.075,1.343,41.075
		L20.207,51.971z"/>
	
		<radialGradient id="path3352_1_" cx="3615.4849" cy="-11666.8574" r="22.2561" gradientTransform="matrix(0.3794 -0.9252 0.3629 0.1488 2887.2488 5125.001)" gradientUnits="userSpaceOnUse">
		<stop  offset="0" style="stop-color:#543824"/>
		<stop  offset="1" style="stop-color:#8B5E3C;stop-opacity:0"/>
	</radialGradient>
	<path id="path3352_2_" style="fill:url(#path3352_1_);" d="M20.207,51.971c0,0,3.193-16.171,4.893-18.771c1.8-2.8,4.6-4.5,7.1-6.3
		c2.9-2,5.5-4.1,5.9-8c-3-0.3-3.7-1-4.2-2.5c-1.5,0.9-2.9,1-4.5,1.1c-1.4,0-2.9,0-4.7,0.2C11.3,19.1,1.343,41.075,1.343,41.075
		L20.207,51.971z"/>
	
		<radialGradient id="path4028_1_" cx="655.7087" cy="-2486.21" r="12.9538" gradientTransform="matrix(0.108 0.3929 1.445 -0.397 3546.0259 -1227.8672)" gradientUnits="userSpaceOnUse">
		<stop  offset="0" style="stop-color:#FFFFFF"/>
		<stop  offset="1" style="stop-color:#FFFFFF;stop-opacity:0"/>
	</radialGradient>
	<path id="path4028_3_" style="fill:url(#path4028_1_);" d="M33.9,16.4c-1.5,0.9-2.9,1-4.5,1.1c-1.4,0-2.9,0-4.7,0.2
		c-5.7,0.6-11,5.4-14.1,9l12.5,12.6c0.7-2.8,1.3-5,2-6.1c1.8-2.8,4.6-4.5,7.1-6.3c2.9-2,5.4-4.1,5.9-8C35.1,18.7,34.4,18,33.9,16.4z
		"/>
	<path id="path3880_6_" style="fill:#002B64;" d="M19.6,24c2.2,1.9,6.7,0.4,5.9-3.4C22.1,20.4,20.2,21.5,19.6,24z"/>
	<path id="path3880_5_" style="fill:#FFFFFF;" d="M22.7,22.2c0.5,0.4,1.5,0.1,1.3-0.8C23.2,21.3,22.8,21.6,22.7,22.2z"/>
	<path id="path3882_3_" style="fill:#678AD9;" d="M34.1,22.2c0,0.9-0.3,2.1,0.4,4c0.1,0.3,0,0.6-0.2,0.2c-0.7-1.8-0.6-2.8-0.5-4.1
		C33.8,21.7,34.1,21.8,34.1,22.2z"/>
	<path id="path3884_3_" style="fill:#678AD9;" d="M33.1,22.2c-0.2,1.1-1,3.2-0.4,5.8c0.1,0.4-0.2,0.8-0.3,0.1
		c-0.6-2.5,0-4.3,0.3-5.9C32.9,21.6,33.1,21.8,33.1,22.2z"/>
	<path id="path3888_3_" style="fill:#678AD9;" d="M32,22.1c-0.4,1.1-1.6,4.6-1.3,7.2c0,0.4-0.3,0.8-0.3,0.1
		c-0.2-2.5,0.8-5.8,1.3-7.3C31.9,21.4,32.1,21.6,32,22.1z"/>
	<path style="fill:#394E80;" d="M33.9,16.4c0,0,2.3-2.5,3.6-2.4c0.7,0.1,1.1,0.3,1.4,1.2c0.3,0.9-0.8,3.7-0.8,3.7s-2,0.2-3-0.4
		S33.9,16.4,33.9,16.4z"/>
	<polygon style="fill:#FFFFFF;" points="45.52,40.837 35.72,46.437 36.029,46.348 35.7,40.1 40.3,33.1 42.9,36.8 44.9,40 	"/>
	<polygon style="fill:#C7FFFA;" points="38.7,37.9 39.3,42 37.429,45.448 36.029,46.348 33.729,47.648 36.9,35.4 40.4,33.1 	"/>
</g>
</svg>
