<?xml version="1.0" encoding="iso-8859-1"?>
<!-- Generator: Adobe Illustrator 22.1.0, SVG Export Plug-In . SVG Version: 6.00 Build 0)  -->
<svg version="1.1" id="Layer_1" xmlns="http://www.w3.org/2000/svg" xmlns:xlink="http://www.w3.org/1999/xlink" x="0px" y="0px"
	 viewBox="0 0 46.894 54.148" style="enable-background:new 0 0 46.894 54.148;" xml:space="preserve">
<g id="hex-elasticsearch_x60_48x56">
	<g>
		<polygon style="fill:#FFFFFF;" points="0.5,40.322 0.5,13.826 23.448,0.577 46.394,13.826 46.394,40.322 23.448,53.57 		"/>
		<path style="fill:#C8DBDB;" d="M23.448,1.155l22.446,12.96v25.919l-22.446,12.96L1,40.033V14.114L23.448,1.155 M23.448,0L0,13.537
			v27.074l23.448,13.537l23.446-13.537V13.537L23.448,0L23.448,0z"/>
	</g>
	<path style="fill:#00A9E5;" d="M29.505,22.513h-7.947c0.057,0.18,0.11,0.361,0.16,0.544c0.25,0.914,0.417,1.862,0.492,2.836
		c0.03,0.39,0.045,0.783,0.045,1.181c0,0.397-0.015,0.791-0.045,1.181c-0.075,0.974-0.242,1.922-0.492,2.836
		c-0.05,0.183-0.103,0.364-0.16,0.544h7.947c2.5,0,4.528-2.037,4.533-4.553C34.042,24.56,32.011,22.513,29.505,22.513z"/>
	<path style="fill:#353535;" d="M22.209,28.254c0.03-0.39,0.045-0.783,0.045-1.181c0-0.397-0.015-0.791-0.045-1.181
		c-0.075-0.974-0.242-1.922-0.492-2.836c-0.05-0.183-0.103-0.364-0.16-0.544H9.269c-0.452,1.44-0.697,2.972-0.697,4.561
		c0,1.589,0.245,3.121,0.697,4.561h12.289c0.057-0.18,0.11-0.361,0.16-0.544C21.967,30.177,22.134,29.228,22.209,28.254z"/>
	<path style="fill:#00BFB3;" d="M30.883,33.155h-9.898c-0.296,0.677-0.64,1.328-1.027,1.949c-0.581,0.932-1.26,1.796-2.022,2.578
		c-0.254,0.261-0.518,0.512-0.79,0.755c-0.544,0.484-1.124,0.93-1.734,1.332c2.399,1.584,5.272,2.507,8.362,2.507
		c5.276,0,9.923-2.688,12.649-6.769C35.021,34.06,33.059,33.155,30.883,33.155z"/>
	<path style="fill:#019B8F;" d="M19.959,35.105c0.387-0.621,0.731-1.272,1.027-1.949H9.84c1.183,2.707,3.132,5.003,5.572,6.615
		c0.61-0.403,1.19-0.848,1.734-1.332c0.272-0.242,0.536-0.494,0.79-0.755C18.699,36.901,19.378,36.036,19.959,35.105z"/>
	<path style="fill:#F9B110;" d="M17.937,16.465c-0.254-0.261-0.518-0.512-0.79-0.755c-0.544-0.484-1.124-0.93-1.734-1.332
		c-2.44,1.612-4.389,3.907-5.572,6.615h11.146c-0.296-0.677-0.64-1.328-1.027-1.949C19.378,18.111,18.699,17.247,17.937,16.465z"/>
	<path style="fill:#FED10A;" d="M23.775,11.87c-3.09,0-5.964,0.923-8.362,2.507c0.61,0.403,1.19,0.848,1.734,1.332
		c0.272,0.242,0.536,0.494,0.79,0.755c0.763,0.782,1.441,1.647,2.022,2.578c0.387,0.621,0.731,1.272,1.027,1.949h9.898
		c2.176,0,4.138-0.904,5.54-2.353C33.698,14.559,29.051,11.87,23.775,11.87z"/>
</g>
</svg>
