<?xml version="1.0" encoding="iso-8859-1"?>
<!-- Generator: Adobe Illustrator 22.1.0, SVG Export Plug-In . SVG Version: 6.00 Build 0)  -->
<svg version="1.1" id="Layer_1" xmlns="http://www.w3.org/2000/svg" xmlns:xlink="http://www.w3.org/1999/xlink" x="0px" y="0px"
	 viewBox="0 0 46.374 53.55" style="enable-background:new 0 0 46.374 53.55;" xml:space="preserve">
<g id="hex-yii_x60_47x54">
	<linearGradient id="SVGID_1_" gradientUnits="userSpaceOnUse" x1="0" y1="26.7752" x2="46.3735" y2="26.7752">
		<stop  offset="0" style="stop-color:#FFFFFF"/>
		<stop  offset="1" style="stop-color:#FFFFFF"/>
	</linearGradient>
	<polygon style="fill:url(#SVGID_1_);" points="46.374,40.163 23.184,53.55 0,40.163 0,13.388 23.184,0 46.374,13.388 	"/>
	<polygon style="fill:none;stroke:#E7EBEE;stroke-miterlimit:10;" points="45.676,39.76 23.184,52.745 0.698,39.76 0.698,13.79 
		23.184,0.806 45.676,13.79 	"/>
	<radialGradient id="SVGID_2_" cx="27.0174" cy="27.636" r="13.1546" gradientUnits="userSpaceOnUse">
		<stop  offset="0" style="stop-color:#D5EC5E"/>
		<stop  offset="1" style="stop-color:#7CBC27"/>
	</radialGradient>
	<path style="fill-rule:evenodd;clip-rule:evenodd;fill:url(#SVGID_2_);" d="M26.595,21.911c-1.41-3.972,2.712-8.231,6.103-8.358
		c2.031,1.035,3.776,3.751,3.689,7.438c-0.266,4.542-3.559,8.457-7.142,12.063C29.045,28.655,28.089,25.852,26.595,21.911
		L26.595,21.911z"/>
	<radialGradient id="SVGID_3_" cx="26.2871" cy="28.4252" r="13.0032" gradientUnits="userSpaceOnUse">
		<stop  offset="0" style="stop-color:#8BC4EB"/>
		<stop  offset="1" style="stop-color:#0073BB"/>
	</radialGradient>
	<path style="fill-rule:evenodd;clip-rule:evenodd;fill:url(#SVGID_3_);" d="M18.602,43.422c-0.567-4.435,1.278-8.218,3.108-10.524
		c3.979-4.95,3.731-7.923,3.339-10.47c2.093,3.262,3.398,7.174,3.688,10.635C28.884,35.918,26.802,42.518,18.602,43.422
		L18.602,43.422z"/>
	<radialGradient id="SVGID_4_" cx="26.8111" cy="29.5527" r="23.1349" gradientUnits="userSpaceOnUse">
		<stop  offset="0" style="stop-color:#FFF383"/>
		<stop  offset="1" style="stop-color:#DE3A26"/>
	</radialGradient>
	<path style="fill-rule:evenodd;clip-rule:evenodd;fill:url(#SVGID_4_);" d="M15.745,26.58c-6.017-1.642-7.501-6.801-7.232-10.271
		c5.843-2.312,12.131,0.056,15.761,4.991c2.545,3.459,4.139,7.893,4.463,11.763c-1.747-2.249-3.952-3.552-6.761-4.573
		C20.053,27.792,18.279,27.33,15.745,26.58L15.745,26.58z"/>
	<linearGradient id="SVGID_5_" gradientUnits="userSpaceOnUse" x1="25.1897" y1="26.7132" x2="26.9503" y2="31.8746">
		<stop  offset="0" style="stop-color:#E1D082"/>
		<stop  offset="1" style="stop-color:#C1E0C1"/>
	</linearGradient>
	<path style="fill-rule:evenodd;clip-rule:evenodd;fill:url(#SVGID_5_);" d="M28.479,31.195c-0.057-0.321-0.117-0.643-0.19-0.968
		c-0.042-0.187-0.092-0.375-0.139-0.562c-0.074-0.296-0.151-0.592-0.237-0.889c-0.058-0.199-0.122-0.397-0.186-0.596
		c-0.092-0.288-0.188-0.575-0.291-0.862c-0.072-0.201-0.148-0.401-0.226-0.601c-0.11-0.283-0.227-0.565-0.348-0.846
		c-0.085-0.197-0.171-0.394-0.261-0.59c-0.13-0.282-0.269-0.56-0.41-0.837c-0.095-0.187-0.188-0.374-0.288-0.558
		c-0.156-0.288-0.323-0.57-0.491-0.851c-0.098-0.163-0.191-0.33-0.293-0.491c-0.021-0.034-0.046-0.065-0.067-0.099
		c0.287,1.869,0.485,3.972-1.002,6.914c1.852,0.897,3.396,2.041,4.688,3.704c-0.038-0.46-0.098-0.929-0.171-1.402
		C28.541,31.507,28.507,31.35,28.479,31.195z"/>
</g>
</svg>
