<?xml version="1.0" encoding="iso-8859-1"?>
<!-- Generator: Adobe Illustrator 22.1.0, SVG Export Plug-In . SVG Version: 6.00 Build 0)  -->
<svg version="1.1" id="Layer_1" xmlns="http://www.w3.org/2000/svg" xmlns:xlink="http://www.w3.org/1999/xlink" x="0px" y="0px"
	 viewBox="0 0 46.5 53.7" style="enable-background:new 0 0 46.5 53.7;" xml:space="preserve">
<g id="hex-arbiter_x60_47x54">
	<polygon id="_x3E_bg_17_" style="fill:#FFB03B;" points="46.5,40.3 23.2,53.7 0,40.3 0,13.4 23.2,0 46.5,13.4 	"/>
	<line style="fill:none;stroke:#FFE7A6;stroke-linejoin:bevel;stroke-miterlimit:10;" x1="27.1" y1="49.4" x2="39.5" y2="42.3"/>
	<line style="fill:none;stroke:#FFE7A6;stroke-linejoin:bevel;stroke-miterlimit:10;" x1="19.3" y1="49.4" x2="7" y2="42.3"/>
	<line style="fill:none;stroke:#FFE7A6;stroke-linejoin:bevel;stroke-miterlimit:10;" x1="27.1" y1="5.3" x2="39.5" y2="12.4"/>
	<line style="fill:none;stroke:#FFE7A6;stroke-linejoin:bevel;stroke-miterlimit:10;" x1="43.4" y1="19" x2="43.4" y2="35.2"/>
	<line style="fill:none;stroke:#FFE7A6;stroke-linejoin:bevel;stroke-miterlimit:10;" x1="3" y1="19" x2="3" y2="35.2"/>
	<line style="fill:none;stroke:#FFE7A6;stroke-linejoin:bevel;stroke-miterlimit:10;" x1="19.3" y1="5.3" x2="7" y2="12.4"/>
	<polyline style="fill:none;stroke:#FFE7A6;stroke-width:2.1;stroke-linejoin:bevel;stroke-miterlimit:10;" points="32.4,24.6 
		32.4,30.7 25.8,36.4 25.8,12.8 27.6,10.9 31.4,10.9 33.3,12.7 	"/>
	<circle style="fill:#FFE7A6;" cx="43.4" cy="16" r="1.7"/>
	<circle style="fill:#FFE7A6;" cx="23.2" cy="4.7" r="1.7"/>
	<circle style="fill:#FFE7A6;" cx="23.2" cy="49.5" r="1.7"/>
	<circle style="fill:#FFE7A6;" cx="43.4" cy="39" r="1.7"/>
	<circle style="fill:#FFE7A6;" cx="3" cy="16" r="1.7"/>
	<circle style="fill:#FFE7A6;" cx="3" cy="39" r="1.7"/>
	<polyline style="fill:none;stroke:#FFE7A6;stroke-width:2.1;stroke-linejoin:bevel;stroke-miterlimit:10;" points="29,27.6 29,20 
		33.7,15.3 37.7,19.3 	"/>
	<polyline style="fill:none;stroke:#FFE7A6;stroke-width:2.1;stroke-linejoin:bevel;stroke-miterlimit:10;" points="33.7,20.5 
		37.7,24.6 37.7,29.7 	"/>
	<path style="fill:none;stroke:#FFE7A6;stroke-width:2.1;stroke-linejoin:bevel;stroke-miterlimit:10;" d="M32.1,36.2l3.9-3.9h3.1
		c0,0,0,4.1,0,4.2l-3.6,3.6h-3.8l-3.5-3.5"/>
	<polyline style="fill:none;stroke:#FFE7A6;stroke-width:2.1;stroke-linejoin:bevel;stroke-miterlimit:10;" points="13.1,12.7 
		14.9,10.9 18.7,10.9 20.5,12.8 20.5,36.4 13.9,30.7 13.9,24.6 	"/>
	<polyline style="fill:none;stroke:#FFE7A6;stroke-width:2.1;stroke-linejoin:bevel;stroke-miterlimit:10;" points="17.3,27.6 
		17.3,20 12.6,15.3 8.6,19.3 	"/>
	<polyline style="fill:none;stroke:#FFE7A6;stroke-width:2.1;stroke-linejoin:bevel;stroke-miterlimit:10;" points="12.6,20.5 
		8.6,24.6 8.6,29.7 	"/>
	<path style="fill:none;stroke:#FFE7A6;stroke-width:2.1;stroke-linejoin:bevel;stroke-miterlimit:10;" d="M14.2,36.2l-3.9-3.9H7.2
		c0,0,0,4.1,0,4.2l3.6,3.6h3.8l3.5-3.5"/>
	<polyline style="fill:none;stroke:#FFE7A6;stroke-width:2.1;stroke-linejoin:bevel;stroke-miterlimit:10;" points="18.6,40.1 
		21.2,42.6 22.8,42.6 	"/>
	<polyline style="fill:none;stroke:#FFE7A6;stroke-width:2.1;stroke-linejoin:bevel;stroke-miterlimit:10;" points="27.7,40.1 
		25.1,42.6 23.5,42.6 	"/>
</g>
</svg>
