<?xml version="1.0" encoding="iso-8859-1"?>
<!-- Generator: Adobe Illustrator 22.1.0, SVG Export Plug-In . SVG Version: 6.00 Build 0)  -->
<svg version="1.1" id="Layer_1" xmlns="http://www.w3.org/2000/svg" xmlns:xlink="http://www.w3.org/1999/xlink" x="0px" y="0px"
	 viewBox="0 0 45.936 53.045" style="enable-background:new 0 0 45.936 53.045;" xml:space="preserve">
<g id="hex-nette_x60_46x54">
	<polygon style="fill:#3484D2;" points="45.936,39.784 22.965,53.045 0,39.784 0,13.261 22.965,0 45.936,13.261 	"/>
	<polygon style="fill:#1469AF;" points="45.936,28.987 34.565,17.718 29.009,21.237 22.769,16.07 11.865,36.006 26.384,50.987 
		45.936,39.784 	"/>
	<path style="fill:#F7FAFC;" d="M37.406,32.28L37.406,32.28c-1.44,1.026-2.353,1.649-2.739,1.869
		c-2.064,1.23-3.949,1.846-5.656,1.846c-0.953,0-1.885-0.218-2.798-0.655c-0.913-0.437-1.598-1.002-2.054-1.697
		c-0.456-0.695-0.685-1.478-0.685-2.352c0-1.23,0.417-2.798,1.25-4.704c1.191-2.778,1.826-4.267,1.905-4.465
		c-0.04-0.159-0.06-0.338-0.06-0.536c-0.556,0.238-0.933,0.417-1.131,0.536c-1.111,0.715-2.203,1.528-3.275,2.441
		c-0.834,0.754-1.806,1.707-2.917,2.858c-0.238,1.429-0.357,2.838-0.357,4.227c0,1.072,0.059,2.143,0.179,3.215l-7.204,1.131
		c-0.556-2.223-0.834-4.346-0.834-6.371c0-1.23,0.119-2.481,0.357-3.751c0.238-1.27,0.675-2.699,1.31-4.287
		c0.437-1.111,1.052-2.5,1.846-4.167l8.276-1.369c-0.516,1.27-0.893,2.223-1.131,2.858c-0.437,1.072-0.794,2.044-1.072,2.917
		C22.6,20,24.585,18.59,26.569,17.598c1.588-0.794,3.017-1.191,4.287-1.191c0.715,0,1.449,0.139,2.203,0.417
		c0.754,0.278,1.3,0.714,1.637,1.31c0.337,0.595,0.506,1.31,0.506,2.143c0,1.191-0.337,2.659-1.012,4.406
		c-0.794,1.985-1.568,3.969-2.322,5.954c0,0.278,0.099,0.446,0.298,0.506c0.199,0.06,0.397,0.089,0.596,0.089
		c0.796,0,1.981-0.416,3.554-1.248L37.406,32.28z"/>
</g>
</svg>
