<?xml version="1.0" encoding="iso-8859-1"?>
<!-- Generator: Adobe Illustrator 22.1.0, SVG Export Plug-In . SVG Version: 6.00 Build 0)  -->
<svg version="1.1" id="Layer_1" xmlns="http://www.w3.org/2000/svg" xmlns:xlink="http://www.w3.org/1999/xlink" x="0px" y="0px"
	 viewBox="0 0 47.329 54.654" style="enable-background:new 0 0 47.329 54.654;" xml:space="preserve">
<g id="hex-empty_x60_48x55">
	<polygon style="fill:none;stroke:#B9DFF0;stroke-miterlimit:10;" points="46.829,40.702 23.661,54.076 0.5,40.702 0.5,13.952 
		23.661,0.577 46.829,13.952 	"/>
	<polygon style="fill:none;stroke:#B9DFF0;stroke-miterlimit:10;" points="28.88,30.338 23.664,33.349 18.449,30.338 18.449,24.316 
		23.664,21.304 28.88,24.316 	"/>
	<line style="fill:none;stroke:#B9DFF0;stroke-miterlimit:10;" x1="26.134" y1="13.939" x2="32.474" y2="17.599"/>
	<line style="fill:none;stroke:#B9DFF0;stroke-miterlimit:10;" x1="34.011" y1="36.185" x2="27.679" y2="39.86"/>
	<line style="fill:none;stroke:#B9DFF0;stroke-miterlimit:10;" x1="21.164" y1="40.715" x2="14.82" y2="37.063"/>
	<circle style="fill:none;stroke:#B9DFF0;stroke-miterlimit:10;" cx="23.694" cy="12.413" r="2.865"/>
	<circle style="fill:none;stroke:#B9DFF0;stroke-miterlimit:10;" cx="23.699" cy="42.049" r="2.865"/>
	<circle style="fill:none;stroke:#B9DFF0;stroke-miterlimit:10;" cx="36.475" cy="19.949" r="2.865"/>
	<circle style="fill:none;stroke:#B9DFF0;stroke-miterlimit:10;" cx="36.475" cy="34.737" r="2.865"/>
	<circle style="fill:none;stroke:#B9DFF0;stroke-miterlimit:10;" cx="10.842" cy="19.949" r="2.865"/>
	<circle style="fill:none;stroke:#B9DFF0;stroke-miterlimit:10;" cx="10.759" cy="34.737" r="2.865"/>
	<line style="fill:none;stroke:#B9DFF0;stroke-miterlimit:10;" x1="36.485" y1="22.785" x2="36.515" y2="30.106"/>
	<line style="fill:none;stroke:#B9DFF0;stroke-miterlimit:10;" x1="10.796" y1="31.872" x2="10.826" y2="24.552"/>
	<line style="fill:none;stroke:#B9DFF0;stroke-miterlimit:10;" x1="13.29" y1="18.501" x2="19.636" y2="14.853"/>
</g>
</svg>
