<?xml version="1.0" encoding="iso-8859-1"?>
<!-- Generator: Adobe Illustrator 22.1.0, SVG Export Plug-In . SVG Version: 6.00 Build 0)  -->
<svg version="1.1" id="Layer_1" xmlns="http://www.w3.org/2000/svg" xmlns:xlink="http://www.w3.org/1999/xlink" x="0px" y="0px"
	 viewBox="0 0 46.962 54.207" style="enable-background:new 0 0 46.962 54.207;" xml:space="preserve">
<g id="hex-rethink_x60_47x55">
	<polygon style="fill:#297686;" points="46.894,40.611 23.448,54.148 0,40.611 0,13.537 23.448,0 46.894,13.537 	"/>
	<polygon style="fill:#115261;" points="29.011,15.698 46.962,33.649 46.894,40.611 34.952,47.324 	"/>
	<path style="fill:#FFFFFF;" d="M32.166,19.883c4.756,8.836,8.937,17.189,10.112,23.393l-18.83,10.931L4.618,43.335
		c1.175-6.203,5.46-14.56,10.112-23.452C19.334,11.082,27.434,11.091,32.166,19.883z"/>
	<path style="fill:#BAD6DA;" d="M42.278,43.276c-1.175-6.203-5.356-14.556-10.112-23.393c-2.692-5.002-6.474-7.161-10.082-6.472
		c7.706,0.965,13.142,17.779,16.589,31.946L42.278,43.276z"/>
	<path style="fill:none;stroke:#BAD6DA;stroke-miterlimit:10;" d="M25.912,23.879c0.504-1.214,1.234-1.672,2.227-1.672
		c0.993,0,1.653,0.528,2.186,1.672"/>
	<path style="fill:none;stroke:#BAD6DA;stroke-miterlimit:10;" d="M20.984,23.879c-0.504-1.214-1.234-1.672-2.227-1.672
		c-0.993,0-1.653,0.528-2.186,1.672"/>
	<path style="fill:#43909A;" d="M33.645,48.26c-4.244-15.436,2.933-19.114,3.25-19.242l0.011,0.023c0,0,0.436,0.876,0.636,1.299
		c0.201,0.425,0.637,1.383,0.637,1.383c-0.052,0.023-5.197,2.537-1.843,14.982L33.645,48.26z"/>
	<path style="fill:#2C7A85;" d="M36.893,29.019c-0.126,0.051-1.215,0.606-2.301,2.097c0.432,1.253,0.847,2.532,1.246,3.828
		c0.859-2.479,2.289-3.196,2.339-3.219C37.769,30.837,37.34,29.935,36.893,29.019z"/>
	<path style="fill:#43909A;" d="M13.251,48.26c4.244-15.436-3.02-19.156-3.338-19.284l-1.121,2.783l0.561-1.392l-0.591,1.379
		c0.052,0.023,5.151,2.514,1.797,14.959L13.251,48.26z"/>
</g>
</svg>
