<?xml version="1.0" encoding="iso-8859-1"?>
<!-- Generator: Adobe Illustrator 22.1.0, SVG Export Plug-In . SVG Version: 6.00 Build 0)  -->
<svg version="1.1" id="Layer_1" xmlns="http://www.w3.org/2000/svg" xmlns:xlink="http://www.w3.org/1999/xlink" x="0px" y="0px"
	 viewBox="0 0 45.953 53.065" style="enable-background:new 0 0 45.953 53.065;" xml:space="preserve">
<g id="hex-denali_x60_46x54">
	<polygon style="fill:#FFFFFF;" points="0.211,39.677 0.211,13.388 22.973,0.244 45.742,13.388 45.742,39.677 22.973,52.821 	"/>
	<path style="fill:#444444;" d="M22.973,0L0,13.266v26.532l22.973,13.266l22.98-13.266V13.266L22.973,0z M22.974,6.928l16.979,9.802
		v7.486l-7.539-4.304l-11.006,6.251l-5.119-3.019L6,29.178V16.73L22.974,6.928z M22.974,46.136L6,36.335v-0.202l10.281-6.027
		l10.824,6.385l3.049-5.168l-2.786-1.643l5.039-2.862l7.547,4.308v5.209L22.974,46.136z"/>
</g>
</svg>
