<?xml version="1.0" encoding="iso-8859-1"?>
<!-- Generator: Adobe Illustrator 22.1.0, SVG Export Plug-In . SVG Version: 6.00 Build 0)  -->
<svg version="1.1" id="Layer_1" xmlns="http://www.w3.org/2000/svg" xmlns:xlink="http://www.w3.org/1999/xlink" x="0px" y="0px"
	 viewBox="0 0 46.956 54.222" style="enable-background:new 0 0 46.956 54.222;" xml:space="preserve">
<g id="hex-scala_x60_47x55">
	<polygon style="fill:#DC322D;" points="46.956,40.666 23.478,54.222 0,40.666 0,13.555 23.478,0 46.956,13.555 	"/>
	<polyline style="fill:#C22C28;" points="15.009,39.439 27.48,51.911 46.956,40.666 46.956,27.182 31.181,11.406 	"/>
	<path style="fill:#F28885;" d="M15.009,22.188c0,0,16.173,1.617,16.173,4.313v-6.469c0,0,0-2.696-16.173-4.313v2.501V22.188z"/>
	<path style="fill:#F28885;" d="M15.009,30.813c0,0,16.173,1.618,16.173,4.314v-6.469c0,0,0-2.696-16.173-4.314V30.813z"/>
	<path style="fill:#FFFFFF;" d="M31.181,11.406v6.47c0,0,0,2.696-16.173,4.313v-6.469C15.009,15.719,31.181,14.101,31.181,11.406z"
		/>
	<path style="fill:#FFFFFF;" d="M15.009,24.344c0,0,16.173-1.617,16.173-4.313v6.469c0,0,0,2.696-16.173,4.313V24.344z"/>
	<path style="fill:#FFFFFF;" d="M15.009,39.439v-6.47c0,0,16.173-1.617,16.173-4.311v6.469
		C31.181,35.127,31.181,37.821,15.009,39.439z"/>
</g>
</svg>
