<?xml version="1.0" encoding="iso-8859-1"?>
<!-- Generator: Adobe Illustrator 22.1.0, SVG Export Plug-In . SVG Version: 6.00 Build 0)  -->
<svg version="1.1" id="Layer_1" xmlns="http://www.w3.org/2000/svg" xmlns:xlink="http://www.w3.org/1999/xlink" x="0px" y="0px"
	 viewBox="0 0 45.944 53.054" style="enable-background:new 0 0 45.944 53.054;" xml:space="preserve">
<g id="hex-wordpress_x60_46x54">
	<polygon style="fill:#21759B;" points="45.944,39.791 22.969,53.054 0,39.791 0,13.264 22.969,0 45.944,13.264 	"/>
	<path style="fill:#08597C;" d="M45.944,39.823v-8.684L33.682,16.257c-5.628-5.976-15.034-6.258-21.01-0.63
		c-5.42,5.104-6.227,13.432-1.888,19.482c0.829,1.163,14.94,16.353,14.94,16.353L45.944,39.823z"/>
	<path style="fill:#FFFFFF;" d="M22.982,12.332c-7.84-0.004-14.198,6.349-14.201,14.188s6.349,14.198,14.188,14.201
		c7.84,0.004,14.198-6.349,14.201-14.188l0,0C37.167,18.697,30.818,12.343,22.982,12.332z M10.219,26.527
		c-0.001-1.788,0.376-3.557,1.105-5.19l6.089,16.7C13.004,35.899,10.209,31.427,10.219,26.527z M22.982,39.29
		c-1.224,0.001-2.442-0.174-3.616-0.52l3.854-11.125l3.905,10.765c0.025,0.06,0.055,0.118,0.09,0.173
		C25.854,39.056,24.422,39.295,22.982,39.29z M24.742,20.554c0.771-0.039,1.458-0.122,1.458-0.122
		c0.291-0.023,0.508-0.278,0.485-0.568c-0.023-0.291-0.278-0.508-0.568-0.485c0,0-2.068,0.161-3.398,0.161s-3.353-0.161-3.353-0.161
		c-0.291-0.009-0.534,0.22-0.542,0.511c-0.008,0.266,0.183,0.496,0.446,0.536c0,0,0.642,0.083,1.336,0.122l1.965,5.447l-2.794,8.35
		l-4.612-13.79c0.771-0.039,1.458-0.122,1.458-0.122c0.291-0.023,0.508-0.278,0.485-0.568c-0.023-0.291-0.278-0.508-0.568-0.485
		c0,0-2.068,0.161-3.398,0.161h-0.822c3.871-5.886,11.781-7.52,17.667-3.649c0.566,0.372,1.102,0.789,1.602,1.247h-0.167
		c-1.218,0.035-2.178,1.049-2.145,2.267c0,1.053,0.604,1.927,1.285,2.993c0.651,1.05,1,2.259,1.008,3.494
		c0,1.092-0.417,2.357-0.97,4.124l-1.285,4.252L24.742,20.554z M29.398,37.562l3.899-11.266c0.617-1.449,0.945-3.005,0.963-4.58
		c0-0.43-0.028-0.859-0.083-1.285c3.298,6.061,1.182,13.646-4.779,17.124V37.562z"/>
</g>
</svg>
