<?xml version="1.0" encoding="iso-8859-1"?>
<!-- Generator: Adobe Illustrator 22.1.0, SVG Export Plug-In . SVG Version: 6.00 Build 0)  -->
<svg version="1.1" id="Layer_1" xmlns="http://www.w3.org/2000/svg" xmlns:xlink="http://www.w3.org/1999/xlink" x="0px" y="0px"
	 viewBox="0 0 46.5 53.7" style="enable-background:new 0 0 46.5 53.7;" xml:space="preserve">
<g id="hex-middleman_x60_47x54">
	<polygon id="_x3E_bg_2_" style="fill:#F3B711;" points="46.5,40.3 23.2,53.7 0,40.3 0,13.4 23.2,0 46.5,13.4 	"/>
	<path style="fill:#9F6229;enable-background:new    ;" d="M8.886,20.71v12.738l3.11,0.529v-8.062l3.043,5.735h0.067l3.207-5.757
		v8.666l3.669,0.544V18.942l-3.93,0.552l-3.005,5.824l-2.856-5.131L8.886,20.71z M8.819,17.041l14.542-2.871v2.133L8.819,18.711
		V17.041z"/>
	<path style="fill:#9F6229;enable-background:new    ;" d="M8.819,36.796l14.542,2.864v-2.125L8.819,35.118V36.796z"/>
	<path style="fill:#FFFFFF;" d="M37.681,20.732v12.835l-3.11,0.403v-8.136l-3.043,5.735h-0.067l-3.207-5.757v8.875l-3.662,0.328
		V18.965l3.923,0.552l3.005,5.713l2.856-4.915L37.681,20.732z M37.606,17.041l-14.244-2.871v2.028l14.244,2.416V17.041z"/>
	<path style="fill:#FFFFFF;" d="M37.606,36.796L23.362,39.66v-2.125l14.244-2.312V36.796z"/>
</g>
</svg>
