<?xml version="1.0" encoding="iso-8859-1"?>
<!-- Generator: Adobe Illustrator 22.1.0, SVG Export Plug-In . SVG Version: 6.00 Build 0)  -->
<svg version="1.1" id="Layer_1" xmlns="http://www.w3.org/2000/svg" xmlns:xlink="http://www.w3.org/1999/xlink" x="0px" y="0px"
	 viewBox="0 0 45.854 52.951" style="enable-background:new 0 0 45.854 52.951;" xml:space="preserve">
<g id="hex-revel_x60_46x53">
	<polygon style="fill:#353535;" points="45.854,39.713 22.924,52.951 0,39.713 0,13.238 22.924,0 45.854,13.238 	"/>
	<polygon style="fill:#191919;" points="20.715,11.716 17.861,12.279 16.236,38.154 27.695,50.195 45.854,39.713 45.854,36.862 	"/>
	<path style="fill:none;stroke:#E2E2E2;stroke-width:1.5;stroke-miterlimit:10;" d="M26.216,38.509
		c-4.104,1.132-7.206,0.306-8.674-0.278c-0.564-0.224-0.921-0.776-0.891-1.382l1.201-23.635c0.069-1.352,1.822-1.836,2.574-0.71
		l13.149,19.676c0.337,0.505,0.313,1.162-0.056,1.643C32.559,35.077,30.32,37.377,26.216,38.509z"/>
	<path style="fill:none;stroke:#E2E2E2;stroke-width:1.5;stroke-miterlimit:10;" d="M16.909,31.786
		c2.588,3.327,6.323,5.577,10.445,6.351"/>
	<path style="fill:none;stroke:#E2E2E2;stroke-width:1.5;stroke-miterlimit:10;" d="M17.299,24.116
		c3.429,5.437,9.695,8.57,16.2,7.948"/>
	<path style="fill:none;stroke:#E2E2E2;stroke-width:1.5;stroke-miterlimit:10;" d="M17.658,17.053
		c2.5,3.557,6.247,6.028,10.448,6.941"/>
</g>
</svg>
