<?xml version="1.0" encoding="iso-8859-1"?>
<!-- Generator: Adobe Illustrator 22.1.0, SVG Export Plug-In . SVG Version: 6.00 Build 0)  -->
<svg version="1.1" id="Layer_1" xmlns="http://www.w3.org/2000/svg" xmlns:xlink="http://www.w3.org/1999/xlink" x="0px" y="0px"
	 viewBox="0 0 46.361 53.533" style="enable-background:new 0 0 46.361 53.533;" xml:space="preserve">
<g id="hex-amber_x60_47x54">
	<polygon style="fill:#EA9446;" points="23.18,0 0,13.383 0,40.15 23.18,53.533 46.361,40.15 46.361,13.383 	"/>
	<polygon style="fill:#F1BD8E;" points="0,13.383 5.132,28.526 23.18,0 	"/>
	<polygon style="fill:#EB9E5B;" points="0,40.15 5.132,28.526 0,13.383 	"/>
	<polygon style="fill:#E7832D;" points="23.18,53.533 5.132,28.526 0,40.15 	"/>
	<polygon style="fill:#E88939;" points="5.132,28.526 30.997,42.182 23.18,53.533 	"/>
	<polygon style="fill:#E67E26;" points="46.361,40.15 38.721,19.94 46.361,13.383 	"/>
	<polygon style="fill:#E98E40;" points="30.997,42.182 38.721,19.94 46.361,40.15 	"/>
	<polygon style="fill:#E77F29;" points="5.132,28.526 38.721,19.94 30.997,42.182 	"/>
	<polygon style="fill:#E68129;" points="23.18,0 38.721,19.94 46.361,13.383 	"/>
</g>
</svg>
