<?xml version="1.0" encoding="iso-8859-1"?>
<!-- Generator: Adobe Illustrator 22.1.0, SVG Export Plug-In . SVG Version: 6.00 Build 0)  -->
<svg version="1.1" id="Layer_1" xmlns="http://www.w3.org/2000/svg" xmlns:xlink="http://www.w3.org/1999/xlink" x="0px" y="0px"
	 viewBox="0 0 46.108 53.244" style="enable-background:new 0 0 46.108 53.244;" xml:space="preserve">
<g id="hex-hapi_x60_47x54">
	<polygon style="fill:#99987D;stroke:#99987D;stroke-width:0.094;" points="46.061,39.906 23.051,53.189 0.047,39.906 0.047,13.338 
		23.051,0.054 46.061,13.338 	"/>
	<polygon style="fill:#7F7C66;" points="2.778,32.386 24.158,52.55 46.061,39.906 46.061,29.043 23.394,9.389 22.339,10.569 
		22.322,14.262 23.928,14.426 19.762,17.369 25.431,16.708 22.322,18.887 22.113,20.939 23.581,22.087 11.649,27.544 7.976,31.765 	
		"/>
	<path style="fill:#FFFFFF;" d="M29.204,22.338c-2.092-0.477-2.793-0.905-6.333-0.905s-4.241,0.427-6.333,0.905
		c-2.379,0.543-4.065,2.654-4.065,5.095v7.293c0,1.839,1.094,3.462,2.729,4.184v-5.603c0-1.91,0.623-3.562,2.486-3.988
		c1.637-0.374,2.413-0.708,5.184-0.708s3.546,0.334,5.184,0.708c1.862,0.425,2.486,2.077,2.486,3.988v5.603
		c1.635-0.723,2.729-2.345,2.729-4.184v-7.293C33.269,24.992,31.583,22.881,29.204,22.338z"/>
	<path style="fill:#FFFFFF;" d="M9.629,28.402c-1.359,0.517-2.33,1.822-2.33,3.363c0,1.541,0.971,2.846,2.33,3.363
		c0.046,0.018,2.02,0.783,2.02,0.783v-8.367C11.649,27.544,9.781,28.344,9.629,28.402z"/>
	<path style="fill:#FFFFFF;" d="M36.113,35.053c1.359-0.517,2.33-1.822,2.33-3.363c0-1.541-0.971-2.846-2.33-3.363
		c-0.046-0.018-0.096-0.029-0.143-0.044l-1.877-0.738v8.367C34.093,35.911,35.961,35.111,36.113,35.053z"/>
	
		<polyline style="fill:none;stroke:#FFFFFF;stroke-width:1.2103;stroke-linecap:round;stroke-linejoin:round;stroke-miterlimit:10;" points="
		22.322,20.364 22.322,18.887 25.431,16.708 19.762,17.369 24.335,14.467 22.322,14.262 22.322,11.82 	"/>
	<circle style="fill:#FFFFFF;" cx="22.339" cy="10.569" r="1.589"/>
	<circle style="fill:#FFFFFF;" cx="4.014" cy="31.765" r="1.236"/>
	
		<line style="fill:none;stroke:#FFFFFF;stroke-width:1.2103;stroke-miterlimit:10;" x1="7.299" y1="31.765" x2="4.014" y2="31.765"/>
	<circle style="fill:#FFFFFF;" cx="41.728" cy="31.765" r="1.236"/>
	
		<line style="fill:none;stroke:#FFFFFF;stroke-width:1.2103;stroke-miterlimit:10;" x1="38.443" y1="31.765" x2="41.728" y2="31.765"/>
	<path style="fill:#F6941E;stroke:#F6941E;stroke-width:0.0613;" d="M22.602,27.322c-2.253,0-5.551,0.781-5.551-1.11
		s4.205-2.98,5.551-2.98s5.551,1.028,5.551,2.98S24.856,27.322,22.602,27.322z"/>
	<polyline style="fill:none;stroke:#FFFFFF;stroke-width:1.2103;stroke-linecap:round;stroke-miterlimit:10;" points="
		18.746,25.872 19.984,25.226 20.485,25.968 21.499,24.605 22.34,26.111 23.528,24.509 24.398,26.111 25.065,25.31 26.311,26.111 	
		"/>
</g>
</svg>
