<?xml version="1.0" encoding="iso-8859-1"?>
<!-- Generator: Adobe Illustrator 22.1.0, SVG Export Plug-In . SVG Version: 6.00 Build 0)  -->
<svg version="1.1" id="Layer_1" xmlns="http://www.w3.org/2000/svg" xmlns:xlink="http://www.w3.org/1999/xlink" x="0px" y="0px"
	 viewBox="0 0 46.5 53.7" style="enable-background:new 0 0 46.5 53.7;" xml:space="preserve">
<g id="hex-php_x60_47x54">
	<polygon id="_x3E_bg_7_" style="fill:#9CB3F0;" points="46.5,40.3 23.2,53.7 0,40.3 0,13.4 23.2,0 46.5,13.4 	"/>
	<polyline style="fill:#52638F;" points="30.3,32.4 23.663,53.434 46.5,40.3 46.5,14.553 36.6,13.1 	"/>
	<polygon style="fill:#374E78;" points="39.5,16.1 46.3,25.9 35.6,44.2 31.7,35.7 	"/>
	<polygon style="fill:#52638F;" points="17.5,14.3 23.2,9.2 28.9,10.1 36,9.2 44.4,25.8 35.8,37.8 27,33.7 28.3,26 27,32.3 
		23.9,32.1 21.3,34.9 19.5,34.6 19.3,32.6 17.5,33.6 15.4,42.3 11.1,43.3 2.6,37.8 5.4,36.5 10.6,39.2 12.6,37.8 10.9,26.7 	"/>
	<polygon style="fill:#FFFFFF;" points="19.9,26.2 21.1,28.5 17,29.4 7.6,22.3 9,21.6 16.9,26.7 	"/>
	<polygon style="fill:#FFFFFF;" points="9.7,27.9 6.9,27.9 2.3,24 1.3,24.7 6.2,29.5 10.3,29.9 	"/>
	<circle style="fill:#2D3652;" cx="23.2" cy="20" r="1.8"/>
	<polygon style="fill:#374E78;" points="30.3,17.4 27.2,32.4 24.4,32.2 	"/>
</g>
</svg>
