<?xml version="1.0" encoding="iso-8859-1"?>
<!-- Generator: Adobe Illustrator 22.1.0, SVG Export Plug-In . SVG Version: 6.00 Build 0)  -->
<svg version="1.1" id="Layer_1" xmlns="http://www.w3.org/2000/svg" xmlns:xlink="http://www.w3.org/1999/xlink" x="0px" y="0px"
	 viewBox="0 0 45.854 52.951" style="enable-background:new 0 0 45.854 52.951;" xml:space="preserve">
<g id="hex-play_x60_46x53">
	<polygon style="fill:#92D13D;" points="45.854,39.713 22.924,52.951 0,39.713 0,13.238 22.924,0 45.854,13.238 	"/>
	<polygon style="fill:#7CB334;" points="22.283,10.241 45.854,25.764 45.854,39.713 27.693,50.198 16.723,41.347 30.127,26.128 	"/>
	<path style="fill:#FFFFFF;" d="M16.695,10.927l0.868-0.868c1.331-1.316,3.501-1.232,4.72,0.182L34.3,24.246
		c1.05,1.218,1.036,3.025-0.028,4.23L22.297,42.047c-1.232,1.387-3.375,1.457-4.692,0.14l-0.868-0.868
		c-1.176-1.176-1.26-3.053-0.196-4.342l7.171-8.599c0.98-1.176,0.994-2.871,0.042-4.076l-7.283-9.103
		C15.435,13.938,15.533,12.09,16.695,10.927z"/>
	<path style="fill:#49691F;" d="M23.698,28.406l-7.171,8.599c-1.064,1.274-0.98,3.165,0.196,4.342l0.868,0.868
		c1.316,1.317,3.459,1.246,4.692-0.14l2.591-2.941c0.98-1.933,1.527-4.118,1.527-6.428c0-2.857-0.84-5.504-2.269-7.731
		C24.664,26.067,24.524,27.425,23.698,28.406z"/>
</g>
</svg>
