<?xml version="1.0" encoding="iso-8859-1"?>
<!-- Generator: Adobe Illustrator 22.1.0, SVG Export Plug-In . SVG Version: 6.00 Build 0)  -->
<svg version="1.1" id="Layer_1" xmlns="http://www.w3.org/2000/svg" xmlns:xlink="http://www.w3.org/1999/xlink" x="0px" y="0px"
	 viewBox="0 0 45.944 53.054" style="enable-background:new 0 0 45.944 53.054;" xml:space="preserve">
<g id="hex-hugo_x60_46x54">
	<polygon style="fill:#FB42B9;" points="45.944,39.79 22.969,53.054 0,39.79 0,13.263 22.969,0 45.944,13.263 	"/>
	<path style="fill:#CA127F;" d="M38.981,37.186l-14.773,8.536c-0.757,0.437-1.69,0.437-2.447,0L6.988,37.186
		c-0.756-0.438-1.221-1.246-1.22-2.12V17.988c-0.001-0.874,0.464-1.682,1.22-2.12l14.773-8.536c0.757-0.437,1.69-0.437,2.447,0
		l14.773,8.536c0.756,0.438,1.221,1.246,1.22,2.12v17.079C40.202,35.94,39.737,36.748,38.981,37.186z"/>
	<polygon style="fill:#FFFFFF;" points="25.875,16.444 25.875,23.51 20.094,23.51 20.094,16.444 15.598,16.444 15.598,35.713 
		20.094,35.713 20.094,27.364 25.875,27.364 25.875,35.713 30.371,35.713 30.371,16.444 	"/>
</g>
</svg>
