<?xml version="1.0" encoding="iso-8859-1"?>
<!-- Generator: Adobe Illustrator 22.1.0, SVG Export Plug-In . SVG Version: 6.00 Build 0)  -->
<svg version="1.1" id="Layer_1" xmlns="http://www.w3.org/2000/svg" xmlns:xlink="http://www.w3.org/1999/xlink" x="0px" y="0px"
	 viewBox="0 0 45.953 53.065" style="enable-background:new 0 0 45.953 53.065;" xml:space="preserve">
<g id="hex-bottle_x60_46x54">
	<polygon style="fill:#41BFA6;" points="45.953,39.799 22.973,53.065 0,39.799 0,13.266 22.973,0 45.953,13.266 	"/>
	<polygon style="fill:#20A88E;" points="14.863,38.259 27.747,50.309 45.953,39.799 45.953,26.095 32.88,14.153 	"/>
	<path style="fill:#FCF2F3;" d="M12.746,21.127"/>
	<path style="fill:#FFFFFF;" d="M34.74,16.001c0,0-0.672-1.184-3.303-2.764s-4.075-1.643-4.075-1.643l-5.263,8.81
		c-0.256-0.019-0.513-0.032-0.774-0.032c-5.585,0-10.112,4.527-10.112,10.112c0,5.585,4.527,10.112,10.112,10.112
		c5.585,0,10.112-4.527,10.112-10.112c0-2.176-0.69-4.19-1.86-5.84L34.74,16.001z"/>
	<path style="fill:#41BFA6;" d="M29.65,30.511c0,4.624-3.748,8.372-8.372,8.372s-8.372-3.748-8.372-8.372
		c0-0.551,0.053-1.09,0.155-1.612c5.891,2.112,10.183-3.18,16.487,0.305C29.615,29.63,29.65,30.067,29.65,30.511z"/>
	<circle style="fill:#41BFA6;" cx="22.509" cy="29.062" r="2.655"/>
	<circle style="fill:#41BFA6;" cx="19.188" cy="29.934" r="2.089"/>
	<circle style="fill:#41BFA6;" cx="25.816" cy="24.775" r="1.532"/>
	<circle style="fill:#41BFA6;" cx="22.002" cy="23.538" r="0.975"/>
</g>
</svg>
