<?xml version="1.0" encoding="iso-8859-1"?>
<!-- Generator: Adobe Illustrator 22.1.0, SVG Export Plug-In . SVG Version: 6.00 Build 0)  -->
<svg version="1.1" id="Layer_1" xmlns="http://www.w3.org/2000/svg" xmlns:xlink="http://www.w3.org/1999/xlink" x="0px" y="0px"
	 viewBox="0 0 45.936 53.045" style="enable-background:new 0 0 45.936 53.045;" xml:space="preserve">
<g id="hex-laravel_x60_46x54">
	<polygon style="fill:#FB503B;" points="45.936,39.784 22.965,53.045 0,39.784 0,13.261 22.965,0 45.936,13.261 	"/>
	<path style="fill:#FFFFFF;" d="M39.27,26.876L39.27,26.876c-0.109-0.122-1.047-1.284-1.875-2.318
		c-0.828-1.034-1.58-1.965-1.824-2.261c-0.255-0.455-0.773-0.693-1.284-0.591H34.21c-0.334,0.051-4.155,0.694-4.495,0.751
		c-0.314,0.019-0.598,0.189-0.764,0.456c-0.079,0.22-0.033,0.466,0.122,0.642l2.993,4.238l-9.228,2.209L15.13,17.159l-0.051-0.077
		c-0.231-0.483-0.76-0.747-1.284-0.642c-0.726,0.032-6.287,0.494-6.518,0.514C6.979,16.95,6.7,17.095,6.531,17.339
		c-0.161,0.372-0.137,0.798,0.064,1.15c0.27,0.642,3.211,7.064,5.202,11.29l1.509,3.269c0.319,0.792,1.199,1.2,2.01,0.931
		c0.957-0.231,4.059-1.034,6.582-1.695c1.445,2.614,3.211,5.741,3.564,6.255c0.224,0.412,0.649,0.676,1.117,0.694
		c0.327-0.021,0.649-0.088,0.957-0.199c0.7-0.212,10.211-3.641,10.564-3.783c0.3-0.068,0.553-0.269,0.687-0.546
		c0.048-0.226-0.009-0.462-0.154-0.642c-0.186-0.276-2.087-2.826-3.757-5.06l3.988-1.06c0.254-0.041,0.468-0.215,0.559-0.456
		C39.483,27.269,39.424,27.038,39.27,26.876z M33.182,29.316l1.355,1.862l1.843,2.53l-3.307,1.124
		c-4.123,1.394-5.979,2.023-6.075,2.068h-0.051c-0.047-0.041-0.088-0.088-0.122-0.141c-0.167-0.238-2.029-3.449-2.948-5.041
		L33.182,29.316z M31.082,23.812c0.835-0.148,3.211-0.572,3.378-0.642c0.017,0.004,0.035,0.004,0.051,0
		c0.028,0.021,0.052,0.047,0.071,0.077c0.128,0.173,1.22,1.561,2.383,3.038l0.206,0.257l-3.468,0.854L31.082,23.812z M36.701,33.632
		 M20.858,30.472l-5.658,1.361l0,0c-0.642-1.284-5.902-12.202-6.531-13.486l2.511-0.218l2.505-0.218
		C13.916,18.373,20.19,29.316,20.858,30.472z"/>
	<polygon style="fill:#FD9689;" points="20.897,30.472 19.33,30.864 20.313,32.675 21.918,32.257 	"/>
	<polygon style="fill:#FD9689;" points="33.195,29.316 33.998,30.408 35.661,29.977 34.91,28.976 	"/>
</g>
</svg>
