<?xml version="1.0" encoding="iso-8859-1"?>
<!-- Generator: Adobe Illustrator 22.1.0, SVG Export Plug-In . SVG Version: 6.00 Build 0)  -->
<svg version="1.1" id="Layer_1" xmlns="http://www.w3.org/2000/svg" xmlns:xlink="http://www.w3.org/1999/xlink" x="0px" y="0px"
	 viewBox="0 0 21.486 8.857" style="enable-background:new 0 0 21.486 8.857;" xml:space="preserve">
<g id="view-snippet_x60_22x9">
	<path style="fill:none;stroke:#1D6096;stroke-width:1.5;stroke-miterlimit:10;" d="M20.888,5.816
		C18.565,2.745,14.891,0.75,10.743,0.75c-4.148,0-7.821,1.995-10.144,5.066"/>
	<path style="fill:none;stroke:#1D6096;stroke-width:1.5;stroke-miterlimit:10;" d="M4.635,8.003
		C3.055,7.132,1.68,5.935,0.598,4.504"/>
	<path style="fill:none;stroke:#1D6096;stroke-width:1.5;stroke-miterlimit:10;" d="M20.888,4.504
		C19.727,6.04,18.227,7.306,16.5,8.189"/>
	<path style="fill:none;stroke:#1D6096;stroke-width:1.5;stroke-miterlimit:10;" d="M15.536,2.085c0,2.648-2.146,4.794-4.793,4.794
		S5.95,4.732,5.95,2.085"/>
	<path style="fill:#1D6096;" d="M12.606,2.603c0,1.028-0.834,1.863-1.863,1.863c-1.028,0-1.861-0.835-1.861-1.863
		c0-1.029,0.833-1.865,1.861-1.865C11.772,0.738,12.606,1.574,12.606,2.603z"/>
</g>
</svg>
